{"glyphs":{"0":{"ha":772,"x_min":62,"x_max":710,"o":"m 386 1011 q 710 496 710 1011 q 386 -17 710 -17 q 62 496 62 -17 q 386 1011 62 1011 m 386 83 q 529 174 480 83 q 578 496 578 265 q 529 819 578 727 q 386 911 480 911 q 243 819 292 911 q 195 496 195 727 q 243 174 195 265 q 386 83 292 83 z "},"1":{"ha":772,"x_min":154,"x_max":521,"o":"m 521 0 l 393 0 l 393 782 q 154 730 316 730 l 154 831 q 422 1011 388 831 l 521 1011 l 521 0 z "},"2":{"ha":772,"x_min":43,"x_max":701,"o":"m 701 0 l 43 0 q 99 174 43 91 q 306 377 155 256 q 511 571 456 498 q 567 734 567 643 q 519 864 567 817 q 386 911 472 911 q 258 863 311 911 q 199 724 205 816 l 66 724 q 163 933 77 854 q 389 1011 249 1011 q 618 931 537 1011 q 699 732 699 852 q 639 540 699 623 q 402 309 579 457 q 221 118 224 161 l 701 118 l 701 0 z "},"3":{"ha":772,"x_min":61,"x_max":713,"o":"m 524 546 q 664 454 614 522 q 713 293 713 385 q 618 69 713 155 q 385 -17 524 -17 q 156 60 244 -17 q 61 262 68 136 l 193 262 q 243 136 193 189 q 385 83 292 83 q 527 141 474 83 q 581 290 581 199 q 525 434 581 384 q 364 485 470 485 l 315 485 l 315 585 l 345 585 q 530 755 530 585 q 490 871 530 831 q 375 911 449 911 q 205 753 223 911 l 74 753 q 170 945 88 879 q 372 1011 252 1011 q 584 939 505 1011 q 663 753 663 867 q 628 632 663 689 q 524 546 594 576 z "},"4":{"ha":772,"x_min":21,"x_max":708,"o":"m 708 237 l 574 237 l 574 0 l 446 0 l 446 237 l 21 237 l 21 350 l 473 1007 l 574 1007 l 574 350 l 708 350 l 708 237 m 446 350 l 446 806 l 140 350 l 446 350 z "},"5":{"ha":772,"x_min":58,"x_max":717,"o":"m 224 600 q 408 660 298 660 q 625 572 532 660 q 717 338 717 484 q 624 84 717 184 q 378 -17 532 -17 q 162 53 252 -17 q 58 261 73 123 l 191 261 q 253 127 201 171 q 378 83 305 83 q 527 153 470 83 q 585 326 585 223 q 526 491 585 431 q 375 551 468 551 q 195 469 269 551 l 94 469 l 136 994 l 669 994 l 669 876 l 245 876 l 224 600 z "},"6":{"ha":772,"x_min":62,"x_max":714,"o":"m 192 536 q 418 644 290 644 q 628 554 543 644 q 714 323 714 463 q 629 82 714 182 q 403 -17 544 -17 q 152 107 241 -17 q 62 465 62 232 q 414 1011 62 1011 q 603 949 526 1011 q 697 764 680 886 l 566 764 q 407 911 549 911 q 259 814 315 911 q 192 536 202 718 m 191 437 q 250 175 193 267 q 400 83 306 83 q 532 150 483 83 q 582 315 582 216 q 531 480 582 416 q 396 545 481 545 q 191 437 291 545 z "},"7":{"ha":772,"x_min":66,"x_max":710,"o":"m 710 904 l 349 0 l 205 0 l 576 876 l 66 876 l 66 994 l 710 994 l 710 904 z "},"8":{"ha":772,"x_min":58,"x_max":714,"o":"m 507 522 q 714 264 714 427 q 624 61 714 138 q 386 -17 533 -17 q 149 61 239 -17 q 58 264 58 138 q 265 522 58 427 q 97 765 97 619 q 177 942 97 873 q 386 1011 256 1011 q 595 942 516 1011 q 675 765 675 873 q 507 522 675 619 m 386 575 q 543 765 543 646 q 502 872 543 833 q 386 911 460 911 q 271 872 313 911 q 229 765 229 833 q 386 575 229 646 m 582 264 q 535 375 582 328 q 386 467 488 421 q 237 375 284 421 q 191 264 191 328 q 244 132 191 180 q 386 83 298 83 q 528 132 474 83 q 582 264 582 180 z "},"9":{"ha":772,"x_min":58,"x_max":710,"o":"m 581 458 q 354 350 482 350 q 144 440 230 350 q 58 671 58 531 q 143 912 58 812 q 370 1011 229 1011 q 621 887 531 1011 q 710 529 710 763 q 358 -17 710 -17 q 169 45 247 -17 q 75 231 92 108 l 207 231 q 366 83 223 83 q 513 180 457 83 q 581 458 570 277 m 582 557 q 523 820 579 728 q 372 911 467 911 q 240 844 290 911 q 191 679 191 778 q 241 514 191 578 q 376 450 292 450 q 582 557 481 450 z "}," ":{"ha":369,"x_min":0,"x_max":0,"o":"m 0 0 z "}," ":{"ha":369,"x_min":0,"x_max":0,"o":"m 0 0 z "},"!":{"ha":386,"x_min":123,"x_max":262,"o":"m 262 0 l 123 0 l 123 139 l 262 139 l 262 0 m 262 779 l 236 248 l 150 248 l 123 779 l 123 994 l 262 994 l 262 779 z "},"\"":{"ha":493,"x_min":57,"x_max":435,"o":"m 435 832 l 404 642 l 329 642 l 296 832 l 296 994 l 435 994 l 435 832 m 196 832 l 165 642 l 90 642 l 57 832 l 57 994 l 196 994 l 196 832 z "},"#":{"ha":772,"x_min":16,"x_max":757,"o":"m 757 619 l 623 619 l 572 372 l 701 372 l 701 272 l 551 272 l 496 0 l 393 0 l 449 272 l 232 272 l 176 0 l 74 0 l 129 272 l 16 272 l 16 372 l 150 372 l 200 619 l 71 619 l 71 720 l 221 720 l 277 994 l 379 994 l 323 720 l 541 720 l 596 994 l 699 994 l 643 720 l 757 720 l 757 619 m 519 619 l 302 619 l 253 372 l 469 372 l 519 619 z "},"$":{"ha":772,"x_min":53,"x_max":710,"o":"m 421 567 q 650 466 589 532 q 710 286 710 400 q 633 80 710 168 q 421 -16 557 -8 l 421 -121 l 349 -121 l 349 -17 q 53 281 72 14 l 184 281 q 349 86 199 111 l 349 465 q 74 733 74 520 q 148 926 74 853 q 349 1011 222 1000 l 349 1116 l 421 1116 l 421 1011 q 686 765 663 993 l 554 765 q 421 908 543 891 l 421 567 m 349 582 l 349 909 q 205 743 205 884 q 245 633 205 667 q 349 582 285 598 m 421 86 q 578 278 578 106 q 546 387 578 349 q 421 449 514 425 l 421 86 z "},"%":{"ha":1235,"x_min":87,"x_max":1147,"o":"m 313 1011 q 476 941 412 1011 q 539 747 539 870 q 476 554 539 625 q 313 484 412 484 q 150 554 213 484 q 87 747 87 625 q 150 941 87 870 q 313 1011 213 1011 m 313 567 q 431 747 431 567 q 313 928 431 928 q 196 747 196 928 q 313 567 196 567 m 937 994 l 395 0 l 296 0 l 839 994 l 937 994 m 921 511 q 1084 440 1021 511 q 1147 248 1147 370 q 1084 54 1147 125 q 921 -17 1021 -17 q 759 54 821 -17 q 696 248 696 124 q 759 441 696 370 q 921 511 821 511 m 921 66 q 1039 248 1039 66 q 921 428 1039 428 q 804 248 804 428 q 921 66 804 66 z "},"&":{"ha":926,"x_min":60,"x_max":856,"o":"m 856 66 l 757 -17 l 671 92 q 375 -17 553 -17 q 149 68 238 -17 q 60 273 60 153 q 117 435 60 366 q 290 570 174 504 q 184 789 184 705 q 255 947 184 884 q 432 1011 325 1011 q 597 949 532 1011 q 663 799 663 887 q 614 663 663 720 q 468 549 566 606 l 668 300 q 701 468 697 374 l 833 468 q 754 193 825 311 l 856 66 m 403 629 q 505 705 473 667 q 538 796 538 743 q 504 879 538 848 q 425 911 471 911 q 343 881 376 911 q 310 802 310 850 q 371 669 310 747 l 403 629 m 599 183 l 357 486 q 231 390 271 435 q 192 282 192 345 q 244 149 192 206 q 376 92 297 92 q 599 183 513 92 z "},"'":{"ha":265,"x_min":62,"x_max":201,"o":"m 201 832 l 171 642 l 96 642 l 62 832 l 62 994 l 201 994 l 201 832 z "},"(":{"ha":463,"x_min":83,"x_max":412,"o":"m 412 -292 l 325 -292 q 83 359 83 22 q 325 1011 83 698 l 412 1011 q 210 359 210 686 q 412 -292 210 33 z "},")":{"ha":463,"x_min":50,"x_max":379,"o":"m 138 1011 q 379 359 379 698 q 138 -292 379 22 l 50 -292 q 253 359 253 33 q 50 1011 253 686 l 138 1011 z "},"*":{"ha":541,"x_min":45,"x_max":494,"o":"m 494 811 l 328 774 l 440 644 l 357 583 l 269 732 l 182 583 l 98 644 l 211 774 l 45 811 l 77 908 l 233 840 l 218 1011 l 321 1011 l 306 840 l 463 908 l 494 811 z "},"+":{"ha":811,"x_min":77,"x_max":734,"o":"m 734 433 l 463 433 l 463 161 l 349 161 l 349 433 l 77 433 l 77 547 l 349 547 l 349 819 l 463 819 l 463 547 l 734 547 l 734 433 z "},",":{"ha":386,"x_min":123,"x_max":262,"o":"m 262 0 q 227 -142 262 -89 q 123 -196 192 -196 l 123 -131 q 192 0 192 -131 l 123 0 l 123 139 l 262 139 l 262 0 z "},"-":{"ha":463,"x_min":45,"x_max":418,"o":"m 418 298 l 45 298 l 45 421 l 418 421 l 418 298 z "},"­":{"ha":463,"x_min":45,"x_max":418,"o":"m 418 298 l 45 298 l 45 421 l 418 421 l 418 298 z "},".":{"ha":386,"x_min":123,"x_max":262,"o":"m 262 0 l 123 0 l 123 139 l 262 139 l 262 0 z "},"/":{"ha":386,"x_min":0,"x_max":386,"o":"m 386 994 l 98 0 l 0 0 l 288 994 l 386 994 z "},":":{"ha":386,"x_min":123,"x_max":262,"o":"m 262 0 l 123 0 l 123 139 l 262 139 l 262 0 m 262 581 l 123 581 l 123 720 l 262 720 l 262 581 z "},";":{"ha":386,"x_min":123,"x_max":262,"o":"m 262 0 q 227 -142 262 -89 q 123 -196 192 -196 l 123 -131 q 192 0 192 -131 l 123 0 l 123 139 l 262 139 l 262 0 m 262 581 l 123 581 l 123 720 l 262 720 l 262 581 z "},";":{"ha":386,"x_min":123,"x_max":262,"o":"m 262 0 q 227 -142 262 -89 q 123 -196 192 -196 l 123 -131 q 192 0 192 -131 l 123 0 l 123 139 l 262 139 l 262 0 m 262 581 l 123 581 l 123 720 l 262 720 l 262 581 z "},"<":{"ha":811,"x_min":77,"x_max":734,"o":"m 734 154 l 77 433 l 77 547 l 734 827 l 734 705 l 212 490 l 734 275 l 734 154 z "},"=":{"ha":811,"x_min":77,"x_max":734,"o":"m 734 585 l 77 585 l 77 699 l 734 699 l 734 585 m 734 282 l 77 282 l 77 396 l 734 396 l 734 282 z "},">":{"ha":811,"x_min":77,"x_max":734,"o":"m 734 433 l 77 154 l 77 275 l 599 490 l 77 705 l 77 827 l 734 547 l 734 433 z "},"?":{"ha":772,"x_min":64,"x_max":705,"o":"m 64 724 q 163 933 75 856 q 386 1011 251 1011 q 617 935 529 1011 q 705 741 705 859 q 675 617 705 674 q 562 491 645 560 q 459 381 478 422 q 440 244 440 340 l 321 244 q 350 429 321 370 q 457 554 379 488 q 555 656 536 621 q 574 732 574 692 q 522 860 574 810 q 387 911 471 911 q 196 724 224 911 l 64 724 m 454 0 l 315 0 l 315 139 l 454 139 l 454 0 z "},"@":{"ha":1410,"x_min":78,"x_max":1329,"o":"m 1097 -227 q 764 -292 949 -292 q 261 -129 444 -292 q 78 318 78 34 q 268 815 78 617 q 749 1013 458 1013 q 1172 862 1014 1013 q 1329 484 1329 711 q 1213 126 1329 254 q 921 -1 1097 -1 q 828 31 863 -1 q 790 111 793 63 q 582 -1 709 -1 q 406 73 475 -1 q 336 277 336 147 q 447 596 336 457 q 688 734 557 734 q 901 648 834 734 l 917 715 l 1038 715 l 933 260 q 916 147 916 185 q 953 98 916 98 q 1147 201 1066 98 q 1229 486 1229 304 q 1095 796 1229 674 q 747 918 960 918 q 338 744 498 918 q 178 318 178 570 q 331 -62 178 73 q 762 -197 485 -197 q 1047 -144 930 -197 l 1097 -227 m 878 549 q 697 635 821 635 q 533 523 606 635 q 461 281 461 411 q 607 98 461 98 q 740 158 678 98 q 825 318 802 217 l 878 549 z "},"A":{"ha":926,"x_min":-1,"x_max":928,"o":"m 625 407 l 450 868 l 283 407 l 625 407 m 928 0 l 779 0 l 664 302 l 248 302 l 138 0 l -1 0 l 380 994 l 522 994 l 928 0 z "},"B":{"ha":926,"x_min":111,"x_max":854,"o":"m 854 289 q 760 75 854 149 q 484 0 665 0 l 111 0 l 111 994 l 465 994 q 715 926 624 994 q 806 741 806 859 q 663 528 806 597 q 807 438 759 503 q 854 289 854 372 m 243 578 l 464 578 q 625 613 573 578 q 676 729 676 648 q 626 839 676 802 q 452 876 576 876 l 243 876 l 243 578 m 243 118 l 482 118 q 718 289 718 118 q 664 419 718 378 q 465 460 609 460 l 243 460 l 243 118 z "},"C":{"ha":1003,"x_min":65,"x_max":932,"o":"m 528 -17 q 191 122 317 -17 q 65 497 65 260 q 191 872 65 734 q 528 1011 317 1011 q 804 924 690 1011 q 932 693 918 836 l 796 693 q 714 843 788 787 q 529 899 641 899 q 290 794 378 899 q 201 497 201 690 q 289 200 201 304 q 526 96 376 96 q 715 153 643 96 q 796 315 787 210 l 932 315 q 807 70 918 157 q 528 -17 696 -17 z "},"D":{"ha":1003,"x_min":111,"x_max":933,"o":"m 111 994 l 427 994 q 933 503 933 994 q 427 0 933 0 l 111 0 l 111 994 m 243 118 l 424 118 q 719 219 640 118 q 798 503 798 319 q 719 779 798 681 q 424 876 641 876 l 243 876 l 243 118 z "},"E":{"ha":926,"x_min":111,"x_max":852,"o":"m 852 0 l 111 0 l 111 994 l 829 994 l 829 876 l 243 876 l 243 572 l 791 572 l 791 454 l 243 454 l 243 118 l 852 118 l 852 0 z "},"F":{"ha":848,"x_min":111,"x_max":782,"o":"m 782 876 l 243 876 l 243 568 l 710 568 l 710 450 l 243 450 l 243 0 l 111 0 l 111 994 l 782 994 l 782 876 z "},"G":{"ha":1080,"x_min":65,"x_max":991,"o":"m 546 -17 q 198 123 332 -17 q 65 497 65 264 q 197 871 65 731 q 542 1011 328 1011 q 841 925 722 1011 q 974 693 960 838 l 838 693 q 751 844 829 789 q 543 899 672 899 q 295 793 389 899 q 201 497 201 688 q 296 201 201 307 q 545 96 391 96 q 864 237 760 96 l 864 389 l 602 389 l 602 507 l 991 507 l 991 0 l 899 0 l 864 104 q 546 -17 763 -17 z "},"H":{"ha":1003,"x_min":111,"x_max":892,"o":"m 892 0 l 760 0 l 760 468 l 243 468 l 243 0 l 111 0 l 111 994 l 243 994 l 243 586 l 760 586 l 760 994 l 892 994 l 892 0 z "},"I":{"ha":386,"x_min":127,"x_max":260,"o":"m 260 0 l 127 0 l 127 994 l 260 994 l 260 0 z "},"J":{"ha":694,"x_min":37,"x_max":583,"o":"m 583 318 q 513 59 583 136 q 304 -17 442 -17 q 109 58 181 -17 q 37 257 37 134 l 37 283 l 170 283 q 304 102 170 102 q 414 142 376 102 q 452 311 452 182 l 452 994 l 583 994 l 583 318 z "},"K":{"ha":926,"x_min":111,"x_max":924,"o":"m 924 0 l 750 0 l 397 496 l 243 345 l 243 0 l 111 0 l 111 994 l 243 994 l 243 501 l 728 994 l 905 994 l 489 586 l 924 0 z "},"L":{"ha":772,"x_min":111,"x_max":726,"o":"m 726 0 l 111 0 l 111 994 l 243 994 l 243 118 l 726 118 l 726 0 z "},"M":{"ha":1157,"x_min":111,"x_max":1046,"o":"m 1046 0 l 921 0 l 921 846 l 637 0 l 519 0 l 236 846 l 236 0 l 111 0 l 111 994 l 309 994 l 578 165 l 848 994 l 1046 994 l 1046 0 z "},"N":{"ha":1003,"x_min":111,"x_max":892,"o":"m 892 0 l 757 0 l 236 785 l 236 0 l 111 0 l 111 994 l 245 994 l 766 210 l 766 994 l 892 994 l 892 0 z "},"O":{"ha":1080,"x_min":65,"x_max":1017,"o":"m 542 1011 q 884 870 751 1011 q 1017 497 1017 729 q 884 124 1017 265 q 542 -17 751 -17 q 199 124 332 -17 q 65 497 65 266 q 199 870 65 729 q 542 1011 332 1011 m 541 96 q 785 201 690 96 q 880 497 880 307 q 785 793 880 687 q 543 899 690 899 q 297 793 393 899 q 201 497 201 687 q 297 202 201 308 q 541 96 393 96 z "},"P":{"ha":926,"x_min":111,"x_max":865,"o":"m 111 994 l 482 994 q 687 971 604 994 q 817 873 769 949 q 865 704 865 798 q 770 475 865 553 q 493 397 674 397 l 243 397 l 243 0 l 111 0 l 111 994 m 243 515 l 494 515 q 675 563 621 515 q 729 700 729 610 q 699 806 729 760 q 624 864 669 852 q 492 876 578 876 l 243 876 l 243 515 z "},"Q":{"ha":1080,"x_min":65,"x_max":1034,"o":"m 1034 14 l 956 -79 l 791 50 q 542 -17 681 -17 q 199 124 332 -17 q 65 497 65 266 q 199 870 65 729 q 542 1011 332 1011 q 884 870 751 1011 q 1017 497 1017 729 q 888 127 1017 272 l 1034 14 m 789 205 q 880 497 880 314 q 785 793 880 687 q 543 899 690 899 q 297 793 393 899 q 201 497 201 687 q 297 202 201 308 q 541 96 393 96 q 690 129 619 96 l 591 207 l 669 300 l 789 205 z "},"R":{"ha":1003,"x_min":111,"x_max":940,"o":"m 940 0 l 798 0 l 704 265 q 621 380 679 336 q 486 425 562 425 l 243 425 l 243 0 l 111 0 l 111 994 l 551 994 q 740 972 667 994 q 859 878 813 949 q 905 715 905 806 q 846 543 905 612 q 682 453 786 474 l 682 450 q 840 271 786 417 l 940 0 m 243 543 l 536 543 q 714 582 659 543 q 770 715 770 621 q 557 885 770 885 l 243 885 l 243 543 z "},"S":{"ha":926,"x_min":62,"x_max":854,"o":"m 486 -17 q 172 77 276 -17 q 62 319 68 172 l 189 319 q 282 155 199 208 q 481 102 364 102 q 659 147 591 102 q 726 271 726 193 q 656 390 726 353 q 416 464 587 427 q 171 564 245 500 q 97 736 97 629 q 194 934 97 857 q 450 1011 290 1011 q 722 933 618 1011 q 831 713 825 855 l 703 713 q 456 893 683 893 q 286 852 346 893 q 225 742 225 810 q 274 648 225 680 q 455 588 322 617 q 665 530 587 559 q 799 442 743 502 q 854 281 854 382 q 752 68 854 153 q 486 -17 650 -17 z "},"T":{"ha":848,"x_min":31,"x_max":818,"o":"m 818 876 l 489 876 l 489 0 l 357 0 l 357 876 l 31 876 l 31 994 l 818 994 l 818 876 z "},"U":{"ha":1003,"x_min":111,"x_max":892,"o":"m 501 -17 q 242 50 328 -17 q 134 208 157 117 q 111 419 111 299 l 111 994 l 243 994 l 243 421 q 309 163 243 225 q 501 102 374 102 q 694 163 628 102 q 760 421 760 225 l 760 994 l 892 994 l 892 419 q 849 153 892 239 q 719 25 806 68 q 501 -17 632 -17 z "},"V":{"ha":926,"x_min":8,"x_max":917,"o":"m 917 994 l 530 0 l 395 0 l 8 994 l 149 994 l 463 142 l 777 994 l 917 994 z "},"W":{"ha":1311,"x_min":17,"x_max":1297,"o":"m 1297 994 l 1022 0 l 896 0 l 657 864 l 418 0 l 292 0 l 17 994 l 155 994 l 354 184 l 578 994 l 736 994 l 960 184 l 1158 994 l 1297 994 z "},"X":{"ha":926,"x_min":7,"x_max":920,"o":"m 920 0 l 758 0 l 464 421 l 168 0 l 7 0 l 389 524 l 45 994 l 205 994 l 463 627 l 721 994 l 882 994 l 536 524 l 920 0 z "},"Y":{"ha":926,"x_min":7,"x_max":920,"o":"m 920 994 l 529 421 l 529 0 l 397 0 l 397 421 l 7 994 l 167 994 l 464 536 l 760 994 l 920 994 z "},"Z":{"ha":848,"x_min":25,"x_max":811,"o":"m 811 0 l 25 0 l 25 123 l 643 876 l 82 876 l 82 994 l 794 994 l 794 871 l 176 118 l 811 118 l 811 0 z "},"[":{"ha":386,"x_min":94,"x_max":364,"o":"m 364 -277 l 94 -277 l 94 994 l 364 994 l 364 893 l 222 893 l 222 -175 l 364 -175 l 364 -277 z "},"\\":{"ha":386,"x_min":0,"x_max":386,"o":"m 386 0 l 288 0 l 0 994 l 98 994 l 386 0 z "},"]":{"ha":386,"x_min":22,"x_max":292,"o":"m 292 -277 l 22 -277 l 22 -175 l 164 -175 l 164 893 l 22 893 l 22 994 l 292 994 l 292 -277 z "},"^":{"ha":652,"x_min":50,"x_max":600,"o":"m 600 576 l 475 576 l 325 871 l 175 576 l 50 576 l 277 994 l 374 994 l 600 576 z "},"_":{"ha":766,"x_min":-8,"x_max":774,"o":"m 774 -218 l -8 -218 l -8 -149 l 774 -149 l 774 -218 z "},"`":{"ha":463,"x_min":58,"x_max":309,"o":"m 309 821 l 208 821 l 58 1011 l 218 1011 l 309 821 z "},"a":{"ha":772,"x_min":53,"x_max":677,"o":"m 550 189 l 550 349 l 463 349 q 184 197 184 349 q 225 113 184 142 q 335 83 266 83 q 457 112 398 83 q 550 189 516 140 m 550 74 q 298 -17 452 -17 q 122 41 191 -17 q 53 191 53 99 q 488 443 53 443 l 550 443 q 542 555 550 520 q 496 613 534 590 q 378 636 459 636 q 201 514 207 636 l 74 514 q 385 736 88 736 q 600 681 523 736 q 677 465 677 626 l 677 0 l 550 0 l 550 74 z "},"b":{"ha":772,"x_min":94,"x_max":724,"o":"m 222 633 q 428 736 308 736 q 646 636 569 736 q 724 366 724 536 q 637 86 724 189 q 419 -17 551 -17 q 222 56 302 -17 l 222 0 l 94 0 l 94 994 l 222 994 l 222 633 m 222 171 q 411 83 304 83 q 543 154 494 83 q 591 366 591 225 q 545 567 591 498 q 416 636 499 636 q 222 513 310 636 l 222 171 z "},"c":{"ha":694,"x_min":49,"x_max":676,"o":"m 386 -17 q 141 82 233 -17 q 49 359 49 180 q 141 637 49 539 q 386 736 233 736 q 583 676 504 736 q 676 504 662 616 l 545 504 q 496 602 542 568 q 386 636 450 636 q 237 567 294 636 q 180 359 180 497 q 237 153 180 222 q 386 83 294 83 q 496 117 450 83 q 545 215 542 151 l 676 215 q 583 43 662 102 q 386 -17 504 -17 z "},"d":{"ha":772,"x_min":49,"x_max":677,"o":"m 550 207 l 550 549 q 361 636 467 636 q 230 565 279 636 q 180 354 180 494 q 227 152 180 221 q 355 83 273 83 q 550 207 463 83 m 550 86 q 345 -17 465 -17 q 126 83 203 -17 q 49 354 49 184 q 135 633 49 530 q 353 736 222 736 q 550 664 469 736 l 550 994 l 677 994 l 677 0 l 550 0 l 550 86 z "},"e":{"ha":772,"x_min":49,"x_max":724,"o":"m 400 -17 q 145 82 241 -17 q 49 359 49 182 q 142 636 49 536 q 386 736 235 736 q 632 637 540 736 q 724 359 724 539 l 724 329 l 182 329 q 251 144 190 204 q 400 83 311 83 q 521 118 467 83 q 578 215 575 152 l 710 215 q 609 43 695 104 q 400 -17 524 -17 m 589 429 q 519 585 573 533 q 386 636 465 636 q 254 585 309 636 q 184 429 199 534 l 589 429 z "},"f":{"ha":386,"x_min":11,"x_max":414,"o":"m 244 619 l 244 0 l 117 0 l 117 619 l 11 619 l 11 720 l 117 720 l 117 783 q 318 1011 117 1011 q 414 1003 380 1011 l 414 892 q 336 899 376 899 q 267 872 290 899 q 244 782 244 846 l 244 720 l 380 720 l 380 619 l 244 619 z "},"g":{"ha":772,"x_min":49,"x_max":677,"o":"m 677 56 q 364 -292 677 -292 q 150 -233 229 -292 q 72 -74 72 -174 l 204 -74 q 363 -192 204 -192 q 501 -143 452 -192 q 550 50 550 -94 l 550 86 q 345 -17 465 -17 q 126 83 203 -17 q 49 354 49 184 q 135 633 49 530 q 353 736 222 736 q 550 664 469 736 l 550 720 l 677 720 l 677 56 m 550 207 l 550 549 q 361 636 467 636 q 230 565 279 636 q 180 354 180 494 q 227 152 180 221 q 355 83 273 83 q 550 207 463 83 z "},"h":{"ha":772,"x_min":94,"x_max":681,"o":"m 222 628 q 437 736 318 736 q 681 471 681 736 l 681 0 l 553 0 l 553 465 q 521 592 553 553 q 418 631 490 631 q 222 515 320 631 l 222 0 l 94 0 l 94 994 l 222 994 l 222 628 z "},"i":{"ha":317,"x_min":94,"x_max":222,"o":"m 222 0 l 94 0 l 94 720 l 222 720 l 222 0 m 222 856 l 94 856 l 94 994 l 222 994 l 222 856 z "},"j":{"ha":317,"x_min":-49,"x_max":222,"o":"m 222 -39 q 174 -242 222 -193 q 37 -290 125 -290 q -49 -283 -15 -290 l -49 -175 q 22 -184 -12 -184 q 79 -155 64 -184 q 94 -36 94 -125 l 94 720 l 222 720 l 222 -39 m 222 856 l 94 856 l 94 994 l 222 994 l 222 856 z "},"k":{"ha":694,"x_min":94,"x_max":689,"o":"m 689 0 l 536 0 l 302 366 l 222 286 l 222 0 l 94 0 l 94 994 l 222 994 l 222 431 l 500 720 l 661 720 l 389 452 l 689 0 z "},"l":{"ha":317,"x_min":94,"x_max":222,"o":"m 222 0 l 94 0 l 94 994 l 222 994 l 222 0 z "},"m":{"ha":1157,"x_min":94,"x_max":1067,"o":"m 1067 0 l 939 0 l 939 465 q 913 593 939 555 q 827 631 887 631 q 644 515 734 631 l 644 0 l 517 0 l 517 465 q 491 593 517 555 q 404 631 465 631 q 222 515 311 631 l 222 0 l 94 0 l 94 720 l 222 720 l 222 628 q 424 736 313 736 q 625 606 582 736 q 747 713 697 690 q 846 736 798 736 q 1067 471 1067 736 l 1067 0 z "},"n":{"ha":772,"x_min":94,"x_max":681,"o":"m 222 628 q 437 736 318 736 q 681 471 681 736 l 681 0 l 553 0 l 553 465 q 521 592 553 553 q 418 631 490 631 q 222 515 320 631 l 222 0 l 94 0 l 94 720 l 222 720 l 222 628 z "},"o":{"ha":772,"x_min":49,"x_max":724,"o":"m 386 736 q 632 637 540 736 q 724 359 724 539 q 632 82 724 180 q 386 -17 540 -17 q 141 82 233 -17 q 49 359 49 180 q 141 637 49 539 q 386 736 233 736 m 386 83 q 534 153 477 83 q 591 359 591 222 q 534 567 591 497 q 386 636 477 636 q 237 567 294 636 q 180 359 180 497 q 237 153 180 222 q 386 83 294 83 z "},"p":{"ha":772,"x_min":94,"x_max":724,"o":"m 222 633 q 428 736 308 736 q 646 636 569 736 q 724 366 724 536 q 637 86 724 189 q 419 -17 551 -17 q 222 56 302 -17 l 222 -277 l 94 -277 l 94 720 l 222 720 l 222 633 m 222 171 q 411 83 304 83 q 543 154 494 83 q 591 366 591 225 q 545 567 591 498 q 416 636 499 636 q 222 513 310 636 l 222 171 z "},"q":{"ha":772,"x_min":49,"x_max":677,"o":"m 677 -277 l 550 -277 l 550 86 q 345 -17 465 -17 q 126 83 203 -17 q 49 354 49 184 q 135 633 49 530 q 353 736 222 736 q 550 664 469 736 l 550 720 l 677 720 l 677 -277 m 550 207 l 550 549 q 361 636 467 636 q 230 565 279 636 q 180 354 180 494 q 227 152 180 221 q 355 83 273 83 q 550 207 463 83 z "},"r":{"ha":463,"x_min":94,"x_max":468,"o":"m 468 603 q 390 611 441 611 q 222 509 292 611 l 222 0 l 94 0 l 94 720 l 222 720 l 222 619 q 410 736 303 736 q 468 730 437 736 l 468 603 z "},"s":{"ha":694,"x_min":43,"x_max":640,"o":"m 351 -17 q 43 215 56 -17 l 171 215 q 350 83 172 83 q 471 116 429 83 q 513 199 513 149 q 472 268 513 248 q 304 319 431 288 q 118 391 177 351 q 60 529 60 430 q 133 677 60 618 q 328 736 205 736 q 616 534 610 736 l 489 534 q 336 636 482 636 q 230 612 272 636 q 187 541 187 587 q 220 480 187 498 q 383 430 252 461 q 577 356 513 398 q 640 211 640 314 q 562 48 640 113 q 351 -17 484 -17 z "},"t":{"ha":386,"x_min":24,"x_max":374,"o":"m 374 -1 q 282 -9 332 -9 q 167 19 203 -9 q 121 91 130 47 q 113 211 113 135 l 113 619 l 24 619 l 24 720 l 113 720 l 113 899 l 240 899 l 240 720 l 357 720 l 357 619 l 240 619 l 240 204 q 259 110 240 130 q 310 90 277 90 q 374 96 343 90 l 374 -1 z "},"u":{"ha":772,"x_min":92,"x_max":677,"o":"m 550 92 q 335 -17 454 -17 q 92 249 92 -17 l 92 720 l 220 720 l 220 254 q 251 127 220 166 q 354 89 282 89 q 550 204 461 89 l 550 720 l 677 720 l 677 0 l 550 0 l 550 92 z "},"v":{"ha":694,"x_min":18,"x_max":676,"o":"m 676 720 l 404 0 l 290 0 l 18 720 l 157 720 l 347 157 l 538 720 l 676 720 z "},"w":{"ha":1003,"x_min":7,"x_max":996,"o":"m 996 720 l 779 0 l 657 0 l 501 529 l 346 0 l 224 0 l 7 720 l 149 720 l 281 171 l 443 720 l 559 720 l 722 171 l 854 720 l 996 720 z "},"x":{"ha":694,"x_min":9,"x_max":685,"o":"m 685 0 l 526 0 l 347 281 l 168 0 l 9 0 l 275 374 l 31 720 l 189 720 l 347 468 l 505 720 l 664 720 l 419 375 l 685 0 z "},"y":{"ha":694,"x_min":18,"x_max":676,"o":"m 135 -174 q 290 0 230 -174 l 18 720 l 157 720 l 347 157 l 538 720 l 676 720 l 404 0 q 337 -159 365 -103 q 266 -253 310 -215 q 157 -292 221 -292 q 74 -282 109 -292 l 74 -164 q 135 -174 104 -174 z "},"z":{"ha":694,"x_min":28,"x_max":665,"o":"m 665 0 l 28 0 l 28 109 l 476 611 l 54 611 l 54 720 l 643 720 l 643 611 l 195 109 l 665 109 l 665 0 z "},"{":{"ha":464,"x_min":39,"x_max":431,"o":"m 431 -292 l 393 -292 q 296 -281 337 -292 q 225 -230 255 -271 q 187 -135 195 -190 q 179 26 179 -80 q 172 182 179 132 q 134 268 164 233 q 39 304 104 303 l 39 415 q 134 451 104 416 q 172 537 164 486 q 179 694 179 588 q 187 854 179 800 q 225 950 195 909 q 296 1001 255 990 q 393 1011 337 1011 l 431 1011 l 431 905 l 410 905 q 323 868 339 905 q 307 667 307 831 q 269 452 307 519 q 151 359 230 384 q 269 268 230 336 q 307 53 307 200 q 323 -149 307 -111 q 410 -186 339 -186 l 431 -186 l 431 -292 z "},"|":{"ha":361,"x_min":127,"x_max":233,"o":"m 233 -292 l 127 -292 l 127 994 l 233 994 l 233 -292 z "},"}":{"ha":464,"x_min":33,"x_max":425,"o":"m 33 1011 l 71 1011 q 168 1001 127 1011 q 239 950 209 990 q 277 854 269 909 q 285 694 285 800 q 292 537 285 588 q 330 451 300 486 q 425 415 360 416 l 425 304 q 330 268 360 303 q 292 182 300 233 q 285 26 285 132 q 277 -135 285 -80 q 239 -230 269 -190 q 168 -281 209 -271 q 71 -292 127 -292 l 33 -292 l 33 -186 l 54 -186 q 141 -149 125 -186 q 157 53 157 -111 q 195 268 157 200 q 313 359 234 336 q 195 452 234 384 q 157 667 157 519 q 141 868 157 831 q 54 905 125 905 l 33 905 l 33 1011 z "},"~":{"ha":811,"x_min":60,"x_max":753,"o":"m 753 857 q 566 774 681 774 q 389 820 492 774 q 235 866 286 866 q 60 773 147 866 l 60 912 q 248 994 132 994 q 424 948 320 994 q 578 903 527 903 q 753 996 665 903 l 753 857 z "},"Ä":{"ha":926,"x_min":-1,"x_max":928,"o":"m 625 407 l 450 868 l 283 407 l 625 407 m 928 0 l 779 0 l 664 302 l 248 302 l 138 0 l -1 0 l 380 994 l 522 994 l 928 0 m 640 1084 l 515 1084 l 515 1223 l 640 1223 l 640 1084 m 389 1084 l 264 1084 l 264 1223 l 389 1223 l 389 1084 z "},"Å":{"ha":926,"x_min":-1,"x_max":928,"o":"m 625 407 l 450 868 l 283 407 l 625 407 m 928 0 l 779 0 l 664 302 l 248 302 l 138 0 l -1 0 l 380 994 l 522 994 l 928 0 m 452 1240 q 539 1203 503 1240 q 574 1116 574 1167 q 539 1029 574 1065 q 452 993 503 993 q 366 1029 401 993 q 330 1116 330 1065 q 366 1203 330 1167 q 452 1240 401 1240 m 452 1042 q 504 1064 482 1042 q 525 1116 525 1086 q 504 1168 525 1146 q 452 1190 482 1190 q 401 1168 422 1190 q 380 1116 380 1146 q 401 1064 380 1086 q 452 1042 422 1042 z "},"Ç":{"ha":1003,"x_min":65,"x_max":932,"o":"m 464 -12 q 170 146 275 9 q 65 497 65 283 q 191 872 65 734 q 528 1011 317 1011 q 804 924 690 1011 q 932 693 918 836 l 796 693 q 714 843 788 787 q 529 899 641 899 q 290 794 378 899 q 201 497 201 690 q 289 200 201 304 q 526 96 376 96 q 715 153 643 96 q 796 315 787 210 l 932 315 q 820 80 920 168 q 558 -16 721 -7 l 558 -52 q 672 -160 672 -66 q 467 -292 672 -292 q 397 -289 435 -292 l 397 -210 q 471 -214 435 -214 q 558 -158 558 -214 q 464 -107 558 -107 l 464 -12 z "},"É":{"ha":926,"x_min":111,"x_max":852,"o":"m 852 0 l 111 0 l 111 994 l 829 994 l 829 876 l 243 876 l 243 572 l 791 572 l 791 454 l 243 454 l 243 118 l 852 118 l 852 0 m 636 1248 l 486 1057 l 386 1057 l 476 1248 l 636 1248 z "},"Ñ":{"ha":1003,"x_min":111,"x_max":892,"o":"m 892 0 l 757 0 l 236 785 l 236 0 l 111 0 l 111 994 l 245 994 l 766 210 l 766 994 l 892 994 l 892 0 m 743 1232 q 704 1118 743 1159 q 606 1076 665 1076 q 509 1105 570 1076 q 427 1133 447 1133 q 378 1075 384 1133 l 289 1075 q 328 1189 289 1147 q 427 1230 368 1230 q 524 1202 462 1230 q 606 1173 585 1173 q 654 1232 648 1173 l 743 1232 z "},"Ö":{"ha":1080,"x_min":65,"x_max":1017,"o":"m 542 1011 q 884 870 751 1011 q 1017 497 1017 729 q 884 124 1017 265 q 542 -17 751 -17 q 199 124 332 -17 q 65 497 65 266 q 199 870 65 729 q 542 1011 332 1011 m 541 96 q 785 201 690 96 q 880 497 880 307 q 785 793 880 687 q 543 899 690 899 q 297 793 393 899 q 201 497 201 687 q 297 202 201 308 q 541 96 393 96 m 729 1084 l 604 1084 l 604 1223 l 729 1223 l 729 1084 m 478 1084 l 353 1084 l 353 1223 l 478 1223 l 478 1084 z "},"Ü":{"ha":1003,"x_min":111,"x_max":892,"o":"m 501 -17 q 242 50 328 -17 q 134 208 157 117 q 111 419 111 299 l 111 994 l 243 994 l 243 421 q 309 163 243 225 q 501 102 374 102 q 694 163 628 102 q 760 421 760 225 l 760 994 l 892 994 l 892 419 q 849 153 892 239 q 719 25 806 68 q 501 -17 632 -17 m 690 1084 l 566 1084 l 566 1223 l 690 1223 l 690 1084 m 439 1084 l 314 1084 l 314 1223 l 439 1223 l 439 1084 z "},"á":{"ha":772,"x_min":53,"x_max":677,"o":"m 550 189 l 550 349 l 463 349 q 184 197 184 349 q 225 113 184 142 q 335 83 266 83 q 457 112 398 83 q 550 189 516 140 m 550 74 q 298 -17 452 -17 q 122 41 191 -17 q 53 191 53 99 q 488 443 53 443 l 550 443 q 542 555 550 520 q 496 613 534 590 q 378 636 459 636 q 201 514 207 636 l 74 514 q 385 736 88 736 q 600 681 523 736 q 677 465 677 626 l 677 0 l 550 0 l 550 74 m 560 1011 l 410 821 l 310 821 l 400 1011 l 560 1011 z "},"à":{"ha":772,"x_min":53,"x_max":677,"o":"m 550 189 l 550 349 l 463 349 q 184 197 184 349 q 225 113 184 142 q 335 83 266 83 q 457 112 398 83 q 550 189 516 140 m 550 74 q 298 -17 452 -17 q 122 41 191 -17 q 53 191 53 99 q 488 443 53 443 l 550 443 q 542 555 550 520 q 496 613 534 590 q 378 636 459 636 q 201 514 207 636 l 74 514 q 385 736 88 736 q 600 681 523 736 q 677 465 677 626 l 677 0 l 550 0 l 550 74 m 464 821 l 363 821 l 214 1011 l 374 1011 l 464 821 z "},"â":{"ha":772,"x_min":53,"x_max":677,"o":"m 550 189 l 550 349 l 463 349 q 184 197 184 349 q 225 113 184 142 q 335 83 266 83 q 457 112 398 83 q 550 189 516 140 m 550 74 q 298 -17 452 -17 q 122 41 191 -17 q 53 191 53 99 q 488 443 53 443 l 550 443 q 542 555 550 520 q 496 613 534 590 q 378 636 459 636 q 201 514 207 636 l 74 514 q 385 736 88 736 q 600 681 523 736 q 677 465 677 626 l 677 0 l 550 0 l 550 74 m 601 821 l 463 821 l 386 936 l 309 821 l 171 821 l 321 1011 l 451 1011 l 601 821 z "},"ä":{"ha":772,"x_min":53,"x_max":677,"o":"m 550 189 l 550 349 l 463 349 q 184 197 184 349 q 225 113 184 142 q 335 83 266 83 q 457 112 398 83 q 550 189 516 140 m 550 74 q 298 -17 452 -17 q 122 41 191 -17 q 53 191 53 99 q 488 443 53 443 l 550 443 q 542 555 550 520 q 496 613 534 590 q 378 636 459 636 q 201 514 207 636 l 74 514 q 385 736 88 736 q 600 681 523 736 q 677 465 677 626 l 677 0 l 550 0 l 550 74 m 575 848 l 450 848 l 450 987 l 575 987 l 575 848 m 324 848 l 199 848 l 199 987 l 324 987 l 324 848 z "},"ã":{"ha":772,"x_min":53,"x_max":677,"o":"m 550 189 l 550 349 l 463 349 q 184 197 184 349 q 225 113 184 142 q 335 83 266 83 q 457 112 398 83 q 550 189 516 140 m 550 74 q 298 -17 452 -17 q 122 41 191 -17 q 53 191 53 99 q 488 443 53 443 l 550 443 q 542 555 550 520 q 496 613 534 590 q 378 636 459 636 q 201 514 207 636 l 74 514 q 385 736 88 736 q 600 681 523 736 q 677 465 677 626 l 677 0 l 550 0 l 550 74 m 614 996 q 575 882 614 923 q 477 840 536 840 q 380 869 441 840 q 298 897 318 897 q 249 839 255 897 l 160 839 q 199 953 160 911 q 298 994 239 994 q 395 966 333 994 q 477 937 456 937 q 526 996 519 937 l 614 996 z "},"å":{"ha":772,"x_min":53,"x_max":677,"o":"m 550 189 l 550 349 l 463 349 q 184 197 184 349 q 225 113 184 142 q 335 83 266 83 q 457 112 398 83 q 550 189 516 140 m 550 74 q 298 -17 452 -17 q 122 41 191 -17 q 53 191 53 99 q 488 443 53 443 l 550 443 q 542 555 550 520 q 496 613 534 590 q 378 636 459 636 q 201 514 207 636 l 74 514 q 385 736 88 736 q 600 681 523 736 q 677 465 677 626 l 677 0 l 550 0 l 550 74 m 387 1044 q 474 1008 438 1044 q 509 921 509 972 q 474 834 509 870 q 387 798 438 798 q 301 834 336 798 q 265 921 265 870 q 301 1008 265 972 q 387 1044 336 1044 m 387 847 q 438 869 417 847 q 460 921 460 890 q 438 972 460 951 q 387 994 417 994 q 336 972 357 994 q 315 921 315 951 q 336 869 315 890 q 387 847 357 847 z "},"ç":{"ha":694,"x_min":49,"x_max":676,"o":"m 329 -12 q 122 104 195 7 q 49 359 49 201 q 141 637 49 539 q 386 736 233 736 q 583 676 504 736 q 676 504 662 616 l 545 504 q 496 602 542 568 q 386 636 450 636 q 237 567 294 636 q 180 359 180 497 q 237 153 180 222 q 386 83 294 83 q 496 117 450 83 q 545 215 542 151 l 676 215 q 424 -16 648 8 l 424 -52 q 538 -160 538 -66 q 332 -292 538 -292 q 262 -289 301 -292 l 262 -210 q 336 -214 300 -214 q 424 -158 424 -214 q 329 -107 424 -107 l 329 -12 z "},"é":{"ha":772,"x_min":49,"x_max":724,"o":"m 400 -17 q 145 82 241 -17 q 49 359 49 182 q 142 636 49 536 q 386 736 235 736 q 632 637 540 736 q 724 359 724 539 l 724 329 l 182 329 q 251 144 190 204 q 400 83 311 83 q 521 118 467 83 q 578 215 575 152 l 710 215 q 609 43 695 104 q 400 -17 524 -17 m 589 429 q 519 585 573 533 q 386 636 465 636 q 254 585 309 636 q 184 429 199 534 l 589 429 m 560 1011 l 410 821 l 310 821 l 400 1011 l 560 1011 z "},"è":{"ha":772,"x_min":49,"x_max":724,"o":"m 400 -17 q 145 82 241 -17 q 49 359 49 182 q 142 636 49 536 q 386 736 235 736 q 632 637 540 736 q 724 359 724 539 l 724 329 l 182 329 q 251 144 190 204 q 400 83 311 83 q 521 118 467 83 q 578 215 575 152 l 710 215 q 609 43 695 104 q 400 -17 524 -17 m 589 429 q 519 585 573 533 q 386 636 465 636 q 254 585 309 636 q 184 429 199 534 l 589 429 m 464 821 l 363 821 l 214 1011 l 374 1011 l 464 821 z "},"ê":{"ha":772,"x_min":49,"x_max":724,"o":"m 400 -17 q 145 82 241 -17 q 49 359 49 182 q 142 636 49 536 q 386 736 235 736 q 632 637 540 736 q 724 359 724 539 l 724 329 l 182 329 q 251 144 190 204 q 400 83 311 83 q 521 118 467 83 q 578 215 575 152 l 710 215 q 609 43 695 104 q 400 -17 524 -17 m 589 429 q 519 585 573 533 q 386 636 465 636 q 254 585 309 636 q 184 429 199 534 l 589 429 m 601 821 l 463 821 l 386 936 l 309 821 l 171 821 l 321 1011 l 451 1011 l 601 821 z "},"ë":{"ha":772,"x_min":49,"x_max":724,"o":"m 400 -17 q 145 82 241 -17 q 49 359 49 182 q 142 636 49 536 q 386 736 235 736 q 632 637 540 736 q 724 359 724 539 l 724 329 l 182 329 q 251 144 190 204 q 400 83 311 83 q 521 118 467 83 q 578 215 575 152 l 710 215 q 609 43 695 104 q 400 -17 524 -17 m 589 429 q 519 585 573 533 q 386 636 465 636 q 254 585 309 636 q 184 429 199 534 l 589 429 m 575 848 l 450 848 l 450 987 l 575 987 l 575 848 m 324 848 l 199 848 l 199 987 l 324 987 l 324 848 z "},"í":{"ha":317,"x_min":82,"x_max":332,"o":"m 222 0 l 94 0 l 94 720 l 222 720 l 222 0 m 332 1011 l 182 821 l 82 821 l 172 1011 l 332 1011 z "},"ì":{"ha":317,"x_min":-14,"x_max":237,"o":"m 222 0 l 94 0 l 94 720 l 222 720 l 222 0 m 237 821 l 136 821 l -14 1011 l 146 1011 l 237 821 z "},"î":{"ha":317,"x_min":-57,"x_max":373,"o":"m 222 0 l 94 0 l 94 720 l 222 720 l 222 0 m 373 821 l 235 821 l 158 936 l 81 821 l -57 821 l 93 1011 l 223 1011 l 373 821 z "},"ï":{"ha":317,"x_min":-29,"x_max":347,"o":"m 222 0 l 94 0 l 94 720 l 222 720 l 222 0 m 347 848 l 222 848 l 222 987 l 347 987 l 347 848 m 96 848 l -29 848 l -29 987 l 96 987 l 96 848 z "},"ñ":{"ha":772,"x_min":94,"x_max":681,"o":"m 222 628 q 437 736 318 736 q 681 471 681 736 l 681 0 l 553 0 l 553 465 q 521 592 553 553 q 418 631 490 631 q 222 515 320 631 l 222 0 l 94 0 l 94 720 l 222 720 l 222 628 m 614 996 q 575 882 614 923 q 477 840 536 840 q 380 869 441 840 q 298 897 318 897 q 249 839 255 897 l 160 839 q 199 953 160 911 q 298 994 239 994 q 395 966 333 994 q 477 937 456 937 q 526 996 519 937 l 614 996 z "},"ó":{"ha":772,"x_min":49,"x_max":724,"o":"m 386 736 q 632 637 540 736 q 724 359 724 539 q 632 82 724 180 q 386 -17 540 -17 q 141 82 233 -17 q 49 359 49 180 q 141 637 49 539 q 386 736 233 736 m 386 83 q 534 153 477 83 q 591 359 591 222 q 534 567 591 497 q 386 636 477 636 q 237 567 294 636 q 180 359 180 497 q 237 153 180 222 q 386 83 294 83 m 560 1011 l 410 821 l 310 821 l 400 1011 l 560 1011 z "},"ò":{"ha":772,"x_min":49,"x_max":724,"o":"m 386 736 q 632 637 540 736 q 724 359 724 539 q 632 82 724 180 q 386 -17 540 -17 q 141 82 233 -17 q 49 359 49 180 q 141 637 49 539 q 386 736 233 736 m 386 83 q 534 153 477 83 q 591 359 591 222 q 534 567 591 497 q 386 636 477 636 q 237 567 294 636 q 180 359 180 497 q 237 153 180 222 q 386 83 294 83 m 464 821 l 363 821 l 214 1011 l 374 1011 l 464 821 z "},"ô":{"ha":772,"x_min":49,"x_max":724,"o":"m 386 736 q 632 637 540 736 q 724 359 724 539 q 632 82 724 180 q 386 -17 540 -17 q 141 82 233 -17 q 49 359 49 180 q 141 637 49 539 q 386 736 233 736 m 386 83 q 534 153 477 83 q 591 359 591 222 q 534 567 591 497 q 386 636 477 636 q 237 567 294 636 q 180 359 180 497 q 237 153 180 222 q 386 83 294 83 m 601 821 l 463 821 l 386 936 l 309 821 l 171 821 l 321 1011 l 451 1011 l 601 821 z "},"ö":{"ha":772,"x_min":49,"x_max":724,"o":"m 386 736 q 632 637 540 736 q 724 359 724 539 q 632 82 724 180 q 386 -17 540 -17 q 141 82 233 -17 q 49 359 49 180 q 141 637 49 539 q 386 736 233 736 m 386 83 q 534 153 477 83 q 591 359 591 222 q 534 567 591 497 q 386 636 477 636 q 237 567 294 636 q 180 359 180 497 q 237 153 180 222 q 386 83 294 83 m 575 848 l 450 848 l 450 987 l 575 987 l 575 848 m 324 848 l 199 848 l 199 987 l 324 987 l 324 848 z "},"õ":{"ha":772,"x_min":49,"x_max":724,"o":"m 386 736 q 632 637 540 736 q 724 359 724 539 q 632 82 724 180 q 386 -17 540 -17 q 141 82 233 -17 q 49 359 49 180 q 141 637 49 539 q 386 736 233 736 m 386 83 q 534 153 477 83 q 591 359 591 222 q 534 567 591 497 q 386 636 477 636 q 237 567 294 636 q 180 359 180 497 q 237 153 180 222 q 386 83 294 83 m 614 996 q 575 882 614 923 q 477 840 536 840 q 380 869 441 840 q 298 897 318 897 q 249 839 255 897 l 160 839 q 199 953 160 911 q 298 994 239 994 q 395 966 333 994 q 477 937 456 937 q 526 996 519 937 l 614 996 z "},"ú":{"ha":772,"x_min":92,"x_max":677,"o":"m 550 92 q 335 -17 454 -17 q 92 249 92 -17 l 92 720 l 220 720 l 220 254 q 251 127 220 166 q 354 89 282 89 q 550 204 461 89 l 550 720 l 677 720 l 677 0 l 550 0 l 550 92 m 560 1011 l 410 821 l 310 821 l 400 1011 l 560 1011 z "},"ù":{"ha":772,"x_min":92,"x_max":677,"o":"m 550 92 q 335 -17 454 -17 q 92 249 92 -17 l 92 720 l 220 720 l 220 254 q 251 127 220 166 q 354 89 282 89 q 550 204 461 89 l 550 720 l 677 720 l 677 0 l 550 0 l 550 92 m 464 821 l 363 821 l 214 1011 l 374 1011 l 464 821 z "},"û":{"ha":772,"x_min":92,"x_max":677,"o":"m 550 92 q 335 -17 454 -17 q 92 249 92 -17 l 92 720 l 220 720 l 220 254 q 251 127 220 166 q 354 89 282 89 q 550 204 461 89 l 550 720 l 677 720 l 677 0 l 550 0 l 550 92 m 601 821 l 463 821 l 386 936 l 309 821 l 171 821 l 321 1011 l 451 1011 l 601 821 z "},"ü":{"ha":772,"x_min":92,"x_max":677,"o":"m 550 92 q 335 -17 454 -17 q 92 249 92 -17 l 92 720 l 220 720 l 220 254 q 251 127 220 166 q 354 89 282 89 q 550 204 461 89 l 550 720 l 677 720 l 677 0 l 550 0 l 550 92 m 575 848 l 450 848 l 450 987 l 575 987 l 575 848 m 324 848 l 199 848 l 199 987 l 324 987 l 324 848 z "},"†":{"ha":772,"x_min":54,"x_max":718,"o":"m 718 587 l 450 587 l 450 -292 l 322 -292 l 322 587 l 54 587 l 54 696 l 322 696 l 322 994 l 450 994 l 450 696 l 718 696 l 718 587 z "},"°":{"ha":555,"x_min":90,"x_max":465,"o":"m 278 1007 q 410 952 355 1007 q 465 819 465 897 q 410 686 465 741 q 278 631 355 631 q 145 686 201 631 q 90 819 90 741 q 145 952 90 897 q 278 1007 200 1007 m 278 704 q 358 738 325 704 q 392 819 392 772 q 358 900 392 867 q 278 933 325 933 q 197 900 231 933 q 164 819 164 867 q 198 738 164 772 q 278 704 231 704 z "},"¢":{"ha":772,"x_min":77,"x_max":704,"o":"m 704 215 q 611 43 690 102 q 414 -17 532 -17 q 339 -9 378 -17 l 294 -170 l 224 -150 l 268 11 q 77 359 77 97 q 168 637 77 539 q 414 736 260 736 q 469 732 442 736 l 513 889 l 583 869 l 541 715 q 704 504 686 659 l 572 504 q 511 611 570 575 l 367 89 q 414 83 389 83 q 524 117 478 83 q 572 215 570 151 l 704 215 m 441 635 q 414 636 434 636 q 265 567 322 636 q 208 359 208 497 q 298 121 208 186 l 441 635 z "},"£":{"ha":772,"x_min":33,"x_max":717,"o":"m 717 14 q 572 -17 650 -17 q 422 14 522 -17 q 273 45 323 45 q 33 -17 164 45 l 33 106 q 140 201 103 142 q 176 364 176 260 q 165 449 176 407 l 33 449 l 33 549 l 138 549 q 103 728 103 665 q 189 936 103 861 q 411 1011 275 1011 q 621 945 539 1011 q 711 754 703 878 l 579 754 q 408 911 566 911 q 282 860 330 911 q 235 739 235 809 q 272 549 235 663 l 485 549 l 485 449 l 294 449 q 306 389 306 418 q 278 244 306 301 q 183 135 250 187 q 282 150 231 150 q 434 128 340 150 q 567 106 528 106 q 717 143 644 106 l 717 14 z "},"§":{"ha":772,"x_min":58,"x_max":713,"o":"m 522 777 q 378 911 510 911 q 283 881 317 911 q 249 803 249 850 q 291 718 249 758 q 484 588 333 679 q 674 439 635 497 q 713 315 713 380 q 558 119 713 193 q 665 -69 665 52 q 590 -228 665 -165 q 396 -292 515 -292 q 194 -229 273 -292 q 100 -47 115 -167 l 232 -47 q 396 -189 246 -189 q 501 -154 465 -189 q 538 -71 538 -119 q 487 18 538 -23 q 283 153 437 60 q 94 307 130 247 q 58 436 58 366 q 211 629 58 559 q 121 798 121 707 q 188 946 121 880 q 371 1011 255 1011 q 569 949 496 1011 q 654 777 642 886 l 522 777 m 498 167 q 590 292 590 213 q 553 380 590 338 q 418 482 516 422 q 271 582 320 541 q 180 450 180 538 q 214 361 180 401 q 352 258 247 321 q 498 167 458 195 z "},"•":{"ha":486,"x_min":71,"x_max":415,"o":"m 243 659 q 364 608 313 659 q 415 486 415 557 q 364 365 415 416 q 243 314 313 314 q 121 365 172 314 q 71 486 71 416 q 121 608 71 557 q 243 659 172 659 z "},"¶":{"ha":746,"x_min":-1,"x_max":749,"o":"m 749 895 l 652 895 l 652 -277 l 538 -277 l 538 895 l 386 895 l 386 -277 l 272 -277 l 272 432 q 70 518 140 441 q -1 708 -1 595 q 84 918 -1 842 q 319 994 170 994 l 749 994 l 749 895 z "},"ß":{"ha":848,"x_min":94,"x_max":802,"o":"m 94 0 l 94 677 q 389 1011 94 1011 q 574 955 505 1011 q 643 817 643 899 q 572 625 643 748 q 541 541 541 569 q 563 487 541 509 q 666 412 586 465 q 774 314 747 359 q 802 211 802 268 q 732 49 802 115 q 554 -17 663 -17 q 385 34 452 -17 q 313 168 317 85 l 435 168 q 551 83 446 83 q 640 117 606 83 q 673 201 673 150 q 651 272 673 247 q 557 342 629 296 q 449 427 486 387 q 412 521 412 467 q 463 657 412 568 q 522 804 522 764 q 484 881 522 850 q 386 911 446 911 q 266 861 309 911 q 222 672 222 811 l 222 0 l 94 0 z "},"®":{"ha":1023,"x_min":0,"x_max":1023,"o":"m 513 1011 q 873 861 722 1011 q 1023 500 1023 711 q 873 138 1023 289 q 513 -12 724 -12 q 151 138 301 -12 q 0 500 0 288 q 151 861 0 711 q 513 1011 302 1011 m 511 72 q 813 198 687 72 q 939 500 939 323 q 813 801 939 676 q 511 926 688 926 q 210 801 335 926 q 85 500 85 676 q 210 198 85 323 q 511 72 335 72 m 742 216 l 640 216 l 597 336 q 452 444 559 444 l 382 444 l 382 216 l 293 216 l 293 766 l 500 766 q 718 615 718 766 q 575 458 718 469 q 684 354 648 436 l 742 216 m 382 521 l 493 521 q 624 607 624 521 q 489 692 624 692 l 382 692 l 382 521 z "},"©":{"ha":1023,"x_min":0,"x_max":1023,"o":"m 513 1011 q 873 861 722 1011 q 1023 500 1023 711 q 873 138 1023 289 q 513 -12 724 -12 q 151 138 301 -12 q 0 500 0 288 q 151 861 0 711 q 513 1011 302 1011 m 511 72 q 813 198 687 72 q 939 500 939 323 q 813 801 939 676 q 511 926 688 926 q 210 801 335 926 q 85 500 85 676 q 210 198 85 323 q 511 72 335 72 m 755 392 q 514 205 709 205 q 318 285 393 205 q 244 498 244 364 q 318 709 244 631 q 518 786 391 786 q 672 741 609 786 q 750 615 736 696 l 656 615 q 515 711 635 711 q 385 653 431 711 q 338 496 338 595 q 386 343 338 401 q 513 286 435 286 q 661 392 637 286 l 755 392 z "},"™":{"ha":949,"x_min":34,"x_max":879,"o":"m 879 509 l 795 509 l 795 905 l 704 509 l 620 509 l 529 905 l 529 509 l 445 509 l 445 994 l 578 994 l 662 621 l 746 994 l 879 994 l 879 509 m 389 913 l 257 913 l 257 509 l 165 509 l 165 913 l 34 913 l 34 994 l 389 994 l 389 913 z "},"´":{"ha":463,"x_min":154,"x_max":404,"o":"m 404 1011 l 254 821 l 154 821 l 244 1011 l 404 1011 z "},"¨":{"ha":463,"x_min":43,"x_max":419,"o":"m 419 848 l 294 848 l 294 987 l 419 987 l 419 848 m 168 848 l 43 848 l 43 987 l 168 987 l 168 848 z "},"≠":{"ha":811,"x_min":77,"x_max":734,"o":"m 734 282 l 359 282 l 293 117 l 225 142 l 282 282 l 77 282 l 77 396 l 328 396 l 404 585 l 77 585 l 77 699 l 450 699 l 518 864 l 586 839 l 529 699 l 734 699 l 734 585 l 484 585 l 406 396 l 734 396 l 734 282 z "},"Æ":{"ha":1389,"x_min":0,"x_max":1312,"o":"m 1312 0 l 663 0 l 663 288 l 311 288 l 153 0 l 0 0 l 572 994 l 1289 994 l 1289 876 l 794 876 l 794 572 l 1251 572 l 1251 454 l 794 454 l 794 118 l 1312 118 l 1312 0 m 663 404 l 663 876 l 633 876 l 375 404 l 663 404 z "},"Ø":{"ha":1080,"x_min":54,"x_max":1028,"o":"m 1028 975 l 908 842 q 1017 497 1017 703 q 884 124 1017 265 q 542 -17 751 -17 q 236 89 364 -17 l 122 -37 l 54 20 l 174 153 q 65 497 65 293 q 199 870 65 729 q 542 1011 332 1011 q 846 905 720 1011 l 960 1032 l 1028 975 m 764 814 q 543 899 674 899 q 297 793 393 899 q 201 497 201 687 q 261 250 201 350 l 764 814 m 318 180 q 541 96 408 96 q 785 201 690 96 q 880 497 880 307 q 821 745 880 645 l 318 180 z "},"∞":{"ha":811,"x_min":62,"x_max":749,"o":"m 385 570 q 566 699 465 699 q 702 645 654 699 q 749 490 749 591 q 702 336 749 390 q 566 282 654 282 q 385 411 464 282 q 235 314 321 314 q 109 362 155 314 q 62 490 62 410 q 109 619 62 571 q 235 667 155 667 q 385 570 321 667 m 433 490 q 566 366 502 366 q 665 490 665 366 q 566 615 665 615 q 433 490 502 615 m 339 490 q 235 583 285 583 q 146 490 146 583 q 235 397 146 397 q 339 490 285 397 z "},"±":{"ha":811,"x_min":77,"x_max":734,"o":"m 734 463 l 463 463 l 463 191 l 349 191 l 349 463 l 77 463 l 77 576 l 349 576 l 349 848 l 463 848 l 463 576 l 734 576 l 734 463 m 734 0 l 77 0 l 77 114 l 734 114 l 734 0 z "},"≤":{"ha":811,"x_min":77,"x_max":734,"o":"m 734 154 l 77 433 l 77 547 l 734 827 l 734 705 l 212 490 l 734 275 l 734 154 m 734 0 l 77 0 l 77 114 l 734 114 l 734 0 z "},"≥":{"ha":811,"x_min":77,"x_max":734,"o":"m 734 433 l 77 154 l 77 275 l 599 490 l 77 705 l 77 827 l 734 547 l 734 433 m 734 0 l 77 0 l 77 114 l 734 114 l 734 0 z "},"¥":{"ha":772,"x_min":1,"x_max":772,"o":"m 772 994 l 513 541 l 728 541 l 728 446 l 449 446 l 449 323 l 728 323 l 728 229 l 449 229 l 449 0 l 326 0 l 326 229 l 45 229 l 45 323 l 326 323 l 326 446 l 45 446 l 45 541 l 261 541 l 1 994 l 146 994 l 386 554 l 628 994 l 772 994 z "},"µ":{"ha":772,"x_min":94,"x_max":757,"o":"m 757 -8 l 690 -8 q 550 92 573 -8 q 338 -17 455 -17 q 221 16 275 -17 l 222 -277 l 94 -277 l 94 720 l 222 720 l 222 231 q 364 89 222 89 q 458 113 418 89 q 550 204 498 138 l 550 720 l 677 720 l 677 161 q 695 99 677 117 q 757 81 713 81 l 757 -8 z "},"∂":{"ha":686,"x_min":35,"x_max":657,"o":"m 235 971 q 407 1011 321 1011 q 593 913 530 1011 q 657 628 657 814 q 539 154 657 325 q 258 -17 421 -17 q 99 42 163 -17 q 35 204 35 100 q 162 502 35 387 q 529 627 290 616 q 495 839 529 766 q 399 911 460 911 q 235 857 332 911 l 235 971 m 526 541 q 261 435 355 528 q 167 201 167 342 q 275 83 167 83 q 425 206 348 83 q 526 541 502 328 z "},"∑":{"ha":990,"x_min":83,"x_max":940,"o":"m 940 -292 l 83 -292 l 83 -163 l 503 363 l 94 876 l 94 994 l 933 994 l 933 884 l 262 884 l 675 368 l 235 -180 l 940 -180 l 940 -292 z "},"∏":{"ha":1143,"x_min":111,"x_max":1032,"o":"m 1032 -292 l 900 -292 l 900 876 l 243 876 l 243 -292 l 111 -292 l 111 994 l 1032 994 l 1032 -292 z "},"∫":{"ha":380,"x_min":-53,"x_max":414,"o":"m 414 892 q 336 899 376 899 q 267 872 290 899 q 244 782 244 846 l 244 -64 q 43 -292 244 -292 q -53 -283 -18 -292 l -53 -172 q 25 -179 -15 -179 q 94 -153 72 -179 q 117 -62 117 -127 l 117 783 q 318 1011 117 1011 q 414 1003 380 1011 l 414 892 z "},"ª":{"ha":514,"x_min":29,"x_max":463,"o":"m 366 659 l 366 742 l 304 742 q 131 650 131 742 q 220 587 131 587 q 299 608 256 587 q 366 659 343 628 m 366 518 l 366 567 q 195 507 300 507 q 76 546 122 507 q 29 646 29 585 q 321 815 29 815 l 366 815 q 335 912 366 893 q 253 930 304 930 q 143 863 147 930 l 45 863 q 258 1011 57 1011 q 410 970 358 1011 q 463 829 463 930 l 463 518 l 366 518 m 454 351 l 54 351 l 54 431 l 454 431 l 454 351 z "},"º":{"ha":507,"x_min":31,"x_max":478,"o":"m 254 1011 q 416 943 354 1011 q 478 757 478 875 q 416 569 478 637 q 254 501 354 501 q 92 569 154 501 q 31 757 31 637 q 93 943 31 875 q 254 1011 155 1011 m 254 591 q 376 757 376 591 q 254 921 376 921 q 132 757 132 921 q 254 591 132 591 m 454 351 l 54 351 l 54 431 l 454 431 l 454 351 z "},"Ω":{"ha":1067,"x_min":77,"x_max":990,"o":"m 990 0 l 600 0 l 600 119 q 782 280 721 180 q 843 545 843 381 q 760 801 843 703 q 533 899 676 899 q 307 801 391 899 q 224 545 224 703 q 284 280 224 381 q 467 119 345 180 l 467 0 l 77 0 l 77 114 l 326 109 q 149 280 206 180 q 92 545 92 379 q 213 883 92 755 q 533 1011 335 1011 q 853 883 732 1011 q 975 545 975 755 q 918 280 975 379 q 741 109 861 180 l 990 114 l 990 0 z "},"æ":{"ha":1235,"x_min":53,"x_max":1186,"o":"m 536 297 l 536 349 l 449 349 q 184 197 184 349 q 328 83 184 83 q 479 138 422 83 q 536 297 536 192 m 591 122 q 488 22 554 61 q 292 -17 422 -17 q 119 41 185 -17 q 53 191 53 98 q 473 443 53 443 l 536 443 q 527 547 536 508 q 481 611 517 587 q 371 636 446 636 q 201 514 211 636 l 74 514 q 378 736 90 736 q 625 644 563 736 q 856 736 713 736 q 1097 638 1008 736 q 1186 359 1186 540 l 1186 329 l 664 329 q 727 144 671 205 q 869 83 783 83 q 986 118 935 83 q 1040 215 1038 152 l 1173 215 q 1075 43 1158 103 q 869 -17 991 -17 q 591 122 683 -17 m 1051 429 q 856 636 1020 636 q 667 429 695 636 l 1051 429 z "},"ø":{"ha":772,"x_min":49,"x_max":724,"o":"m 642 627 q 724 359 724 526 q 632 82 724 180 q 386 -17 540 -17 q 191 39 273 -17 l 122 -49 l 58 0 q 129 93 130 93 q 49 359 49 194 q 141 637 49 539 q 386 736 233 736 q 582 681 499 736 l 650 770 l 714 721 l 642 627 m 513 590 q 386 636 459 636 q 237 567 294 636 q 180 359 180 497 q 210 197 180 262 l 513 590 m 258 129 q 386 83 311 83 q 534 153 477 83 q 591 359 591 222 q 561 522 591 460 q 258 129 260 129 z "},"¿":{"ha":772,"x_min":66,"x_max":708,"o":"m 708 -4 q 609 -214 696 -136 q 386 -292 522 -292 q 155 -215 243 -292 q 66 -21 66 -139 q 97 102 66 45 q 211 229 127 159 q 313 339 294 298 q 332 475 332 380 l 452 475 q 422 291 452 349 q 315 165 393 232 q 218 63 237 99 q 199 -12 199 28 q 250 -141 199 -90 q 385 -192 302 -192 q 576 -4 548 -192 l 708 -4 m 457 581 l 318 581 l 318 720 l 457 720 l 457 581 z "},"¡":{"ha":386,"x_min":123,"x_max":262,"o":"m 262 581 l 123 581 l 123 720 l 262 720 l 262 581 m 262 -275 l 123 -275 l 123 -60 l 150 472 l 236 472 l 262 -60 l 262 -275 z "},"¬":{"ha":811,"x_min":77,"x_max":734,"o":"m 734 282 l 621 282 l 621 585 l 77 585 l 77 699 l 734 699 l 734 282 z "},"√":{"ha":762,"x_min":14,"x_max":715,"o":"m 715 1267 l 507 -53 l 170 644 l 36 579 l 14 625 l 216 725 l 490 165 l 667 1274 l 715 1267 z "},"ƒ":{"ha":772,"x_min":45,"x_max":714,"o":"m 714 869 q 611 885 661 885 q 559 868 579 885 q 525 777 539 850 l 511 705 l 650 705 l 633 611 l 494 611 l 366 -115 q 306 -250 349 -209 q 183 -292 263 -292 q 45 -278 115 -292 l 45 -170 q 158 -184 117 -184 q 220 -160 205 -184 q 244 -81 235 -135 l 366 611 l 229 611 l 244 705 l 382 705 l 397 798 q 466 959 417 919 q 590 999 515 999 q 714 989 659 999 l 714 869 z "},"≈":{"ha":762,"x_min":35,"x_max":728,"o":"m 728 583 q 541 501 656 501 q 364 547 467 501 q 210 593 260 593 q 35 500 122 593 l 35 639 q 222 721 107 721 q 398 675 295 721 q 553 629 502 629 q 728 722 640 629 l 728 583 m 728 339 q 541 257 656 257 q 364 303 467 257 q 210 349 260 349 q 35 256 122 349 l 35 395 q 222 476 107 476 q 398 430 295 476 q 553 385 502 385 q 728 478 640 385 l 728 339 z "},"∆":{"ha":926,"x_min":-1,"x_max":928,"o":"m 928 0 l -1 0 l 380 994 l 522 994 l 928 0 m 741 104 l 450 868 l 175 104 l 741 104 z "},"«":{"ha":772,"x_min":96,"x_max":676,"o":"m 676 49 l 576 49 l 361 358 l 576 668 l 676 668 l 500 358 l 676 49 m 411 49 l 311 49 l 96 358 l 311 668 l 411 668 l 235 358 l 411 49 z "},"»":{"ha":772,"x_min":96,"x_max":676,"o":"m 676 358 l 461 49 l 361 49 l 538 358 l 361 668 l 461 668 l 676 358 m 411 358 l 196 49 l 96 49 l 272 358 l 96 668 l 196 668 l 411 358 z "},"…":{"ha":785,"x_min":62,"x_max":724,"o":"m 724 0 l 585 0 l 585 139 l 724 139 l 724 0 m 462 0 l 323 0 l 323 139 l 462 139 l 462 0 m 200 0 l 62 0 l 62 139 l 200 139 l 200 0 z "},"À":{"ha":926,"x_min":-1,"x_max":928,"o":"m 625 407 l 450 868 l 283 407 l 625 407 m 928 0 l 779 0 l 664 302 l 248 302 l 138 0 l -1 0 l 380 994 l 522 994 l 928 0 m 530 1057 l 429 1057 l 279 1248 l 439 1248 l 530 1057 z "},"Ã":{"ha":926,"x_min":-1,"x_max":928,"o":"m 625 407 l 450 868 l 283 407 l 625 407 m 928 0 l 779 0 l 664 302 l 248 302 l 138 0 l -1 0 l 380 994 l 522 994 l 928 0 m 680 1232 q 640 1118 680 1159 q 542 1076 601 1076 q 445 1105 507 1076 q 363 1133 383 1133 q 314 1075 320 1133 l 225 1075 q 264 1189 225 1147 q 363 1230 304 1230 q 460 1202 398 1230 q 542 1173 522 1173 q 591 1232 585 1173 l 680 1232 z "},"Õ":{"ha":1080,"x_min":65,"x_max":1017,"o":"m 542 1011 q 884 870 751 1011 q 1017 497 1017 729 q 884 124 1017 265 q 542 -17 751 -17 q 199 124 332 -17 q 65 497 65 266 q 199 870 65 729 q 542 1011 332 1011 m 541 96 q 785 201 690 96 q 880 497 880 307 q 785 793 880 687 q 543 899 690 899 q 297 793 393 899 q 201 497 201 687 q 297 202 201 308 q 541 96 393 96 m 768 1232 q 729 1118 768 1159 q 631 1076 690 1076 q 534 1105 595 1076 q 452 1133 472 1133 q 403 1075 409 1133 l 314 1075 q 353 1189 314 1147 q 452 1230 393 1230 q 549 1202 487 1230 q 631 1173 610 1173 q 680 1232 673 1173 l 768 1232 z "},"Œ":{"ha":1389,"x_min":65,"x_max":1315,"o":"m 1315 0 l 758 0 l 758 131 q 637 23 715 63 q 481 -17 560 -17 q 176 120 287 -17 q 65 497 65 257 q 176 874 65 737 q 481 1011 287 1011 q 637 971 560 1011 q 758 864 715 931 l 758 994 l 1292 994 l 1292 876 l 890 876 l 890 572 l 1254 572 l 1254 454 l 890 454 l 890 118 l 1315 118 l 1315 0 m 479 96 q 758 497 758 96 q 482 899 758 899 q 276 795 351 899 q 201 497 201 692 q 275 199 201 303 q 479 96 349 96 z "},"œ":{"ha":1311,"x_min":49,"x_max":1263,"o":"m 1263 329 l 721 329 q 789 144 728 204 q 939 83 850 83 q 1060 118 1006 83 q 1117 215 1114 152 l 1249 215 q 1148 43 1234 104 q 939 -17 1062 -17 q 657 114 755 -17 q 386 -17 566 -17 q 141 82 233 -17 q 49 359 49 180 q 141 637 49 539 q 386 736 233 736 q 657 607 565 736 q 925 736 751 736 q 1171 637 1079 736 q 1263 359 1263 539 l 1263 329 m 1128 429 q 1057 585 1112 533 q 925 636 1003 636 q 793 585 848 636 q 724 429 739 534 l 1128 429 m 386 83 q 534 153 477 83 q 591 359 591 222 q 534 567 591 497 q 386 636 477 636 q 237 567 294 636 q 180 359 180 497 q 237 153 180 222 q 386 83 294 83 z "},"–":{"ha":407,"x_min":-8,"x_max":415,"o":"m 415 310 l -8 310 l -8 410 l 415 410 l 415 310 z "},"—":{"ha":814,"x_min":-8,"x_max":822,"o":"m 822 310 l -8 310 l -8 410 l 822 410 l 822 310 z "},"“":{"ha":463,"x_min":57,"x_max":406,"o":"m 406 676 l 267 676 l 267 815 q 302 958 267 904 q 406 1011 337 1011 l 406 946 q 338 815 338 946 l 406 815 l 406 676 m 196 676 l 57 676 l 57 815 q 92 958 57 904 q 196 1011 127 1011 l 196 946 q 127 815 127 946 l 196 815 l 196 676 z "},"”":{"ha":463,"x_min":57,"x_max":406,"o":"m 406 856 q 370 713 406 766 q 267 660 335 660 l 267 725 q 335 856 335 725 l 267 856 l 267 994 l 406 994 l 406 856 m 196 856 q 161 713 196 766 q 57 660 125 660 l 57 725 q 125 856 125 725 l 57 856 l 57 994 l 196 994 l 196 856 z "},"‘":{"ha":309,"x_min":85,"x_max":224,"o":"m 224 676 l 85 676 l 85 815 q 120 958 85 904 q 224 1011 155 1011 l 224 946 q 155 815 155 946 l 224 815 l 224 676 z "},"’":{"ha":309,"x_min":85,"x_max":224,"o":"m 224 856 q 189 713 224 766 q 85 660 153 660 l 85 725 q 153 856 153 725 l 85 856 l 85 994 l 224 994 l 224 856 z "},"÷":{"ha":811,"x_min":77,"x_max":734,"o":"m 475 639 l 336 639 l 336 778 l 475 778 l 475 639 m 734 433 l 77 433 l 77 547 l 734 547 l 734 433 m 475 203 l 336 203 l 336 342 l 475 342 l 475 203 z "},"◊":{"ha":686,"x_min":31,"x_max":652,"o":"m 652 517 l 383 0 l 300 0 l 31 517 l 300 1035 l 383 1035 l 652 517 m 569 517 l 342 960 l 115 517 l 342 75 l 569 517 z "},"ÿ":{"ha":694,"x_min":18,"x_max":676,"o":"m 135 -174 q 290 0 230 -174 l 18 720 l 157 720 l 347 157 l 538 720 l 676 720 l 404 0 q 337 -159 365 -103 q 266 -253 310 -215 q 157 -292 221 -292 q 74 -282 109 -292 l 74 -164 q 135 -174 104 -174 m 536 848 l 412 848 l 412 987 l 536 987 l 536 848 m 286 848 l 160 848 l 160 987 l 286 987 l 286 848 z "},"Ÿ":{"ha":926,"x_min":7,"x_max":920,"o":"m 920 994 l 529 421 l 529 0 l 397 0 l 397 421 l 7 994 l 167 994 l 464 536 l 760 994 l 920 994 m 652 1084 l 527 1084 l 527 1223 l 652 1223 l 652 1084 m 401 1084 l 275 1084 l 275 1223 l 401 1223 l 401 1084 z "},"⁄":{"ha":232,"x_min":-290,"x_max":524,"o":"m 524 994 l -183 0 l -290 0 l 416 994 l 524 994 z "},"∕":{"ha":232,"x_min":-290,"x_max":524,"o":"m 524 994 l -183 0 l -290 0 l 416 994 l 524 994 z "},"¤":{"ha":772,"x_min":52,"x_max":721,"o":"m 721 239 l 642 160 l 547 253 q 386 204 474 204 q 225 254 297 204 l 131 160 l 52 239 l 146 334 q 98 492 98 408 q 146 650 98 575 q 52 745 147 650 l 131 823 q 225 729 225 730 q 386 779 297 779 q 547 729 475 779 l 642 823 l 721 745 l 627 650 q 673 492 673 575 q 625 334 673 407 l 721 239 m 386 315 q 510 367 458 315 q 562 492 562 419 q 510 616 562 564 q 386 668 458 668 q 261 616 313 668 q 210 492 210 564 q 261 367 210 419 q 386 315 313 315 z "},"‹":{"ha":463,"x_min":61,"x_max":376,"o":"m 376 49 l 277 49 l 61 358 l 277 668 l 376 668 l 200 358 l 376 49 z "},"›":{"ha":463,"x_min":86,"x_max":401,"o":"m 401 358 l 186 49 l 86 49 l 262 358 l 86 668 l 186 668 l 401 358 z "},"ﬁ":{"ha":694,"x_min":11,"x_max":604,"o":"m 244 619 l 244 0 l 117 0 l 117 619 l 11 619 l 11 720 l 117 720 l 117 783 q 318 1011 117 1011 q 414 1003 380 1011 l 414 892 q 336 899 376 899 q 267 872 290 899 q 244 782 244 846 l 244 720 l 380 720 l 380 619 l 244 619 m 604 856 l 476 856 l 476 994 l 604 994 l 604 856 m 604 0 l 476 0 l 476 720 l 604 720 l 604 0 z "},"ﬂ":{"ha":694,"x_min":11,"x_max":604,"o":"m 244 619 l 244 0 l 117 0 l 117 619 l 11 619 l 11 720 l 117 720 l 117 783 q 318 1011 117 1011 q 414 1003 380 1011 l 414 892 q 336 899 376 899 q 267 872 290 899 q 244 782 244 846 l 244 720 l 380 720 l 380 619 l 244 619 m 604 0 l 476 0 l 476 994 l 604 994 l 604 0 z "},"‡":{"ha":772,"x_min":54,"x_max":718,"o":"m 718 7 l 450 7 l 450 -292 l 322 -292 l 322 7 l 54 7 l 54 115 l 322 115 l 322 587 l 54 587 l 54 696 l 322 696 l 322 994 l 450 994 l 450 696 l 717 696 l 717 587 l 450 587 l 450 115 l 718 115 l 718 7 z "},"∙":{"ha":386,"x_min":123,"x_max":262,"o":"m 262 419 l 123 419 l 123 558 l 262 558 l 262 419 z "},"‚":{"ha":386,"x_min":123,"x_max":262,"o":"m 262 0 q 227 -142 262 -89 q 123 -196 192 -196 l 123 -131 q 191 0 191 -131 l 123 0 l 123 139 l 262 139 l 262 0 z "},"„":{"ha":544,"x_min":98,"x_max":446,"o":"m 446 0 q 411 -142 446 -89 q 307 -196 376 -196 l 307 -131 q 376 0 376 -131 l 307 0 l 307 139 l 446 139 l 446 0 m 237 0 q 201 -142 237 -89 q 98 -196 166 -196 l 98 -131 q 165 0 165 -131 l 98 0 l 98 139 l 237 139 l 237 0 z "},"‰":{"ha":1389,"x_min":17,"x_max":1372,"o":"m 225 1011 q 378 942 322 1011 q 435 747 435 873 q 378 553 435 622 q 225 484 322 484 q 73 553 128 484 q 17 747 17 622 q 73 942 17 873 q 225 1011 128 1011 m 225 567 q 326 747 326 567 q 225 928 326 928 q 125 747 125 928 q 225 567 125 567 m 770 994 l 240 0 l 142 0 l 671 994 l 770 994 m 1162 511 q 1316 442 1259 511 q 1372 248 1372 372 q 1316 53 1372 122 q 1162 -17 1259 -17 q 1010 52 1066 -17 q 954 248 954 121 q 1010 442 954 373 q 1162 511 1066 511 m 1162 66 q 1264 248 1264 66 q 1162 428 1264 428 q 1063 248 1063 428 q 1162 66 1063 66 m 686 511 q 840 442 783 511 q 896 248 896 372 q 840 53 896 122 q 686 -17 783 -17 q 534 52 589 -17 q 478 248 478 121 q 534 442 478 373 q 686 511 589 511 m 686 66 q 787 248 787 66 q 686 428 787 428 q 586 248 586 428 q 686 66 586 66 z "},"Â":{"ha":926,"x_min":-1,"x_max":928,"o":"m 625 407 l 450 868 l 283 407 l 625 407 m 928 0 l 779 0 l 664 302 l 248 302 l 138 0 l -1 0 l 380 994 l 522 994 l 928 0 m 663 1057 l 525 1057 l 448 1173 l 372 1057 l 233 1057 l 383 1248 l 513 1248 l 663 1057 z "},"Ê":{"ha":926,"x_min":111,"x_max":852,"o":"m 852 0 l 111 0 l 111 994 l 829 994 l 829 876 l 243 876 l 243 572 l 791 572 l 791 454 l 243 454 l 243 118 l 852 118 l 852 0 m 691 1057 l 553 1057 l 476 1173 l 399 1057 l 261 1057 l 411 1248 l 541 1248 l 691 1057 z "},"Á":{"ha":926,"x_min":-1,"x_max":928,"o":"m 625 407 l 450 868 l 283 407 l 625 407 m 928 0 l 779 0 l 664 302 l 248 302 l 138 0 l -1 0 l 380 994 l 522 994 l 928 0 m 623 1248 l 473 1057 l 372 1057 l 463 1248 l 623 1248 z "},"Ë":{"ha":926,"x_min":111,"x_max":852,"o":"m 852 0 l 111 0 l 111 994 l 829 994 l 829 876 l 243 876 l 243 572 l 791 572 l 791 454 l 243 454 l 243 118 l 852 118 l 852 0 m 665 1084 l 541 1084 l 541 1223 l 665 1223 l 665 1084 m 414 1084 l 289 1084 l 289 1223 l 414 1223 l 414 1084 z "},"È":{"ha":926,"x_min":111,"x_max":852,"o":"m 852 0 l 111 0 l 111 994 l 829 994 l 829 876 l 243 876 l 243 572 l 791 572 l 791 454 l 243 454 l 243 118 l 852 118 l 852 0 m 555 1057 l 454 1057 l 304 1248 l 465 1248 l 555 1057 z "},"Í":{"ha":386,"x_min":117,"x_max":367,"o":"m 260 0 l 127 0 l 127 994 l 260 994 l 260 0 m 367 1248 l 217 1057 l 117 1057 l 207 1248 l 367 1248 z "},"Î":{"ha":386,"x_min":-22,"x_max":408,"o":"m 260 0 l 127 0 l 127 994 l 260 994 l 260 0 m 408 1057 l 269 1057 l 193 1173 l 116 1057 l -22 1057 l 127 1248 l 258 1248 l 408 1057 z "},"Ï":{"ha":386,"x_min":5,"x_max":382,"o":"m 260 0 l 127 0 l 127 994 l 260 994 l 260 0 m 382 1084 l 257 1084 l 257 1223 l 382 1223 l 382 1084 m 131 1084 l 5 1084 l 5 1223 l 131 1223 l 131 1084 z "},"Ì":{"ha":386,"x_min":21,"x_max":271,"o":"m 260 0 l 127 0 l 127 994 l 260 994 l 260 0 m 271 1057 l 171 1057 l 21 1248 l 181 1248 l 271 1057 z "},"Ó":{"ha":1080,"x_min":65,"x_max":1017,"o":"m 542 1011 q 884 870 751 1011 q 1017 497 1017 729 q 884 124 1017 265 q 542 -17 751 -17 q 199 124 332 -17 q 65 497 65 266 q 199 870 65 729 q 542 1011 332 1011 m 541 96 q 785 201 690 96 q 880 497 880 307 q 785 793 880 687 q 543 899 690 899 q 297 793 393 899 q 201 497 201 687 q 297 202 201 308 q 541 96 393 96 m 714 1248 l 564 1057 l 464 1057 l 554 1248 l 714 1248 z "},"Ô":{"ha":1080,"x_min":65,"x_max":1017,"o":"m 542 1011 q 884 870 751 1011 q 1017 497 1017 729 q 884 124 1017 265 q 542 -17 751 -17 q 199 124 332 -17 q 65 497 65 266 q 199 870 65 729 q 542 1011 332 1011 m 541 96 q 785 201 690 96 q 880 497 880 307 q 785 793 880 687 q 543 899 690 899 q 297 793 393 899 q 201 497 201 687 q 297 202 201 308 q 541 96 393 96 m 755 1057 l 616 1057 l 540 1173 l 463 1057 l 325 1057 l 475 1248 l 605 1248 l 755 1057 z "},"Ò":{"ha":1080,"x_min":65,"x_max":1017,"o":"m 542 1011 q 884 870 751 1011 q 1017 497 1017 729 q 884 124 1017 265 q 542 -17 751 -17 q 199 124 332 -17 q 65 497 65 266 q 199 870 65 729 q 542 1011 332 1011 m 541 96 q 785 201 690 96 q 880 497 880 307 q 785 793 880 687 q 543 899 690 899 q 297 793 393 899 q 201 497 201 687 q 297 202 201 308 q 541 96 393 96 m 632 1057 l 532 1057 l 382 1248 l 542 1248 l 632 1057 z "},"Ú":{"ha":1003,"x_min":111,"x_max":892,"o":"m 501 -17 q 242 50 328 -17 q 134 208 157 117 q 111 419 111 299 l 111 994 l 243 994 l 243 421 q 309 163 243 225 q 501 102 374 102 q 694 163 628 102 q 760 421 760 225 l 760 994 l 892 994 l 892 419 q 849 153 892 239 q 719 25 806 68 q 501 -17 632 -17 m 675 1248 l 526 1057 l 425 1057 l 515 1248 l 675 1248 z "},"Û":{"ha":1003,"x_min":111,"x_max":892,"o":"m 501 -17 q 242 50 328 -17 q 134 208 157 117 q 111 419 111 299 l 111 994 l 243 994 l 243 421 q 309 163 243 225 q 501 102 374 102 q 694 163 628 102 q 760 421 760 225 l 760 994 l 892 994 l 892 419 q 849 153 892 239 q 719 25 806 68 q 501 -17 632 -17 m 716 1057 l 578 1057 l 501 1173 l 425 1057 l 286 1057 l 436 1248 l 566 1248 l 716 1057 z "},"Ù":{"ha":1003,"x_min":111,"x_max":892,"o":"m 501 -17 q 242 50 328 -17 q 134 208 157 117 q 111 419 111 299 l 111 994 l 243 994 l 243 421 q 309 163 243 225 q 501 102 374 102 q 694 163 628 102 q 760 421 760 225 l 760 994 l 892 994 l 892 419 q 849 153 892 239 q 719 25 806 68 q 501 -17 632 -17 m 579 1057 l 479 1057 l 329 1248 l 489 1248 l 579 1057 z "},"ı":{"ha":317,"x_min":94,"x_max":222,"o":"m 222 0 l 94 0 l 94 720 l 222 720 l 222 0 z "},"ˆ":{"ha":463,"x_min":16,"x_max":446,"o":"m 446 821 l 307 821 l 231 936 l 154 821 l 16 821 l 165 1011 l 296 1011 l 446 821 z "},"˜":{"ha":463,"x_min":4,"x_max":458,"o":"m 458 996 q 419 882 458 923 q 321 840 380 840 q 224 869 286 840 q 142 897 162 897 q 93 839 99 897 l 4 839 q 43 953 4 911 q 142 994 83 994 q 239 966 177 994 q 321 937 300 937 q 370 996 363 937 l 458 996 z "},"ˉ":{"ha":463,"x_min":20,"x_max":443,"o":"m 443 867 l 20 867 l 20 968 l 443 968 l 443 867 z "},"˘":{"ha":463,"x_min":31,"x_max":432,"o":"m 432 1003 q 369 873 424 919 q 231 827 315 827 q 92 873 146 827 q 31 1003 37 920 l 114 1003 q 231 911 130 911 q 349 1003 330 911 l 432 1003 z "},"˙":{"ha":463,"x_min":168,"x_max":293,"o":"m 293 848 l 168 848 l 168 987 l 293 987 l 293 848 z "},"˚":{"ha":463,"x_min":110,"x_max":354,"o":"m 232 1044 q 318 1008 283 1044 q 354 921 354 972 q 318 834 354 870 q 232 798 283 798 q 145 834 181 798 q 110 921 110 870 q 145 1008 110 972 q 232 1044 181 1044 m 232 847 q 283 869 262 847 q 304 921 304 890 q 283 972 304 951 q 232 994 262 994 q 181 972 202 994 q 160 921 160 951 q 181 869 160 890 q 232 847 202 847 z "},"¸":{"ha":463,"x_min":90,"x_max":366,"o":"m 252 -52 q 366 -160 366 -66 q 160 -292 366 -292 q 90 -289 129 -292 l 90 -210 q 164 -214 127 -214 q 252 -158 252 -214 q 157 -107 252 -107 l 157 0 l 252 0 l 252 -52 z "},"˝":{"ha":604,"x_min":106,"x_max":586,"o":"m 586 1011 l 436 821 l 336 821 l 426 1011 l 586 1011 m 357 1011 l 207 821 l 106 821 l 197 1011 l 357 1011 z "},"˛":{"ha":463,"x_min":45,"x_max":263,"o":"m 263 -278 q 186 -290 224 -290 q 83 -256 122 -290 q 45 -167 45 -223 q 141 0 45 -80 l 235 0 q 155 -134 155 -66 q 217 -192 155 -192 q 263 -185 239 -192 l 263 -278 z "},"ˇ":{"ha":463,"x_min":16,"x_max":446,"o":"m 446 1011 l 296 821 l 165 821 l 16 1011 l 154 1011 l 231 896 l 307 1011 l 446 1011 z "},"Ł":{"ha":772,"x_min":5,"x_max":726,"o":"m 726 0 l 111 0 l 111 389 l 5 300 l 5 412 l 111 503 l 111 994 l 243 994 l 243 615 l 460 800 l 460 686 l 243 501 l 243 118 l 726 118 l 726 0 z "},"ł":{"ha":317,"x_min":8,"x_max":309,"o":"m 222 0 l 94 0 l 94 389 l 8 315 l 8 422 l 94 496 l 94 994 l 222 994 l 222 604 l 309 677 l 309 571 l 222 497 l 222 0 z "},"Š":{"ha":926,"x_min":62,"x_max":854,"o":"m 486 -17 q 172 77 276 -17 q 62 319 68 172 l 189 319 q 282 155 199 208 q 481 102 364 102 q 659 147 591 102 q 726 271 726 193 q 656 390 726 353 q 416 464 587 427 q 171 564 245 500 q 97 736 97 629 q 194 934 97 857 q 450 1011 290 1011 q 722 933 618 1011 q 831 713 825 855 l 703 713 q 456 893 683 893 q 286 852 346 893 q 225 742 225 810 q 274 648 225 680 q 455 588 322 617 q 665 530 587 559 q 799 442 743 502 q 854 281 854 382 q 752 68 854 153 q 486 -17 650 -17 m 663 1248 l 513 1057 l 383 1057 l 233 1248 l 372 1248 l 448 1133 l 525 1248 l 663 1248 z "},"š":{"ha":694,"x_min":43,"x_max":640,"o":"m 351 -17 q 43 215 56 -17 l 171 215 q 350 83 172 83 q 471 116 429 83 q 513 199 513 149 q 472 268 513 248 q 304 319 431 288 q 118 391 177 351 q 60 529 60 430 q 133 677 60 618 q 328 736 205 736 q 616 534 610 736 l 489 534 q 336 636 482 636 q 230 612 272 636 q 187 541 187 587 q 220 480 187 498 q 383 430 252 461 q 577 356 513 398 q 640 211 640 314 q 562 48 640 113 q 351 -17 484 -17 m 534 1011 l 385 821 l 254 821 l 104 1011 l 243 1011 l 319 896 l 396 1011 l 534 1011 z "},"Ž":{"ha":848,"x_min":25,"x_max":811,"o":"m 811 0 l 25 0 l 25 123 l 643 876 l 82 876 l 82 994 l 794 994 l 794 871 l 176 118 l 811 118 l 811 0 m 638 1248 l 488 1057 l 358 1057 l 208 1248 l 347 1248 l 423 1133 l 500 1248 l 638 1248 z "},"ž":{"ha":694,"x_min":28,"x_max":665,"o":"m 665 0 l 28 0 l 28 109 l 476 611 l 54 611 l 54 720 l 643 720 l 643 611 l 195 109 l 665 109 l 665 0 m 562 1011 l 412 821 l 282 821 l 132 1011 l 271 1011 l 347 896 l 424 1011 l 562 1011 z "},"¦":{"ha":361,"x_min":127,"x_max":233,"o":"m 233 -292 l 127 -292 l 127 228 l 233 228 l 233 -292 m 233 475 l 127 475 l 127 994 l 233 994 l 233 475 z "},"Ð":{"ha":1003,"x_min":1,"x_max":933,"o":"m 111 994 l 427 994 q 933 503 933 994 q 427 0 933 0 l 111 0 l 111 439 l 1 439 l 1 557 l 111 557 l 111 994 m 243 118 l 424 118 q 719 219 640 118 q 798 503 798 319 q 719 779 798 681 q 424 876 641 876 l 243 876 l 243 557 l 514 557 l 514 439 l 243 439 l 243 118 z "},"ð":{"ha":772,"x_min":49,"x_max":724,"o":"m 501 871 q 672 613 621 734 q 724 351 724 492 q 632 80 724 177 q 386 -17 540 -17 q 141 80 233 -17 q 49 351 49 177 q 141 623 49 526 q 386 720 233 720 q 494 694 447 720 q 406 828 460 768 l 240 751 l 205 817 l 351 884 q 211 994 296 938 l 358 994 q 443 926 422 947 l 589 994 l 624 929 l 501 871 m 386 83 q 534 151 477 83 q 591 351 591 218 q 534 552 591 484 q 386 619 477 619 q 237 552 294 619 q 180 351 180 484 q 237 151 180 218 q 386 83 294 83 z "},"Ý":{"ha":926,"x_min":7,"x_max":920,"o":"m 920 994 l 529 421 l 529 0 l 397 0 l 397 421 l 7 994 l 167 994 l 464 536 l 760 994 l 920 994 m 636 1248 l 486 1057 l 386 1057 l 476 1248 l 636 1248 z "},"ý":{"ha":694,"x_min":18,"x_max":676,"o":"m 135 -174 q 290 0 230 -174 l 18 720 l 157 720 l 347 157 l 538 720 l 676 720 l 404 0 q 337 -159 365 -103 q 266 -253 310 -215 q 157 -292 221 -292 q 74 -282 109 -292 l 74 -164 q 135 -174 104 -174 m 521 1011 l 371 821 l 271 821 l 361 1011 l 521 1011 z "},"Þ":{"ha":926,"x_min":111,"x_max":865,"o":"m 243 799 l 482 799 q 687 776 604 799 q 817 677 769 753 q 865 509 865 602 q 770 279 865 357 q 493 201 674 201 l 243 201 l 243 0 l 111 0 l 111 994 l 243 994 l 243 799 m 243 319 l 494 319 q 675 367 621 319 q 729 504 729 415 q 699 610 729 564 q 624 668 669 656 q 492 681 578 681 l 243 681 l 243 319 z "},"þ":{"ha":772,"x_min":94,"x_max":724,"o":"m 222 633 q 428 736 308 736 q 646 636 569 736 q 724 366 724 536 q 637 86 724 189 q 419 -17 551 -17 q 222 56 302 -17 l 222 -277 l 94 -277 l 94 994 l 222 994 l 222 633 m 222 171 q 411 83 304 83 q 543 154 494 83 q 591 366 591 225 q 545 567 591 498 q 416 636 499 636 q 222 513 310 636 l 222 171 z "},"−":{"ha":811,"x_min":77,"x_max":734,"o":"m 734 433 l 77 433 l 77 547 l 734 547 l 734 433 z "},"×":{"ha":811,"x_min":113,"x_max":699,"o":"m 699 278 l 618 197 l 406 410 l 193 197 l 113 278 l 325 490 l 113 703 l 193 783 l 406 571 l 618 783 l 699 703 l 486 490 l 699 278 z "},"¹":{"ha":463,"x_min":72,"x_max":322,"o":"m 322 497 l 224 497 l 224 829 q 72 796 176 796 l 72 880 q 249 1007 249 880 l 322 1007 l 322 497 z "},"²":{"ha":463,"x_min":17,"x_max":439,"o":"m 439 497 l 17 497 q 192 705 32 609 q 303 786 278 758 q 329 851 329 814 q 236 926 329 926 q 134 860 148 926 l 31 860 q 237 1007 59 1007 q 383 965 330 1007 q 436 857 436 923 q 405 759 436 800 q 294 671 374 719 q 174 579 215 623 l 439 579 l 439 497 z "},"³":{"ha":463,"x_min":22,"x_max":437,"o":"m 321 764 q 437 642 437 742 q 382 530 437 575 q 232 485 327 485 q 22 631 42 485 l 127 631 q 228 564 136 564 q 332 654 332 564 q 225 724 332 724 l 187 724 l 187 799 q 309 871 309 799 q 227 928 309 928 q 139 872 150 928 l 33 872 q 228 1007 60 1007 q 365 970 316 1007 q 414 880 414 934 q 321 764 414 789 z "},"½":{"ha":1158,"x_min":86,"x_max":1119,"o":"m 336 497 l 238 497 l 238 829 q 86 796 191 796 l 86 880 q 263 1007 263 880 l 336 1007 l 336 497 m 972 994 l 265 0 l 158 0 l 865 994 l 972 994 m 1119 0 l 697 0 q 872 208 712 112 q 984 289 958 260 q 1009 354 1009 317 q 916 429 1009 429 q 814 363 828 429 l 711 363 q 918 510 739 510 q 1063 468 1010 510 q 1116 360 1116 426 q 1085 262 1116 302 q 975 174 1054 222 q 854 82 895 125 l 1119 82 l 1119 0 z "},"¼":{"ha":1158,"x_min":86,"x_max":1096,"o":"m 336 497 l 238 497 l 238 829 q 86 796 191 796 l 86 880 q 263 1007 263 880 l 336 1007 l 336 497 m 997 994 l 290 0 l 183 0 l 890 994 l 997 994 m 1096 104 l 1025 104 l 1025 0 l 928 0 l 928 104 l 668 104 l 668 187 l 942 509 l 1025 509 l 1025 192 l 1096 192 l 1096 104 m 928 192 l 928 385 l 764 192 l 928 192 z "},"¾":{"ha":1158,"x_min":36,"x_max":1096,"o":"m 334 764 q 451 642 451 742 q 396 530 451 575 q 245 485 340 485 q 36 631 56 485 l 141 631 q 241 564 149 564 q 345 654 345 564 q 239 724 345 724 l 201 724 l 201 799 q 322 871 322 799 q 240 928 322 928 q 153 872 163 928 l 47 872 q 241 1007 73 1007 q 378 970 330 1007 q 427 880 427 934 q 334 764 427 789 m 1010 994 l 303 0 l 196 0 l 903 994 l 1010 994 m 1096 104 l 1025 104 l 1025 0 l 928 0 l 928 104 l 668 104 l 668 187 l 942 509 l 1025 509 l 1025 192 l 1096 192 l 1096 104 m 928 192 l 928 385 l 764 192 l 928 192 z "},"₣":{"ha":848,"x_min":0,"x_max":782,"o":"m 782 876 l 243 876 l 243 568 l 710 568 l 710 450 l 243 450 l 243 281 l 444 281 l 444 176 l 243 176 l 243 0 l 111 0 l 111 176 l 0 176 l 0 281 l 111 281 l 111 994 l 782 994 l 782 876 z "},"Ğ":{"ha":1080,"x_min":65,"x_max":991,"o":"m 546 -17 q 198 123 332 -17 q 65 497 65 264 q 197 871 65 731 q 542 1011 328 1011 q 841 925 722 1011 q 974 693 960 838 l 838 693 q 751 844 829 789 q 543 899 672 899 q 295 793 389 899 q 201 497 201 688 q 296 201 201 307 q 545 96 391 96 q 864 237 760 96 l 864 389 l 602 389 l 602 507 l 991 507 l 991 0 l 899 0 l 864 104 q 546 -17 763 -17 m 789 1241 q 726 1111 781 1157 q 587 1065 671 1065 q 448 1111 503 1065 q 387 1241 394 1158 l 471 1241 q 587 1149 487 1149 q 705 1241 686 1149 l 789 1241 z "},"ğ":{"ha":772,"x_min":49,"x_max":677,"o":"m 677 56 q 364 -292 677 -292 q 150 -233 229 -292 q 72 -74 72 -174 l 204 -74 q 363 -192 204 -192 q 501 -143 452 -192 q 550 50 550 -94 l 550 86 q 345 -17 465 -17 q 126 83 203 -17 q 49 354 49 184 q 135 633 49 530 q 353 736 222 736 q 550 664 469 736 l 550 720 l 677 720 l 677 56 m 550 207 l 550 549 q 361 636 467 636 q 230 565 279 636 q 180 354 180 494 q 227 152 180 221 q 355 83 273 83 q 550 207 463 83 m 587 1003 q 524 873 578 919 q 385 827 469 827 q 246 873 300 827 q 185 1003 192 920 l 269 1003 q 385 911 285 911 q 503 1003 484 911 l 587 1003 z "},"İ":{"ha":386,"x_min":127,"x_max":260,"o":"m 260 0 l 127 0 l 127 994 l 260 994 l 260 0 m 258 1085 l 133 1085 l 133 1224 l 258 1224 l 258 1085 z "},"Ş":{"ha":926,"x_min":62,"x_max":854,"o":"m 421 -14 q 155 93 243 1 q 62 319 67 185 l 189 319 q 282 155 199 208 q 481 102 364 102 q 659 147 591 102 q 726 271 726 193 q 656 390 726 353 q 416 464 587 427 q 171 564 245 500 q 97 736 97 629 q 194 934 97 857 q 450 1011 290 1011 q 722 933 618 1011 q 831 713 825 855 l 703 713 q 456 893 683 893 q 286 852 346 893 q 225 742 225 810 q 274 648 225 680 q 455 588 322 617 q 665 530 587 559 q 799 442 743 502 q 854 281 854 382 q 764 78 854 161 q 515 -16 673 -6 l 515 -52 q 629 -160 629 -66 q 424 -292 629 -292 q 354 -289 393 -292 l 354 -210 q 428 -214 391 -214 q 515 -158 515 -214 q 421 -107 515 -107 l 421 -14 z "},"ş":{"ha":694,"x_min":43,"x_max":640,"o":"m 298 -14 q 43 215 54 8 l 171 215 q 350 83 172 83 q 471 116 429 83 q 513 199 513 149 q 472 268 513 248 q 304 319 431 288 q 118 391 177 351 q 60 529 60 430 q 133 677 60 618 q 328 736 205 736 q 616 534 610 736 l 489 534 q 336 636 482 636 q 230 612 272 636 q 187 541 187 587 q 220 480 187 498 q 383 430 252 461 q 577 356 513 398 q 640 211 640 314 q 575 60 640 123 q 393 -16 511 -3 l 393 -52 q 507 -160 507 -66 q 301 -292 507 -292 q 232 -289 271 -292 l 232 -210 q 306 -214 269 -214 q 393 -158 393 -214 q 298 -107 393 -107 l 298 -14 z "},"Ć":{"ha":1003,"x_min":65,"x_max":932,"o":"m 528 -17 q 191 122 317 -17 q 65 497 65 260 q 191 872 65 734 q 528 1011 317 1011 q 804 924 690 1011 q 932 693 918 836 l 796 693 q 714 843 788 787 q 529 899 641 899 q 290 794 378 899 q 201 497 201 690 q 289 200 201 304 q 526 96 376 96 q 715 153 643 96 q 796 315 787 210 l 932 315 q 807 70 918 157 q 528 -17 696 -17 m 703 1248 l 553 1057 l 453 1057 l 543 1248 l 703 1248 z "},"ć":{"ha":694,"x_min":49,"x_max":676,"o":"m 386 -17 q 141 82 233 -17 q 49 359 49 180 q 141 637 49 539 q 386 736 233 736 q 583 676 504 736 q 676 504 662 616 l 545 504 q 496 602 542 568 q 386 636 450 636 q 237 567 294 636 q 180 359 180 497 q 237 153 180 222 q 386 83 294 83 q 496 117 450 83 q 545 215 542 151 l 676 215 q 583 43 662 102 q 386 -17 504 -17 m 541 1011 l 391 821 l 291 821 l 381 1011 l 541 1011 z "},"Č":{"ha":1003,"x_min":65,"x_max":932,"o":"m 528 -17 q 191 122 317 -17 q 65 497 65 260 q 191 872 65 734 q 528 1011 317 1011 q 804 924 690 1011 q 932 693 918 836 l 796 693 q 714 843 788 787 q 529 899 641 899 q 290 794 378 899 q 201 497 201 690 q 289 200 201 304 q 526 96 376 96 q 715 153 643 96 q 796 315 787 210 l 932 315 q 807 70 918 157 q 528 -17 696 -17 m 739 1248 l 589 1057 l 458 1057 l 309 1248 l 447 1248 l 524 1133 l 600 1248 l 739 1248 z "},"č":{"ha":694,"x_min":49,"x_max":676,"o":"m 386 -17 q 141 82 233 -17 q 49 359 49 180 q 141 637 49 539 q 386 736 233 736 q 583 676 504 736 q 676 504 662 616 l 545 504 q 496 602 542 568 q 386 636 450 636 q 237 567 294 636 q 180 359 180 497 q 237 153 180 222 q 386 83 294 83 q 496 117 450 83 q 545 215 542 151 l 676 215 q 583 43 662 102 q 386 -17 504 -17 m 583 1011 l 433 821 l 302 821 l 153 1011 l 291 1011 l 368 896 l 444 1011 l 583 1011 z "},"đ":{"ha":772,"x_min":49,"x_max":772,"o":"m 550 207 l 550 549 q 361 636 467 636 q 230 565 279 636 q 180 354 180 494 q 227 152 180 221 q 355 83 273 83 q 550 207 463 83 m 550 86 q 345 -17 465 -17 q 126 83 203 -17 q 49 354 49 184 q 135 633 49 530 q 353 736 222 736 q 550 664 469 736 l 550 829 l 403 829 l 403 918 l 550 918 l 550 994 l 677 994 l 677 918 l 772 918 l 772 829 l 677 829 l 677 0 l 550 0 l 550 86 z "},"¯":{"ha":694,"x_min":-8,"x_max":703,"o":"m 703 1099 l -8 1099 l -8 1168 l 703 1168 l 703 1099 z "},"·":{"ha":386,"x_min":123,"x_max":262,"o":"m 262 419 l 123 419 l 123 558 l 262 558 l 262 419 z "},"Ă":{"ha":926,"x_min":-1,"x_max":928,"o":"m 625 407 l 450 868 l 283 407 l 625 407 m 928 0 l 779 0 l 664 302 l 248 302 l 138 0 l -1 0 l 380 994 l 522 994 l 928 0 m 661 1240 q 598 1109 653 1156 q 460 1063 544 1063 q 321 1110 375 1063 q 260 1240 267 1156 l 343 1240 q 460 1147 359 1147 q 578 1240 559 1147 l 661 1240 z "},"ă":{"ha":772,"x_min":53,"x_max":677,"o":"m 550 189 l 550 349 l 463 349 q 184 197 184 349 q 225 113 184 142 q 335 83 266 83 q 457 112 398 83 q 550 189 516 140 m 550 74 q 298 -17 452 -17 q 122 41 191 -17 q 53 191 53 99 q 488 443 53 443 l 550 443 q 542 555 550 520 q 496 613 534 590 q 378 636 459 636 q 201 514 207 636 l 74 514 q 385 736 88 736 q 600 681 523 736 q 677 465 677 626 l 677 0 l 550 0 l 550 74 m 585 1003 q 522 873 576 919 q 383 827 467 827 q 244 873 298 827 q 183 1003 190 920 l 267 1003 q 383 911 283 911 q 501 1003 482 911 l 585 1003 z "},"Ą":{"ha":926,"x_min":-1,"x_max":928,"o":"m 625 407 l 450 868 l 283 407 l 625 407 m 928 0 l 779 0 l 664 302 l 248 302 l 138 0 l -1 0 l 380 994 l 522 994 l 928 0 m 922 -278 q 845 -290 883 -290 q 743 -256 781 -290 q 704 -167 704 -223 q 800 0 704 -80 l 895 0 q 814 -134 814 -66 q 876 -192 814 -192 q 922 -185 898 -192 l 922 -278 z "},"ą":{"ha":772,"x_min":53,"x_max":682,"o":"m 550 189 l 550 349 l 463 349 q 184 197 184 349 q 225 113 184 142 q 335 83 266 83 q 457 112 398 83 q 550 189 516 140 m 550 74 q 298 -17 452 -17 q 122 41 191 -17 q 53 191 53 99 q 488 443 53 443 l 550 443 q 542 555 550 520 q 496 613 534 590 q 378 636 459 636 q 201 514 207 636 l 74 514 q 385 736 88 736 q 600 681 523 736 q 677 465 677 626 l 677 0 l 550 0 l 550 74 m 682 -278 q 605 -290 643 -290 q 503 -256 541 -290 q 464 -167 464 -223 q 560 0 464 -80 l 654 0 q 574 -134 574 -66 q 636 -192 574 -192 q 682 -185 658 -192 l 682 -278 z "},"Ď":{"ha":1003,"x_min":111,"x_max":933,"o":"m 111 994 l 427 994 q 933 503 933 994 q 427 0 933 0 l 111 0 l 111 994 m 243 118 l 424 118 q 719 219 640 118 q 798 503 798 319 q 719 779 798 681 q 424 876 641 876 l 243 876 l 243 118 m 636 1248 l 486 1057 l 356 1057 l 206 1248 l 345 1248 l 421 1133 l 498 1248 l 636 1248 z "},"ď":{"ha":881,"x_min":49,"x_max":881,"o":"m 550 207 l 550 549 q 361 636 467 636 q 230 565 279 636 q 180 354 180 494 q 227 152 180 221 q 355 83 273 83 q 550 207 463 83 m 550 86 q 345 -17 465 -17 q 126 83 203 -17 q 49 354 49 184 q 135 633 49 530 q 353 736 222 736 q 550 664 469 736 l 550 994 l 677 994 l 677 0 l 550 0 l 550 86 m 881 856 q 846 713 881 766 q 742 660 810 660 l 742 725 q 810 856 810 725 l 742 856 l 742 994 l 881 994 l 881 856 z "},"Đ":{"ha":1003,"x_min":1,"x_max":933,"o":"m 111 994 l 427 994 q 933 503 933 994 q 427 0 933 0 l 111 0 l 111 439 l 1 439 l 1 557 l 111 557 l 111 994 m 243 118 l 424 118 q 719 219 640 118 q 798 503 798 319 q 719 779 798 681 q 424 876 641 876 l 243 876 l 243 557 l 514 557 l 514 439 l 243 439 l 243 118 z "},"Ę":{"ha":926,"x_min":111,"x_max":852,"o":"m 852 0 l 111 0 l 111 994 l 829 994 l 829 876 l 243 876 l 243 572 l 791 572 l 791 454 l 243 454 l 243 118 l 852 118 l 852 0 m 847 -278 q 770 -290 808 -290 q 667 -256 706 -290 q 629 -167 629 -223 q 725 0 629 -80 l 819 0 q 739 -134 739 -66 q 801 -192 739 -192 q 847 -185 823 -192 l 847 -278 z "},"ę":{"ha":772,"x_min":49,"x_max":724,"o":"m 400 -17 q 145 82 241 -17 q 49 359 49 182 q 142 636 49 536 q 386 736 235 736 q 632 637 540 736 q 724 359 724 539 l 724 329 l 182 329 q 251 144 190 204 q 400 83 311 83 q 521 118 467 83 q 578 215 575 152 l 710 215 q 594 26 696 104 q 488 -134 488 -57 q 551 -192 488 -192 q 597 -185 572 -192 l 597 -278 q 518 -290 563 -290 q 416 -256 454 -290 q 378 -167 378 -222 q 460 -13 378 -86 q 400 -17 441 -17 m 589 429 q 519 585 573 533 q 386 636 465 636 q 254 585 309 636 q 184 429 199 534 l 589 429 z "},"Ě":{"ha":926,"x_min":111,"x_max":852,"o":"m 852 0 l 111 0 l 111 994 l 829 994 l 829 876 l 243 876 l 243 572 l 791 572 l 791 454 l 243 454 l 243 118 l 852 118 l 852 0 m 685 1248 l 535 1057 l 405 1057 l 255 1248 l 393 1248 l 470 1133 l 547 1248 l 685 1248 z "},"ě":{"ha":772,"x_min":49,"x_max":724,"o":"m 400 -17 q 145 82 241 -17 q 49 359 49 182 q 142 636 49 536 q 386 736 235 736 q 632 637 540 736 q 724 359 724 539 l 724 329 l 182 329 q 251 144 190 204 q 400 83 311 83 q 521 118 467 83 q 578 215 575 152 l 710 215 q 609 43 695 104 q 400 -17 524 -17 m 589 429 q 519 585 573 533 q 386 636 465 636 q 254 585 309 636 q 184 429 199 534 l 589 429 m 597 1011 l 448 821 l 317 821 l 168 1011 l 306 1011 l 382 896 l 459 1011 l 597 1011 z "},"Ĺ":{"ha":772,"x_min":111,"x_max":726,"o":"m 726 0 l 111 0 l 111 994 l 243 994 l 243 118 l 726 118 l 726 0 m 460 1257 l 310 1066 l 210 1066 l 300 1257 l 460 1257 z "},"ĺ":{"ha":317,"x_min":48,"x_max":298,"o":"m 222 0 l 94 0 l 94 994 l 222 994 l 222 0 m 298 1248 l 149 1057 l 48 1057 l 138 1248 l 298 1248 z "},"Ľ":{"ha":772,"x_min":111,"x_max":726,"o":"m 726 0 l 111 0 l 111 994 l 243 994 l 243 118 l 726 118 l 726 0 m 622 856 q 587 713 622 766 q 483 660 551 660 l 483 725 q 551 856 551 725 l 483 856 l 483 994 l 622 994 l 622 856 z "},"ľ":{"ha":405,"x_min":94,"x_max":405,"o":"m 222 0 l 94 0 l 94 994 l 222 994 l 222 0 m 405 856 q 370 713 405 766 q 266 660 334 660 l 266 725 q 334 856 334 725 l 266 856 l 266 994 l 405 994 l 405 856 z "},"Ŀ":{"ha":772,"x_min":111,"x_max":726,"o":"m 726 0 l 111 0 l 111 994 l 243 994 l 243 118 l 726 118 l 726 0 m 657 419 l 518 419 l 518 558 l 657 558 l 657 419 z "},"ŀ":{"ha":512,"x_min":45,"x_max":472,"o":"m 173 0 l 45 0 l 45 994 l 173 994 l 173 0 m 472 419 l 333 419 l 333 558 l 472 558 l 472 419 z "},"Ń":{"ha":1003,"x_min":111,"x_max":892,"o":"m 892 0 l 757 0 l 236 785 l 236 0 l 111 0 l 111 994 l 245 994 l 766 210 l 766 994 l 892 994 l 892 0 m 640 1248 l 490 1057 l 390 1057 l 480 1248 l 640 1248 z "},"ń":{"ha":772,"x_min":94,"x_max":681,"o":"m 222 628 q 437 736 318 736 q 681 471 681 736 l 681 0 l 553 0 l 553 465 q 521 592 553 553 q 418 631 490 631 q 222 515 320 631 l 222 0 l 94 0 l 94 720 l 222 720 l 222 628 m 557 1011 l 408 821 l 307 821 l 397 1011 l 557 1011 z "},"Ň":{"ha":1003,"x_min":111,"x_max":892,"o":"m 892 0 l 757 0 l 236 785 l 236 0 l 111 0 l 111 994 l 245 994 l 766 210 l 766 994 l 892 994 l 892 0 m 700 1248 l 550 1057 l 420 1057 l 270 1248 l 408 1248 l 485 1133 l 562 1248 l 700 1248 z "},"ň":{"ha":772,"x_min":94,"x_max":681,"o":"m 222 628 q 437 736 318 736 q 681 471 681 736 l 681 0 l 553 0 l 553 465 q 521 592 553 553 q 418 631 490 631 q 222 515 320 631 l 222 0 l 94 0 l 94 720 l 222 720 l 222 628 m 599 1011 l 449 821 l 319 821 l 169 1011 l 307 1011 l 384 896 l 460 1011 l 599 1011 z "},"Ő":{"ha":1080,"x_min":65,"x_max":1017,"o":"m 542 1011 q 884 870 751 1011 q 1017 497 1017 729 q 884 124 1017 265 q 542 -17 751 -17 q 199 124 332 -17 q 65 497 65 266 q 199 870 65 729 q 542 1011 332 1011 m 541 96 q 785 201 690 96 q 880 497 880 307 q 785 793 880 687 q 543 899 690 899 q 297 793 393 899 q 201 497 201 687 q 297 202 201 308 q 541 96 393 96 m 813 1248 l 663 1057 l 563 1057 l 653 1248 l 813 1248 m 584 1248 l 434 1057 l 334 1057 l 424 1248 l 584 1248 z "},"ő":{"ha":772,"x_min":49,"x_max":724,"o":"m 386 736 q 632 637 540 736 q 724 359 724 539 q 632 82 724 180 q 386 -17 540 -17 q 141 82 233 -17 q 49 359 49 180 q 141 637 49 539 q 386 736 233 736 m 386 83 q 534 153 477 83 q 591 359 591 222 q 534 567 591 497 q 386 636 477 636 q 237 567 294 636 q 180 359 180 497 q 237 153 180 222 q 386 83 294 83 m 671 1011 l 521 821 l 420 821 l 511 1011 l 671 1011 m 441 1011 l 292 821 l 191 821 l 281 1011 l 441 1011 z "},"Ŕ":{"ha":1003,"x_min":111,"x_max":940,"o":"m 940 0 l 798 0 l 704 265 q 621 380 679 336 q 486 425 562 425 l 243 425 l 243 0 l 111 0 l 111 994 l 551 994 q 740 972 667 994 q 859 878 813 949 q 905 715 905 806 q 846 543 905 612 q 682 453 786 474 l 682 450 q 840 271 786 417 l 940 0 m 243 543 l 536 543 q 714 582 659 543 q 770 715 770 621 q 557 885 770 885 l 243 885 l 243 543 m 595 1248 l 445 1057 l 345 1057 l 435 1248 l 595 1248 z "},"ŕ":{"ha":463,"x_min":94,"x_max":468,"o":"m 468 603 q 390 611 441 611 q 222 509 292 611 l 222 0 l 94 0 l 94 720 l 222 720 l 222 619 q 410 736 303 736 q 468 730 437 736 l 468 603 m 418 1011 l 268 821 l 168 821 l 258 1011 l 418 1011 z "},"Ř":{"ha":1003,"x_min":111,"x_max":940,"o":"m 940 0 l 798 0 l 704 265 q 621 380 679 336 q 486 425 562 425 l 243 425 l 243 0 l 111 0 l 111 994 l 551 994 q 740 972 667 994 q 859 878 813 949 q 905 715 905 806 q 846 543 905 612 q 682 453 786 474 l 682 450 q 840 271 786 417 l 940 0 m 243 543 l 536 543 q 714 582 659 543 q 770 715 770 621 q 557 885 770 885 l 243 885 l 243 543 m 656 1248 l 506 1057 l 376 1057 l 226 1248 l 364 1248 l 441 1133 l 517 1248 l 656 1248 z "},"ř":{"ha":463,"x_min":29,"x_max":468,"o":"m 468 603 q 390 611 441 611 q 222 509 292 611 l 222 0 l 94 0 l 94 720 l 222 720 l 222 619 q 410 736 303 736 q 468 730 437 736 l 468 603 m 459 1011 l 309 821 l 179 821 l 29 1011 l 168 1011 l 244 896 l 321 1011 l 459 1011 z "},"Ś":{"ha":926,"x_min":62,"x_max":854,"o":"m 486 -17 q 172 77 276 -17 q 62 319 68 172 l 189 319 q 282 155 199 208 q 481 102 364 102 q 659 147 591 102 q 726 271 726 193 q 656 390 726 353 q 416 464 587 427 q 171 564 245 500 q 97 736 97 629 q 194 934 97 857 q 450 1011 290 1011 q 722 933 618 1011 q 831 713 825 855 l 703 713 q 456 893 683 893 q 286 852 346 893 q 225 742 225 810 q 274 648 225 680 q 455 588 322 617 q 665 530 587 559 q 799 442 743 502 q 854 281 854 382 q 752 68 854 153 q 486 -17 650 -17 m 591 1248 l 441 1057 l 340 1057 l 431 1248 l 591 1248 z "},"ś":{"ha":694,"x_min":43,"x_max":640,"o":"m 351 -17 q 43 215 56 -17 l 171 215 q 350 83 172 83 q 471 116 429 83 q 513 199 513 149 q 472 268 513 248 q 304 319 431 288 q 118 391 177 351 q 60 529 60 430 q 133 677 60 618 q 328 736 205 736 q 616 534 610 736 l 489 534 q 336 636 482 636 q 230 612 272 636 q 187 541 187 587 q 220 480 187 498 q 383 430 252 461 q 577 356 513 398 q 640 211 640 314 q 562 48 640 113 q 351 -17 484 -17 m 521 1011 l 371 821 l 271 821 l 361 1011 l 521 1011 z "},"Ţ":{"ha":848,"x_min":31,"x_max":818,"o":"m 818 876 l 489 876 l 489 0 l 470 0 l 470 -52 q 584 -160 584 -66 q 378 -292 584 -292 q 309 -289 347 -292 l 309 -210 q 382 -214 346 -214 q 470 -158 470 -214 q 375 -107 470 -107 l 375 0 l 357 0 l 357 876 l 31 876 l 31 994 l 818 994 l 818 876 z "},"ţ":{"ha":386,"x_min":24,"x_max":403,"o":"m 289 -158 q 194 -107 289 -107 l 194 2 q 125 78 138 28 q 113 211 113 128 l 113 619 l 24 619 l 24 720 l 113 720 l 113 899 l 240 899 l 240 720 l 357 720 l 357 619 l 240 619 l 240 204 q 259 110 240 130 q 310 90 277 90 q 374 96 343 90 l 374 -1 q 289 -9 332 -9 l 289 -52 q 403 -160 403 -66 q 197 -292 403 -292 q 127 -289 166 -292 l 127 -210 q 201 -214 165 -214 q 289 -158 289 -214 z "},"Ť":{"ha":848,"x_min":31,"x_max":818,"o":"m 818 876 l 489 876 l 489 0 l 357 0 l 357 876 l 31 876 l 31 994 l 818 994 l 818 876 m 637 1248 l 488 1057 l 357 1057 l 208 1248 l 346 1248 l 422 1133 l 499 1248 l 637 1248 z "},"ť":{"ha":488,"x_min":24,"x_max":488,"o":"m 374 -1 q 282 -9 332 -9 q 167 19 203 -9 q 121 91 130 47 q 113 211 113 135 l 113 619 l 24 619 l 24 720 l 113 720 l 113 899 l 240 899 l 240 720 l 357 720 l 357 619 l 240 619 l 240 204 q 259 110 240 130 q 310 90 277 90 q 374 96 343 90 l 374 -1 m 488 916 q 453 799 488 837 q 349 762 418 762 l 349 827 q 417 916 417 827 l 349 916 l 349 1054 l 488 1054 l 488 916 z "},"Ů":{"ha":1003,"x_min":111,"x_max":892,"o":"m 501 -17 q 242 50 328 -17 q 134 208 157 117 q 111 419 111 299 l 111 994 l 243 994 l 243 421 q 309 163 243 225 q 501 102 374 102 q 694 163 628 102 q 760 421 760 225 l 760 994 l 892 994 l 892 419 q 849 153 892 239 q 719 25 806 68 q 501 -17 632 -17 m 501 1240 q 588 1203 552 1240 q 623 1116 623 1167 q 588 1029 623 1065 q 501 993 552 993 q 415 1029 450 993 q 379 1116 379 1065 q 415 1203 379 1167 q 501 1240 450 1240 m 501 1042 q 552 1064 531 1042 q 574 1116 574 1086 q 552 1168 574 1146 q 501 1190 531 1190 q 450 1168 471 1190 q 429 1116 429 1146 q 450 1064 429 1086 q 501 1042 471 1042 z "},"ů":{"ha":772,"x_min":92,"x_max":677,"o":"m 550 92 q 335 -17 454 -17 q 92 249 92 -17 l 92 720 l 220 720 l 220 254 q 251 127 220 166 q 354 89 282 89 q 550 204 461 89 l 550 720 l 677 720 l 677 0 l 550 0 l 550 92 m 381 1044 q 468 1008 432 1044 q 503 921 503 972 q 468 834 503 870 q 381 798 432 798 q 295 834 330 798 q 259 921 259 870 q 295 1008 259 972 q 381 1044 330 1044 m 381 847 q 432 869 411 847 q 454 921 454 890 q 432 972 454 951 q 381 994 411 994 q 330 972 351 994 q 309 921 309 951 q 330 869 309 890 q 381 847 351 847 z "},"Ű":{"ha":1003,"x_min":111,"x_max":892,"o":"m 501 -17 q 242 50 328 -17 q 134 208 157 117 q 111 419 111 299 l 111 994 l 243 994 l 243 421 q 309 163 243 225 q 501 102 374 102 q 694 163 628 102 q 760 421 760 225 l 760 994 l 892 994 l 892 419 q 849 153 892 239 q 719 25 806 68 q 501 -17 632 -17 m 794 1248 l 644 1057 l 544 1057 l 634 1248 l 794 1248 m 565 1248 l 415 1057 l 315 1057 l 405 1248 l 565 1248 z "},"ű":{"ha":772,"x_min":92,"x_max":681,"o":"m 550 92 q 335 -17 454 -17 q 92 249 92 -17 l 92 720 l 220 720 l 220 254 q 251 127 220 166 q 354 89 282 89 q 550 204 461 89 l 550 720 l 677 720 l 677 0 l 550 0 l 550 92 m 681 1011 l 531 821 l 431 821 l 521 1011 l 681 1011 m 452 1011 l 302 821 l 201 821 l 292 1011 l 452 1011 z "},"Ź":{"ha":848,"x_min":25,"x_max":811,"o":"m 811 0 l 25 0 l 25 123 l 643 876 l 82 876 l 82 994 l 794 994 l 794 871 l 176 118 l 811 118 l 811 0 m 576 1248 l 427 1057 l 326 1057 l 416 1248 l 576 1248 z "},"ź":{"ha":694,"x_min":28,"x_max":665,"o":"m 665 0 l 28 0 l 28 109 l 476 611 l 54 611 l 54 720 l 643 720 l 643 611 l 195 109 l 665 109 l 665 0 m 519 1011 l 369 821 l 269 821 l 359 1011 l 519 1011 z "},"Ż":{"ha":848,"x_min":25,"x_max":811,"o":"m 811 0 l 25 0 l 25 123 l 643 876 l 82 876 l 82 994 l 794 994 l 794 871 l 176 118 l 811 118 l 811 0 m 499 1085 l 374 1085 l 374 1224 l 499 1224 l 499 1085 z "},"ż":{"ha":694,"x_min":28,"x_max":665,"o":"m 665 0 l 28 0 l 28 109 l 476 611 l 54 611 l 54 720 l 643 720 l 643 611 l 195 109 l 665 109 l 665 0 m 408 848 l 283 848 l 283 987 l 408 987 l 408 848 z "},"Γ":{"ha":812,"x_min":111,"x_max":775,"o":"m 775 876 l 243 876 l 243 0 l 111 0 l 111 994 l 775 994 l 775 876 z "},"Θ":{"ha":1080,"x_min":65,"x_max":1017,"o":"m 542 1011 q 884 870 751 1011 q 1017 497 1017 729 q 884 124 1017 265 q 542 -17 751 -17 q 199 124 332 -17 q 65 497 65 266 q 199 870 65 729 q 542 1011 332 1011 m 541 96 q 785 201 690 96 q 880 497 880 307 q 785 793 880 687 q 543 899 690 899 q 297 793 393 899 q 201 497 201 687 q 297 202 201 308 q 541 96 393 96 m 345 437 l 345 555 l 736 555 l 736 437 l 345 437 z "},"Φ":{"ha":1124,"x_min":65,"x_max":1059,"o":"m 628 901 q 933 789 807 901 q 1059 501 1059 677 q 934 218 1059 327 q 628 110 809 110 l 628 0 l 496 0 l 496 110 q 190 218 315 110 q 65 501 65 327 q 191 789 65 677 q 496 901 316 901 l 496 994 l 628 994 l 628 901 m 628 221 q 843 301 764 221 q 922 505 922 380 q 843 710 922 631 q 628 790 764 790 l 628 221 m 496 221 l 496 790 q 281 710 360 790 q 201 505 201 631 q 281 301 201 380 q 496 221 360 221 z "},"α":{"ha":800,"x_min":49,"x_max":751,"o":"m 624 720 l 751 720 q 689 485 715 606 q 664 359 664 365 q 695 198 664 334 q 751 0 727 62 l 627 0 q 583 132 593 86 q 346 -17 517 -17 q 131 84 212 -17 q 49 361 49 184 q 130 637 49 539 q 347 736 212 736 q 587 599 519 736 q 624 720 605 666 m 559 367 q 506 567 559 498 q 368 636 452 636 q 229 563 277 636 q 180 358 180 489 q 227 162 180 240 q 363 83 274 83 q 504 159 449 83 q 559 367 559 235 z "},"δ":{"ha":772,"x_min":49,"x_max":724,"o":"m 290 895 l 564 677 q 692 524 660 602 q 724 350 724 446 q 631 80 724 178 q 386 -17 538 -17 q 142 80 235 -17 q 49 350 49 178 q 131 605 49 507 q 355 714 214 703 l 118 904 l 118 994 l 661 994 l 661 895 l 290 895 m 386 83 q 534 151 476 83 q 591 350 591 218 q 534 548 591 481 q 386 615 477 615 q 238 548 296 615 q 180 350 180 481 q 238 151 180 218 q 386 83 296 83 z "},"ε":{"ha":694,"x_min":49,"x_max":671,"o":"m 644 554 l 513 554 q 353 636 503 636 q 200 525 200 636 q 233 451 200 484 q 385 419 265 419 l 431 419 l 431 322 l 385 322 q 267 312 304 322 q 205 273 230 302 q 180 200 180 243 q 229 116 180 148 q 361 83 277 83 q 491 116 443 83 q 539 187 539 149 l 671 187 q 578 42 663 100 q 358 -17 493 -17 q 130 44 211 -17 q 49 199 49 106 q 182 375 49 315 q 68 528 68 425 q 144 677 68 619 q 358 736 221 736 q 566 685 488 736 q 644 554 644 633 z "},"σ":{"ha":812,"x_min":49,"x_max":812,"o":"m 812 619 l 647 619 q 724 359 724 520 q 632 82 724 180 q 386 -17 540 -17 q 141 82 233 -17 q 49 359 49 180 q 141 637 49 539 q 386 736 233 736 q 463 728 420 736 l 500 720 l 812 720 l 812 619 m 386 83 q 534 153 477 83 q 591 359 591 222 q 534 567 591 497 q 386 636 477 636 q 237 567 294 636 q 180 359 180 497 q 237 153 180 222 q 386 83 294 83 z "},"τ":{"ha":694,"x_min":22,"x_max":672,"o":"m 672 619 l 404 619 l 404 163 q 463 89 404 89 q 505 94 478 89 l 505 -12 q 447 -17 484 -17 q 277 153 277 -17 l 277 619 l 22 619 l 22 720 l 672 720 l 672 619 z "},"φ":{"ha":901,"x_min":49,"x_max":852,"o":"m 392 90 l 392 547 q 441 682 392 628 q 570 736 490 736 q 779 633 706 736 q 852 379 852 531 q 761 111 852 224 q 519 -17 669 -3 l 519 -277 l 392 -277 l 392 -17 q 142 110 235 -4 q 49 379 49 223 q 126 643 49 550 q 319 736 204 736 l 319 636 q 180 379 180 636 q 237 184 180 261 q 392 90 294 106 m 519 94 q 666 185 610 108 q 721 379 721 262 q 680 564 721 492 q 585 636 639 636 q 519 536 519 636 l 519 94 z "},"‗":{"ha":694,"x_min":-8,"x_max":703,"o":"m 703 -138 l -8 -138 l -8 -68 l 703 -68 l 703 -138 m 703 -277 l -8 -277 l -8 -207 l 703 -207 l 703 -277 z "},"‼":{"ha":772,"x_min":123,"x_max":648,"o":"m 262 0 l 123 0 l 123 139 l 262 139 l 262 0 m 262 779 l 236 248 l 150 248 l 123 779 l 123 994 l 262 994 l 262 779 m 648 0 l 509 0 l 509 139 l 648 139 l 648 0 m 648 779 l 622 248 l 536 248 l 509 779 l 509 994 l 648 994 l 648 779 z "},"ⁿ":{"ha":514,"x_min":52,"x_max":465,"o":"m 465 518 l 368 518 l 368 823 q 278 932 368 932 q 149 859 213 932 l 149 518 l 52 518 l 52 994 l 149 994 l 149 939 q 292 1011 211 1011 q 465 829 465 1011 l 465 518 z "},"₧":{"ha":1721,"x_min":97,"x_max":1667,"o":"m 97 994 l 301 994 q 506 971 423 994 q 637 873 589 949 q 685 704 685 798 q 589 475 685 553 q 313 397 494 397 l 229 397 l 229 0 l 97 0 l 97 994 m 229 515 l 314 515 q 495 563 441 515 q 549 700 549 610 q 518 806 549 760 q 443 864 488 852 q 311 876 397 876 l 229 876 l 229 515 m 1067 -1 q 975 -9 1025 -9 q 850 28 895 -9 q 806 197 806 65 l 806 578 l 717 578 l 717 677 l 806 677 l 806 857 l 933 857 l 933 677 l 1050 677 l 1050 578 l 933 578 l 933 191 q 952 108 933 125 q 1003 90 971 90 q 1067 96 1036 90 l 1067 -1 m 1515 507 q 1377 595 1511 595 q 1272 575 1301 595 q 1242 515 1242 556 q 1271 456 1242 477 q 1434 398 1301 434 q 1617 314 1567 362 q 1667 195 1667 267 q 1591 42 1667 102 q 1390 -17 1515 -17 q 1178 42 1254 -17 q 1097 201 1101 100 l 1225 201 q 1389 83 1223 83 q 1500 110 1462 83 q 1539 182 1539 137 q 1515 234 1539 216 q 1344 293 1491 252 q 1155 384 1197 334 q 1114 504 1114 433 q 1184 642 1114 589 q 1369 694 1254 694 q 1643 507 1634 694 l 1515 507 z "},"Ĳ":{"ha":1080,"x_min":127,"x_max":969,"o":"m 260 0 l 127 0 l 127 994 l 260 994 l 260 0 m 969 318 q 899 59 969 136 q 690 -17 828 -17 q 495 58 567 -17 q 423 257 423 134 l 423 283 l 555 283 q 690 102 555 102 q 800 142 762 102 q 838 311 838 182 l 838 994 l 969 994 l 969 318 z "},"ĳ":{"ha":633,"x_min":94,"x_max":539,"o":"m 222 0 l 94 0 l 94 720 l 222 720 l 222 0 m 222 856 l 94 856 l 94 994 l 222 994 l 222 856 m 539 -39 q 490 -242 539 -193 q 354 -290 441 -290 q 268 -283 302 -290 l 268 -175 q 339 -184 304 -184 q 396 -155 381 -184 q 411 -36 411 -125 l 411 720 l 539 720 l 539 -39 m 539 856 l 411 856 l 411 994 l 539 994 l 539 856 z "},"ŉ":{"ha":939,"x_min":22,"x_max":847,"o":"m 389 628 q 604 736 484 736 q 847 471 847 736 l 847 0 l 719 0 l 719 465 q 687 592 719 553 q 584 631 656 631 q 389 515 486 631 l 389 0 l 260 0 l 260 720 l 389 720 l 389 628 m 161 856 q 126 713 161 766 q 22 660 91 660 l 22 725 q 90 856 90 725 l 22 856 l 22 994 l 161 994 l 161 856 z "},"′":{"ha":463,"x_min":155,"x_max":346,"o":"m 346 1011 l 237 736 l 155 736 l 204 1011 l 346 1011 z "},"″":{"ha":463,"x_min":58,"x_max":443,"o":"m 249 1011 l 140 736 l 58 736 l 107 1011 l 249 1011 m 443 1011 l 335 736 l 253 736 l 301 1011 l 443 1011 z "},"℅":{"ha":1235,"x_min":87,"x_max":1147,"o":"m 526 646 q 462 525 517 567 q 323 484 406 484 q 152 552 216 484 q 87 747 87 621 q 152 942 87 873 q 323 1011 216 1011 q 462 969 406 1011 q 526 848 517 927 l 418 848 q 389 906 416 884 q 323 928 361 928 q 196 747 196 928 q 323 567 196 567 q 389 589 361 567 q 418 646 416 610 l 526 646 m 937 994 l 395 0 l 296 0 l 839 994 l 937 994 m 921 511 q 1084 440 1021 511 q 1147 248 1147 370 q 1084 54 1147 125 q 921 -17 1021 -17 q 759 54 821 -17 q 696 248 696 124 q 759 441 696 370 q 921 511 821 511 m 921 66 q 1039 248 1039 66 q 921 428 1039 428 q 804 248 804 428 q 921 66 804 66 z "},"ℓ":{"ha":449,"x_min":10,"x_max":438,"o":"m 10 286 l 130 446 l 130 754 q 172 959 130 907 q 289 1011 214 1011 q 396 967 354 1011 q 438 849 438 923 q 397 697 438 787 q 245 451 357 607 l 245 170 q 255 95 245 109 q 283 80 264 80 q 323 91 300 80 q 418 153 347 102 l 418 43 q 342 -2 380 13 q 265 -16 304 -16 q 166 22 203 -16 q 130 147 130 61 l 130 300 l 77 233 l 10 286 m 245 610 q 327 768 311 724 q 343 848 343 811 q 339 885 343 869 q 326 913 334 901 q 310 925 319 921 q 292 930 302 930 q 273 926 281 930 q 260 912 264 922 q 249 861 253 898 q 245 764 245 823 l 245 610 z "},"□":{"ha":839,"x_min":99,"x_max":739,"o":"m 99 640 l 739 640 l 739 0 l 99 0 l 99 640 m 151 589 l 151 52 l 688 52 l 688 589 l 151 589 z "},"▪":{"ha":492,"x_min":89,"x_max":403,"o":"m 403 616 l 403 302 l 89 302 l 89 616 l 403 616 z "},"▫":{"ha":492,"x_min":89,"x_max":403,"o":"m 403 616 l 403 302 l 89 302 l 89 616 l 403 616 m 351 564 l 140 564 l 140 353 l 351 353 l 351 564 z "},"●":{"ha":839,"x_min":120,"x_max":718,"o":"m 120 391 q 208 602 120 515 q 419 690 295 690 q 630 602 543 690 q 718 391 718 515 q 630 180 718 267 q 419 92 543 92 q 208 180 295 92 q 120 391 120 267 z "},"◦":{"ha":492,"x_min":76,"x_max":416,"o":"m 246 629 q 367 579 317 629 q 416 459 416 530 q 367 339 416 389 q 246 289 317 289 q 126 339 176 289 q 76 459 76 389 q 125 579 76 530 q 246 629 175 629 m 246 578 q 162 543 197 578 q 127 459 127 508 q 162 375 127 410 q 246 340 197 340 q 330 375 295 340 q 365 459 365 410 q 330 543 365 508 q 246 578 296 578 z "},"Ā":{"ha":926,"x_min":-1,"x_max":928,"o":"m 625 407 l 450 868 l 283 407 l 625 407 m 928 0 l 779 0 l 664 302 l 248 302 l 138 0 l -1 0 l 380 994 l 522 994 l 928 0 m 663 1103 l 240 1103 l 240 1204 l 663 1204 l 663 1103 z "},"ā":{"ha":772,"x_min":53,"x_max":677,"o":"m 550 189 l 550 349 l 463 349 q 184 197 184 349 q 225 113 184 142 q 335 83 266 83 q 457 112 398 83 q 550 189 516 140 m 550 74 q 298 -17 452 -17 q 122 41 191 -17 q 53 191 53 99 q 488 443 53 443 l 550 443 q 542 555 550 520 q 496 613 534 590 q 378 636 459 636 q 201 514 207 636 l 74 514 q 385 736 88 736 q 600 681 523 736 q 677 465 677 626 l 677 0 l 550 0 l 550 74 m 586 867 l 163 867 l 163 968 l 586 968 l 586 867 z "},"Ĉ":{"ha":1003,"x_min":65,"x_max":932,"o":"m 528 -17 q 191 122 317 -17 q 65 497 65 260 q 191 872 65 734 q 528 1011 317 1011 q 804 924 690 1011 q 932 693 918 836 l 796 693 q 714 843 788 787 q 529 899 641 899 q 290 794 378 899 q 201 497 201 690 q 289 200 201 304 q 526 96 376 96 q 715 153 643 96 q 796 315 787 210 l 932 315 q 807 70 918 157 q 528 -17 696 -17 m 739 1057 l 600 1057 l 524 1173 l 447 1057 l 309 1057 l 458 1248 l 589 1248 l 739 1057 z "},"ĉ":{"ha":694,"x_min":49,"x_max":676,"o":"m 386 -17 q 141 82 233 -17 q 49 359 49 180 q 141 637 49 539 q 386 736 233 736 q 583 676 504 736 q 676 504 662 616 l 545 504 q 496 602 542 568 q 386 636 450 636 q 237 567 294 636 q 180 359 180 497 q 237 153 180 222 q 386 83 294 83 q 496 117 450 83 q 545 215 542 151 l 676 215 q 583 43 662 102 q 386 -17 504 -17 m 583 821 l 444 821 l 368 936 l 291 821 l 153 821 l 302 1011 l 433 1011 l 583 821 z "},"Ċ":{"ha":1003,"x_min":65,"x_max":932,"o":"m 528 -17 q 191 122 317 -17 q 65 497 65 260 q 191 872 65 734 q 528 1011 317 1011 q 804 924 690 1011 q 932 693 918 836 l 796 693 q 714 843 788 787 q 529 899 641 899 q 290 794 378 899 q 201 497 201 690 q 289 200 201 304 q 526 96 376 96 q 715 153 643 96 q 796 315 787 210 l 932 315 q 807 70 918 157 q 528 -17 696 -17 m 586 1085 l 461 1085 l 461 1224 l 586 1224 l 586 1085 z "},"ċ":{"ha":694,"x_min":49,"x_max":676,"o":"m 386 -17 q 141 82 233 -17 q 49 359 49 180 q 141 637 49 539 q 386 736 233 736 q 583 676 504 736 q 676 504 662 616 l 545 504 q 496 602 542 568 q 386 636 450 636 q 237 567 294 636 q 180 359 180 497 q 237 153 180 222 q 386 83 294 83 q 496 117 450 83 q 545 215 542 151 l 676 215 q 583 43 662 102 q 386 -17 504 -17 m 430 848 l 305 848 l 305 987 l 430 987 l 430 848 z "},"Ē":{"ha":926,"x_min":111,"x_max":852,"o":"m 852 0 l 111 0 l 111 994 l 829 994 l 829 876 l 243 876 l 243 572 l 791 572 l 791 454 l 243 454 l 243 118 l 852 118 l 852 0 m 688 1103 l 265 1103 l 265 1204 l 688 1204 l 688 1103 z "},"ē":{"ha":772,"x_min":49,"x_max":724,"o":"m 400 -17 q 145 82 241 -17 q 49 359 49 182 q 142 636 49 536 q 386 736 235 736 q 632 637 540 736 q 724 359 724 539 l 724 329 l 182 329 q 251 144 190 204 q 400 83 311 83 q 521 118 467 83 q 578 215 575 152 l 710 215 q 609 43 695 104 q 400 -17 524 -17 m 589 429 q 519 585 573 533 q 386 636 465 636 q 254 585 309 636 q 184 429 199 534 l 589 429 m 598 867 l 175 867 l 175 968 l 598 968 l 598 867 z "},"Ĕ":{"ha":926,"x_min":111,"x_max":852,"o":"m 852 0 l 111 0 l 111 994 l 829 994 l 829 876 l 243 876 l 243 572 l 791 572 l 791 454 l 243 454 l 243 118 l 852 118 l 852 0 m 677 1240 q 615 1109 669 1156 q 476 1063 560 1063 q 337 1110 391 1063 q 276 1240 283 1156 l 359 1240 q 476 1147 376 1147 q 594 1240 575 1147 l 677 1240 z "},"ĕ":{"ha":772,"x_min":49,"x_max":724,"o":"m 400 -17 q 145 82 241 -17 q 49 359 49 182 q 142 636 49 536 q 386 736 235 736 q 632 637 540 736 q 724 359 724 539 l 724 329 l 182 329 q 251 144 190 204 q 400 83 311 83 q 521 118 467 83 q 578 215 575 152 l 710 215 q 609 43 695 104 q 400 -17 524 -17 m 589 429 q 519 585 573 533 q 386 636 465 636 q 254 585 309 636 q 184 429 199 534 l 589 429 m 587 1003 q 525 873 579 919 q 386 827 470 827 q 247 873 301 827 q 186 1003 193 920 l 269 1003 q 386 911 286 911 q 504 1003 485 911 l 587 1003 z "},"Ė":{"ha":926,"x_min":111,"x_max":852,"o":"m 852 0 l 111 0 l 111 994 l 829 994 l 829 876 l 243 876 l 243 572 l 791 572 l 791 454 l 243 454 l 243 118 l 852 118 l 852 0 m 538 1085 l 414 1085 l 414 1224 l 538 1224 l 538 1085 z "},"ė":{"ha":772,"x_min":49,"x_max":724,"o":"m 400 -17 q 145 82 241 -17 q 49 359 49 182 q 142 636 49 536 q 386 736 235 736 q 632 637 540 736 q 724 359 724 539 l 724 329 l 182 329 q 251 144 190 204 q 400 83 311 83 q 521 118 467 83 q 578 215 575 152 l 710 215 q 609 43 695 104 q 400 -17 524 -17 m 589 429 q 519 585 573 533 q 386 636 465 636 q 254 585 309 636 q 184 429 199 534 l 589 429 m 448 848 l 323 848 l 323 987 l 448 987 l 448 848 z "},"Ĝ":{"ha":1080,"x_min":65,"x_max":991,"o":"m 546 -17 q 198 123 332 -17 q 65 497 65 264 q 197 871 65 731 q 542 1011 328 1011 q 841 925 722 1011 q 974 693 960 838 l 838 693 q 751 844 829 789 q 543 899 672 899 q 295 793 389 899 q 201 497 201 688 q 296 201 201 307 q 545 96 391 96 q 864 237 760 96 l 864 389 l 602 389 l 602 507 l 991 507 l 991 0 l 899 0 l 864 104 q 546 -17 763 -17 m 761 1059 l 623 1059 l 546 1174 l 469 1059 l 331 1059 l 481 1249 l 611 1249 l 761 1059 z "},"ĝ":{"ha":772,"x_min":49,"x_max":677,"o":"m 677 56 q 364 -292 677 -292 q 150 -233 229 -292 q 72 -74 72 -174 l 204 -74 q 363 -192 204 -192 q 501 -143 452 -192 q 550 50 550 -94 l 550 86 q 345 -17 465 -17 q 126 83 203 -17 q 49 354 49 184 q 135 633 49 530 q 353 736 222 736 q 550 664 469 736 l 550 720 l 677 720 l 677 56 m 550 207 l 550 549 q 361 636 467 636 q 230 565 279 636 q 180 354 180 494 q 227 152 180 221 q 355 83 273 83 q 550 207 463 83 m 581 821 l 443 821 l 366 936 l 290 821 l 151 821 l 301 1011 l 431 1011 l 581 821 z "},"Ġ":{"ha":1080,"x_min":65,"x_max":991,"o":"m 546 -17 q 198 123 332 -17 q 65 497 65 264 q 197 871 65 731 q 542 1011 328 1011 q 841 925 722 1011 q 974 693 960 838 l 838 693 q 751 844 829 789 q 543 899 672 899 q 295 793 389 899 q 201 497 201 688 q 296 201 201 307 q 545 96 391 96 q 864 237 760 96 l 864 389 l 602 389 l 602 507 l 991 507 l 991 0 l 899 0 l 864 104 q 546 -17 763 -17 m 608 1086 l 484 1086 l 484 1225 l 608 1225 l 608 1086 z "},"ġ":{"ha":772,"x_min":49,"x_max":677,"o":"m 677 56 q 364 -292 677 -292 q 150 -233 229 -292 q 72 -74 72 -174 l 204 -74 q 363 -192 204 -192 q 501 -143 452 -192 q 550 50 550 -94 l 550 86 q 345 -17 465 -17 q 126 83 203 -17 q 49 354 49 184 q 135 633 49 530 q 353 736 222 736 q 550 664 469 736 l 550 720 l 677 720 l 677 56 m 550 207 l 550 549 q 361 636 467 636 q 230 565 279 636 q 180 354 180 494 q 227 152 180 221 q 355 83 273 83 q 550 207 463 83 m 429 848 l 304 848 l 304 987 l 429 987 l 429 848 z "},"Ģ":{"ha":1080,"x_min":65,"x_max":991,"o":"m 546 -17 q 198 123 332 -17 q 65 497 65 264 q 197 871 65 731 q 542 1011 328 1011 q 841 925 722 1011 q 974 693 960 838 l 838 693 q 751 844 829 789 q 543 899 672 899 q 295 793 389 899 q 201 497 201 688 q 296 201 201 307 q 545 96 391 96 q 864 237 760 96 l 864 389 l 602 389 l 602 507 l 991 507 l 991 0 l 899 0 l 864 104 q 546 -17 763 -17 m 601 -186 q 490 -292 601 -292 l 490 -243 q 531 -233 517 -243 q 545 -186 545 -223 l 490 -186 l 490 -75 l 601 -75 l 601 -186 z "},"ģ":{"ha":772,"x_min":49,"x_max":677,"o":"m 677 56 q 364 -292 677 -292 q 150 -233 229 -292 q 72 -74 72 -174 l 204 -74 q 363 -192 204 -192 q 501 -143 452 -192 q 550 50 550 -94 l 550 86 q 345 -17 465 -17 q 126 83 203 -17 q 49 354 49 184 q 135 633 49 530 q 353 736 222 736 q 550 664 469 736 l 550 720 l 677 720 l 677 56 m 550 207 l 550 549 q 361 636 467 636 q 230 565 279 636 q 180 354 180 494 q 227 152 180 221 q 355 83 273 83 q 550 207 463 83 m 419 821 l 281 821 l 281 960 q 316 1102 281 1048 q 419 1156 351 1156 l 419 1090 q 351 960 351 1090 l 419 960 l 419 821 z "},"Ĥ":{"ha":1003,"x_min":111,"x_max":892,"o":"m 892 0 l 760 0 l 760 468 l 243 468 l 243 0 l 111 0 l 111 994 l 243 994 l 243 586 l 760 586 l 760 994 l 892 994 l 892 0 m 717 1057 l 578 1057 l 502 1173 l 425 1057 l 287 1057 l 437 1248 l 567 1248 l 717 1057 z "},"ĥ":{"ha":772,"x_min":94,"x_max":681,"o":"m 222 628 q 437 736 318 736 q 681 471 681 736 l 681 0 l 553 0 l 553 465 q 521 592 553 553 q 418 631 490 631 q 222 515 320 631 l 222 0 l 94 0 l 94 994 l 222 994 l 222 628 m 608 1057 l 470 1057 l 393 1173 l 317 1057 l 178 1057 l 328 1248 l 458 1248 l 608 1057 z "},"Ħ":{"ha":1003,"x_min":14,"x_max":989,"o":"m 989 760 l 892 760 l 892 0 l 760 0 l 760 468 l 243 468 l 243 0 l 111 0 l 111 760 l 14 760 l 14 848 l 111 848 l 111 994 l 243 994 l 243 848 l 760 848 l 760 994 l 892 994 l 892 848 l 989 848 l 989 760 m 760 586 l 760 760 l 243 760 l 243 586 l 760 586 z "},"ħ":{"ha":772,"x_min":0,"x_max":681,"o":"m 681 0 l 553 0 l 553 465 q 521 592 553 553 q 418 631 490 631 q 222 515 320 631 l 222 0 l 94 0 l 94 829 l 0 829 l 0 918 l 94 918 l 94 994 l 222 994 l 222 918 l 421 918 l 421 829 l 222 829 l 222 628 q 437 736 318 736 q 681 471 681 736 l 681 0 z "},"Ĩ":{"ha":386,"x_min":-34,"x_max":420,"o":"m 260 0 l 127 0 l 127 994 l 260 994 l 260 0 m 420 1232 q 381 1118 420 1160 q 283 1077 342 1077 q 186 1105 248 1077 q 104 1134 124 1134 q 55 1076 61 1134 l -34 1076 q 5 1190 -34 1148 q 104 1231 45 1231 q 201 1202 139 1231 q 283 1174 262 1174 q 332 1232 326 1174 l 420 1232 z "},"ĩ":{"ha":317,"x_min":-68,"x_max":386,"o":"m 222 0 l 94 0 l 94 720 l 222 720 l 222 0 m 386 996 q 347 882 386 923 q 248 840 307 840 q 151 869 213 840 q 69 897 90 897 q 20 839 26 897 l -68 839 q -29 953 -68 911 q 69 994 10 994 q 166 966 104 994 q 248 937 228 937 q 297 996 291 937 l 386 996 z "},"Ī":{"ha":386,"x_min":-18,"x_max":405,"o":"m 260 0 l 127 0 l 127 994 l 260 994 l 260 0 m 405 1103 l -18 1103 l -18 1204 l 405 1204 l 405 1103 z "},"ī":{"ha":317,"x_min":-53,"x_max":370,"o":"m 222 0 l 94 0 l 94 720 l 222 720 l 222 0 m 370 867 l -53 867 l -53 968 l 370 968 l 370 867 z "},"Ĭ":{"ha":386,"x_min":-7,"x_max":394,"o":"m 260 0 l 127 0 l 127 994 l 260 994 l 260 0 m 394 1240 q 331 1109 386 1156 q 193 1063 277 1063 q 54 1110 108 1063 q -7 1240 -1 1156 l 76 1240 q 193 1147 92 1147 q 311 1240 292 1147 l 394 1240 z "},"ĭ":{"ha":317,"x_min":-42,"x_max":359,"o":"m 222 0 l 94 0 l 94 720 l 222 720 l 222 0 m 359 1003 q 297 873 351 919 q 158 827 242 827 q 19 873 73 827 q -42 1003 -35 920 l 41 1003 q 158 911 58 911 q 276 1003 257 911 l 359 1003 z "},"Į":{"ha":386,"x_min":49,"x_max":267,"o":"m 145 0 l 127 0 l 127 994 l 260 994 l 260 0 l 239 0 q 159 -134 159 -65 q 221 -192 159 -192 q 267 -185 243 -192 l 267 -278 q 190 -290 225 -290 q 87 -256 125 -290 q 49 -167 49 -223 q 145 0 49 -78 z "},"į":{"ha":317,"x_min":14,"x_max":232,"o":"m 222 856 l 94 856 l 94 994 l 222 994 l 222 856 m 110 0 l 94 0 l 94 720 l 222 720 l 222 0 l 204 0 q 123 -134 123 -66 q 186 -192 123 -192 q 232 -185 208 -192 l 232 -278 q 155 -290 190 -290 q 52 -256 90 -290 q 14 -167 14 -223 q 110 0 14 -79 z "},"Ĵ":{"ha":694,"x_min":37,"x_max":732,"o":"m 583 318 q 513 59 583 136 q 304 -17 442 -17 q 109 58 181 -17 q 37 257 37 134 l 37 283 l 170 283 q 304 102 170 102 q 414 142 376 102 q 452 311 452 182 l 452 994 l 583 994 l 583 318 m 732 1057 l 594 1057 l 517 1173 l 441 1057 l 302 1057 l 452 1248 l 583 1248 l 732 1057 z "},"ĵ":{"ha":317,"x_min":-57,"x_max":374,"o":"m 374 821 l 235 821 l 158 936 l 82 821 l -57 821 l 93 1011 l 224 1011 l 374 821 m 222 -39 q 174 -242 222 -193 q 37 -290 125 -290 q -49 -283 -15 -290 l -49 -175 q 22 -184 -12 -184 q 79 -155 64 -184 q 94 -36 94 -125 l 94 720 l 222 720 l 222 -39 z "},"Ķ":{"ha":926,"x_min":111,"x_max":924,"o":"m 924 0 l 750 0 l 397 496 l 243 345 l 243 0 l 111 0 l 111 994 l 243 994 l 243 501 l 728 994 l 905 994 l 489 586 l 924 0 m 540 -186 q 429 -292 540 -292 l 429 -243 q 470 -233 456 -243 q 484 -186 484 -223 l 429 -186 l 429 -75 l 540 -75 l 540 -186 z "},"ķ":{"ha":694,"x_min":94,"x_max":689,"o":"m 689 0 l 536 0 l 302 366 l 222 286 l 222 0 l 94 0 l 94 994 l 222 994 l 222 431 l 500 720 l 661 720 l 389 452 l 689 0 m 418 -186 q 307 -292 418 -292 l 307 -243 q 348 -233 334 -243 q 362 -186 362 -223 l 307 -186 l 307 -75 l 418 -75 l 418 -186 z "},"ĸ":{"ha":694,"x_min":94,"x_max":689,"o":"m 689 0 l 536 0 l 302 366 l 222 286 l 222 0 l 94 0 l 94 720 l 222 720 l 222 431 l 500 720 l 661 720 l 389 452 l 689 0 z "},"Ļ":{"ha":772,"x_min":111,"x_max":726,"o":"m 726 0 l 111 0 l 111 994 l 243 994 l 243 118 l 726 118 l 726 0 m 472 -186 q 361 -292 472 -292 l 361 -243 q 402 -233 389 -243 q 416 -186 416 -223 l 361 -186 l 361 -75 l 472 -75 l 472 -186 z "},"ļ":{"ha":317,"x_min":94,"x_max":222,"o":"m 222 0 l 94 0 l 94 994 l 222 994 l 222 0 m 211 -186 q 100 -292 211 -292 l 100 -243 q 141 -233 127 -243 q 155 -186 155 -223 l 100 -186 l 100 -75 l 211 -75 l 211 -186 z "},"Ņ":{"ha":1003,"x_min":111,"x_max":892,"o":"m 892 0 l 757 0 l 236 785 l 236 0 l 111 0 l 111 994 l 245 994 l 766 210 l 766 994 l 892 994 l 892 0 m 567 -186 q 456 -292 567 -292 l 456 -243 q 497 -233 484 -243 q 511 -186 511 -223 l 456 -186 l 456 -75 l 567 -75 l 567 -186 z "},"ņ":{"ha":772,"x_min":94,"x_max":681,"o":"m 222 628 q 437 736 318 736 q 681 471 681 736 l 681 0 l 553 0 l 553 465 q 521 592 553 553 q 418 631 490 631 q 222 515 320 631 l 222 0 l 94 0 l 94 720 l 222 720 l 222 628 m 445 -186 q 334 -292 445 -292 l 334 -243 q 375 -233 361 -243 q 389 -186 389 -223 l 334 -186 l 334 -75 l 445 -75 l 445 -186 z "},"Ŋ":{"ha":1003,"x_min":111,"x_max":892,"o":"m 766 -16 l 236 785 l 236 0 l 111 0 l 111 994 l 245 994 l 766 210 l 766 994 l 892 994 l 892 -25 q 842 -222 892 -168 q 693 -277 791 -277 q 593 -268 634 -277 l 593 -160 q 677 -171 636 -171 q 747 -138 728 -171 q 766 -22 766 -104 l 766 -16 z "},"ŋ":{"ha":772,"x_min":94,"x_max":681,"o":"m 681 -25 q 632 -228 681 -179 q 496 -277 583 -277 q 410 -269 444 -277 l 410 -161 q 481 -171 446 -171 q 538 -141 523 -171 q 553 -22 553 -111 l 553 465 q 521 592 553 553 q 418 631 490 631 q 222 515 320 631 l 222 0 l 94 0 l 94 720 l 222 720 l 222 628 q 437 736 318 736 q 681 471 681 736 l 681 -25 z "},"Ō":{"ha":1080,"x_min":65,"x_max":1017,"o":"m 542 1011 q 884 870 751 1011 q 1017 497 1017 729 q 884 124 1017 265 q 542 -17 751 -17 q 199 124 332 -17 q 65 497 65 266 q 199 870 65 729 q 542 1011 332 1011 m 541 96 q 785 201 690 96 q 880 497 880 307 q 785 793 880 687 q 543 899 690 899 q 297 793 393 899 q 201 497 201 687 q 297 202 201 308 q 541 96 393 96 m 752 1103 l 329 1103 l 329 1204 l 752 1204 l 752 1103 z "},"ō":{"ha":772,"x_min":49,"x_max":724,"o":"m 386 736 q 632 637 540 736 q 724 359 724 539 q 632 82 724 180 q 386 -17 540 -17 q 141 82 233 -17 q 49 359 49 180 q 141 637 49 539 q 386 736 233 736 m 386 83 q 534 153 477 83 q 591 359 591 222 q 534 567 591 497 q 386 636 477 636 q 237 567 294 636 q 180 359 180 497 q 237 153 180 222 q 386 83 294 83 m 598 867 l 175 867 l 175 968 l 598 968 l 598 867 z "},"Ŏ":{"ha":1080,"x_min":65,"x_max":1017,"o":"m 542 1011 q 884 870 751 1011 q 1017 497 1017 729 q 884 124 1017 265 q 542 -17 751 -17 q 199 124 332 -17 q 65 497 65 266 q 199 870 65 729 q 542 1011 332 1011 m 541 96 q 785 201 690 96 q 880 497 880 307 q 785 793 880 687 q 543 899 690 899 q 297 793 393 899 q 201 497 201 687 q 297 202 201 308 q 541 96 393 96 m 741 1240 q 679 1109 733 1156 q 540 1063 624 1063 q 401 1110 455 1063 q 340 1240 347 1156 l 423 1240 q 540 1147 439 1147 q 658 1240 639 1147 l 741 1240 z "},"ŏ":{"ha":772,"x_min":49,"x_max":724,"o":"m 386 736 q 632 637 540 736 q 724 359 724 539 q 632 82 724 180 q 386 -17 540 -17 q 141 82 233 -17 q 49 359 49 180 q 141 637 49 539 q 386 736 233 736 m 386 83 q 534 153 477 83 q 591 359 591 222 q 534 567 591 497 q 386 636 477 636 q 237 567 294 636 q 180 359 180 497 q 237 153 180 222 q 386 83 294 83 m 587 1003 q 525 873 579 919 q 386 827 470 827 q 247 873 301 827 q 186 1003 193 920 l 269 1003 q 386 911 286 911 q 504 1003 485 911 l 587 1003 z "},"Ŗ":{"ha":1003,"x_min":111,"x_max":940,"o":"m 940 0 l 798 0 l 704 265 q 621 380 679 336 q 486 425 562 425 l 243 425 l 243 0 l 111 0 l 111 994 l 551 994 q 740 972 667 994 q 859 878 813 949 q 905 715 905 806 q 846 543 905 612 q 682 453 786 474 l 682 450 q 840 271 786 417 l 940 0 m 243 543 l 536 543 q 714 582 659 543 q 770 715 770 621 q 557 885 770 885 l 243 885 l 243 543 m 567 -186 q 456 -292 567 -292 l 456 -243 q 497 -233 484 -243 q 511 -186 511 -223 l 456 -186 l 456 -75 l 567 -75 l 567 -186 z "},"ŗ":{"ha":463,"x_min":94,"x_max":468,"o":"m 468 603 q 390 611 441 611 q 222 509 292 611 l 222 0 l 94 0 l 94 720 l 222 720 l 222 619 q 410 736 303 736 q 468 730 437 736 l 468 603 m 211 -186 q 100 -292 211 -292 l 100 -243 q 141 -233 127 -243 q 155 -186 155 -223 l 100 -186 l 100 -75 l 211 -75 l 211 -186 z "},"Ŝ":{"ha":926,"x_min":62,"x_max":854,"o":"m 486 -17 q 172 77 276 -17 q 62 319 68 172 l 189 319 q 282 155 199 208 q 481 102 364 102 q 659 147 591 102 q 726 271 726 193 q 656 390 726 353 q 416 464 587 427 q 171 564 245 500 q 97 736 97 629 q 194 934 97 857 q 450 1011 290 1011 q 722 933 618 1011 q 831 713 825 855 l 703 713 q 456 893 683 893 q 286 852 346 893 q 225 742 225 810 q 274 648 225 680 q 455 588 322 617 q 665 530 587 559 q 799 442 743 502 q 854 281 854 382 q 752 68 854 153 q 486 -17 650 -17 m 663 1057 l 525 1057 l 448 1173 l 372 1057 l 233 1057 l 383 1248 l 513 1248 l 663 1057 z "},"ŝ":{"ha":694,"x_min":43,"x_max":640,"o":"m 351 -17 q 43 215 56 -17 l 171 215 q 350 83 172 83 q 471 116 429 83 q 513 199 513 149 q 472 268 513 248 q 304 319 431 288 q 118 391 177 351 q 60 529 60 430 q 133 677 60 618 q 328 736 205 736 q 616 534 610 736 l 489 534 q 336 636 482 636 q 230 612 272 636 q 187 541 187 587 q 220 480 187 498 q 383 430 252 461 q 577 356 513 398 q 640 211 640 314 q 562 48 640 113 q 351 -17 484 -17 m 534 821 l 396 821 l 319 936 l 243 821 l 104 821 l 254 1011 l 385 1011 l 534 821 z "},"Ŧ":{"ha":848,"x_min":31,"x_max":818,"o":"m 489 507 l 489 0 l 357 0 l 357 507 l 92 507 l 92 596 l 357 596 l 357 876 l 31 876 l 31 994 l 818 994 l 818 876 l 489 876 l 489 596 l 753 596 l 753 507 l 489 507 z "},"ŧ":{"ha":386,"x_min":24,"x_max":374,"o":"m 240 370 l 240 204 q 259 110 240 130 q 310 90 277 90 q 374 96 343 90 l 374 -1 q 282 -9 332 -9 q 167 19 203 -9 q 121 91 130 47 q 113 211 113 135 l 113 370 l 24 370 l 24 458 l 113 458 l 113 619 l 24 619 l 24 720 l 113 720 l 113 899 l 240 899 l 240 720 l 357 720 l 357 619 l 240 619 l 240 458 l 329 458 l 329 370 l 240 370 z "},"Ũ":{"ha":1003,"x_min":111,"x_max":892,"o":"m 501 -17 q 242 50 328 -17 q 134 208 157 117 q 111 419 111 299 l 111 994 l 243 994 l 243 421 q 309 163 243 225 q 501 102 374 102 q 694 163 628 102 q 760 421 760 225 l 760 994 l 892 994 l 892 419 q 849 153 892 239 q 719 25 806 68 q 501 -17 632 -17 m 730 1232 q 690 1118 730 1159 q 592 1076 651 1076 q 495 1105 557 1076 q 413 1133 433 1133 q 364 1075 370 1133 l 275 1075 q 315 1189 275 1147 q 413 1230 354 1230 q 510 1202 448 1230 q 592 1173 572 1173 q 641 1232 635 1173 l 730 1232 z "},"ũ":{"ha":772,"x_min":92,"x_max":677,"o":"m 550 92 q 335 -17 454 -17 q 92 249 92 -17 l 92 720 l 220 720 l 220 254 q 251 127 220 166 q 354 89 282 89 q 550 204 461 89 l 550 720 l 677 720 l 677 0 l 550 0 l 550 92 m 614 996 q 575 882 614 923 q 477 840 536 840 q 380 869 441 840 q 298 897 318 897 q 249 839 255 897 l 160 839 q 199 953 160 911 q 298 994 239 994 q 395 966 333 994 q 477 937 456 937 q 526 996 519 937 l 614 996 z "},"Ū":{"ha":1003,"x_min":111,"x_max":892,"o":"m 501 -17 q 242 50 328 -17 q 134 208 157 117 q 111 419 111 299 l 111 994 l 243 994 l 243 421 q 309 163 243 225 q 501 102 374 102 q 694 163 628 102 q 760 421 760 225 l 760 994 l 892 994 l 892 419 q 849 153 892 239 q 719 25 806 68 q 501 -17 632 -17 m 714 1103 l 291 1103 l 291 1204 l 714 1204 l 714 1103 z "},"ū":{"ha":772,"x_min":92,"x_max":677,"o":"m 550 92 q 335 -17 454 -17 q 92 249 92 -17 l 92 720 l 220 720 l 220 254 q 251 127 220 166 q 354 89 282 89 q 550 204 461 89 l 550 720 l 677 720 l 677 0 l 550 0 l 550 92 m 599 867 l 176 867 l 176 968 l 599 968 l 599 867 z "},"Ŭ":{"ha":1003,"x_min":111,"x_max":892,"o":"m 501 -17 q 242 50 328 -17 q 134 208 157 117 q 111 419 111 299 l 111 994 l 243 994 l 243 421 q 309 163 243 225 q 501 102 374 102 q 694 163 628 102 q 760 421 760 225 l 760 994 l 892 994 l 892 419 q 849 153 892 239 q 719 25 806 68 q 501 -17 632 -17 m 703 1239 q 641 1109 695 1155 q 502 1063 586 1063 q 363 1109 417 1063 q 302 1239 309 1156 l 385 1239 q 502 1147 401 1147 q 620 1239 601 1147 l 703 1239 z "},"ŭ":{"ha":772,"x_min":92,"x_max":677,"o":"m 550 92 q 335 -17 454 -17 q 92 249 92 -17 l 92 720 l 220 720 l 220 254 q 251 127 220 166 q 354 89 282 89 q 550 204 461 89 l 550 720 l 677 720 l 677 0 l 550 0 l 550 92 m 588 1003 q 525 873 580 919 q 387 827 471 827 q 248 873 302 827 q 186 1003 193 920 l 270 1003 q 387 911 286 911 q 505 1003 486 911 l 588 1003 z "},"Ų":{"ha":1003,"x_min":111,"x_max":892,"o":"m 501 -17 q 242 50 328 -17 q 134 208 157 117 q 111 419 111 299 l 111 994 l 243 994 l 243 421 q 309 163 243 225 q 501 102 374 102 q 694 163 628 102 q 760 421 760 225 l 760 994 l 892 994 l 892 419 q 849 153 892 239 q 719 25 806 68 q 501 -17 632 -17 m 655 -278 q 578 -290 616 -290 q 475 -256 514 -290 q 437 -167 437 -223 q 533 0 437 -80 l 627 0 q 547 -134 547 -66 q 609 -192 547 -192 q 655 -185 631 -192 l 655 -278 z "},"ų":{"ha":772,"x_min":92,"x_max":687,"o":"m 550 92 q 335 -17 454 -17 q 92 249 92 -17 l 92 720 l 220 720 l 220 254 q 251 127 220 166 q 354 89 282 89 q 550 204 461 89 l 550 720 l 677 720 l 677 0 l 550 0 l 550 92 m 687 -278 q 610 -290 648 -290 q 507 -256 546 -290 q 469 -167 469 -223 q 565 0 469 -80 l 659 0 q 578 -134 578 -66 q 641 -192 578 -192 q 687 -185 663 -192 l 687 -278 z "},"Ŵ":{"ha":1311,"x_min":17,"x_max":1297,"o":"m 1297 994 l 1022 0 l 896 0 l 657 864 l 418 0 l 292 0 l 17 994 l 155 994 l 354 184 l 578 994 l 736 994 l 960 184 l 1158 994 l 1297 994 m 872 1057 l 734 1057 l 657 1173 l 581 1057 l 442 1057 l 592 1248 l 722 1248 l 872 1057 z "},"ŵ":{"ha":1003,"x_min":7,"x_max":996,"o":"m 996 720 l 779 0 l 657 0 l 501 529 l 346 0 l 224 0 l 7 720 l 149 720 l 281 171 l 443 720 l 559 720 l 722 171 l 854 720 l 996 720 m 716 821 l 578 821 l 501 936 l 425 821 l 286 821 l 436 1011 l 566 1011 l 716 821 z "},"Ŷ":{"ha":926,"x_min":7,"x_max":920,"o":"m 920 994 l 529 421 l 529 0 l 397 0 l 397 421 l 7 994 l 167 994 l 464 536 l 760 994 l 920 994 m 678 1057 l 540 1057 l 463 1172 l 387 1057 l 248 1057 l 398 1247 l 528 1247 l 678 1057 z "},"ŷ":{"ha":694,"x_min":18,"x_max":676,"o":"m 135 -174 q 290 0 230 -174 l 18 720 l 157 720 l 347 157 l 538 720 l 676 720 l 404 0 q 337 -159 365 -103 q 266 -253 310 -215 q 157 -292 221 -292 q 74 -282 109 -292 l 74 -164 q 135 -174 104 -174 m 563 821 l 425 821 l 348 936 l 271 821 l 133 821 l 283 1011 l 413 1011 l 563 821 z "},"ſ":{"ha":347,"x_min":94,"x_max":392,"o":"m 392 892 q 314 899 354 899 q 245 872 267 899 q 222 782 222 846 l 222 0 l 94 0 l 94 783 q 296 1011 94 1011 q 392 1003 357 1011 l 392 892 z "},"Ǻ":{"ha":926,"x_min":-1,"x_max":928,"o":"m 612 407 l 450 808 l 294 407 l 612 407 m 928 0 l 779 0 l 656 302 l 254 302 l 138 0 l -1 0 l 372 916 q 330 1008 330 954 q 366 1096 330 1059 q 453 1132 402 1132 q 539 1096 503 1132 q 575 1008 575 1059 q 532 914 575 951 l 928 0 m 453 935 q 504 956 483 935 q 525 1008 525 978 q 504 1060 525 1038 q 453 1082 483 1082 q 402 1060 423 1082 q 380 1008 380 1038 q 402 956 380 978 q 453 935 423 935 m 602 1280 l 485 1153 l 387 1153 l 441 1280 l 602 1280 z "},"ǻ":{"ha":772,"x_min":53,"x_max":677,"o":"m 550 189 l 550 349 l 463 349 q 184 197 184 349 q 225 113 184 142 q 335 83 266 83 q 457 112 398 83 q 550 189 516 140 m 550 74 q 298 -17 452 -17 q 122 41 191 -17 q 53 191 53 99 q 488 443 53 443 l 550 443 q 542 555 550 520 q 496 613 534 590 q 378 636 459 636 q 201 514 207 636 l 74 514 q 294 729 85 697 q 265 810 265 766 q 301 897 265 861 q 387 933 337 933 q 474 897 438 933 q 510 810 510 861 q 481 729 510 764 q 621 661 564 717 q 677 465 677 606 l 677 0 l 550 0 l 550 74 m 387 736 q 438 758 417 736 q 460 810 460 779 q 438 862 460 840 q 387 884 417 884 q 336 862 357 884 q 315 810 315 840 q 336 758 315 779 q 387 736 357 736 m 568 1152 l 418 961 l 318 961 l 408 1152 l 568 1152 z "},"Ǽ":{"ha":1389,"x_min":0,"x_max":1312,"o":"m 1312 0 l 663 0 l 663 288 l 311 288 l 153 0 l 0 0 l 572 994 l 1289 994 l 1289 876 l 794 876 l 794 572 l 1251 572 l 1251 454 l 794 454 l 794 118 l 1312 118 l 1312 0 m 663 404 l 663 876 l 633 876 l 375 404 l 663 404 m 994 1248 l 844 1057 l 744 1057 l 834 1248 l 994 1248 z "},"ǽ":{"ha":1235,"x_min":53,"x_max":1186,"o":"m 536 297 l 536 349 l 449 349 q 184 197 184 349 q 328 83 184 83 q 479 138 422 83 q 536 297 536 192 m 591 122 q 488 22 554 61 q 292 -17 422 -17 q 119 41 185 -17 q 53 191 53 98 q 473 443 53 443 l 536 443 q 527 547 536 508 q 481 611 517 587 q 371 636 446 636 q 201 514 211 636 l 74 514 q 378 736 90 736 q 625 644 563 736 q 856 736 713 736 q 1097 638 1008 736 q 1186 359 1186 540 l 1186 329 l 664 329 q 727 144 671 205 q 869 83 783 83 q 986 118 935 83 q 1040 215 1038 152 l 1173 215 q 1075 43 1158 103 q 869 -17 991 -17 q 591 122 683 -17 m 1051 429 q 856 636 1020 636 q 667 429 695 636 l 1051 429 m 781 1011 l 631 821 l 530 821 l 621 1011 l 781 1011 z "},"Ǿ":{"ha":1080,"x_min":54,"x_max":1028,"o":"m 1028 975 l 908 842 q 1017 497 1017 703 q 884 124 1017 265 q 542 -17 751 -17 q 236 89 364 -17 l 122 -37 l 54 20 l 174 153 q 65 497 65 293 q 199 870 65 729 q 542 1011 332 1011 q 846 905 720 1011 l 960 1032 l 1028 975 m 764 814 q 543 899 674 899 q 297 793 393 899 q 201 497 201 687 q 261 250 201 350 l 764 814 m 318 180 q 541 96 408 96 q 785 201 690 96 q 880 497 880 307 q 821 745 880 645 l 318 180 m 714 1248 l 564 1057 l 464 1057 l 554 1248 l 714 1248 z "},"ǿ":{"ha":772,"x_min":49,"x_max":724,"o":"m 642 627 q 724 359 724 526 q 632 82 724 180 q 386 -17 540 -17 q 191 39 273 -17 l 122 -49 l 58 0 q 129 93 130 93 q 49 359 49 194 q 141 637 49 539 q 386 736 233 736 q 582 681 499 736 l 650 770 l 714 721 l 642 627 m 513 590 q 386 636 459 636 q 237 567 294 636 q 180 359 180 497 q 210 197 180 262 l 513 590 m 258 129 q 386 83 311 83 q 534 153 477 83 q 591 359 591 222 q 561 522 591 460 q 258 129 260 129 m 560 1011 l 410 821 l 310 821 l 400 1011 l 560 1011 z "},"·":{"ha":386,"x_min":123,"x_max":262,"o":"m 262 419 l 123 419 l 123 558 l 262 558 l 262 419 z "},"Ẁ":{"ha":1311,"x_min":17,"x_max":1297,"o":"m 1297 994 l 1022 0 l 896 0 l 657 864 l 418 0 l 292 0 l 17 994 l 155 994 l 354 184 l 578 994 l 736 994 l 960 184 l 1158 994 l 1297 994 m 705 1057 l 605 1057 l 455 1248 l 615 1248 l 705 1057 z "},"ẁ":{"ha":1003,"x_min":7,"x_max":996,"o":"m 996 720 l 779 0 l 657 0 l 501 529 l 346 0 l 224 0 l 7 720 l 149 720 l 281 171 l 443 720 l 559 720 l 722 171 l 854 720 l 996 720 m 581 821 l 480 821 l 330 1011 l 490 1011 l 581 821 z "},"Ẃ":{"ha":1311,"x_min":17,"x_max":1297,"o":"m 1297 994 l 1022 0 l 896 0 l 657 864 l 418 0 l 292 0 l 17 994 l 155 994 l 354 184 l 578 994 l 736 994 l 960 184 l 1158 994 l 1297 994 m 861 1248 l 711 1057 l 610 1057 l 701 1248 l 861 1248 z "},"ẃ":{"ha":1003,"x_min":7,"x_max":996,"o":"m 996 720 l 779 0 l 657 0 l 501 529 l 346 0 l 224 0 l 7 720 l 149 720 l 281 171 l 443 720 l 559 720 l 722 171 l 854 720 l 996 720 m 676 1011 l 526 821 l 426 821 l 516 1011 l 676 1011 z "},"Ẅ":{"ha":1311,"x_min":17,"x_max":1297,"o":"m 1297 994 l 1022 0 l 896 0 l 657 864 l 418 0 l 292 0 l 17 994 l 155 994 l 354 184 l 578 994 l 736 994 l 960 184 l 1158 994 l 1297 994 m 846 1085 l 721 1085 l 721 1224 l 846 1224 l 846 1085 m 595 1085 l 469 1085 l 469 1224 l 595 1224 l 595 1085 z "},"ẅ":{"ha":1003,"x_min":7,"x_max":996,"o":"m 996 720 l 779 0 l 657 0 l 501 529 l 346 0 l 224 0 l 7 720 l 149 720 l 281 171 l 443 720 l 559 720 l 722 171 l 854 720 l 996 720 m 691 848 l 566 848 l 566 987 l 691 987 l 691 848 m 440 848 l 315 848 l 315 987 l 440 987 l 440 848 z "},"Ỳ":{"ha":926,"x_min":7,"x_max":920,"o":"m 920 994 l 529 421 l 529 0 l 397 0 l 397 421 l 7 994 l 167 994 l 464 536 l 760 994 l 920 994 m 514 1057 l 414 1057 l 264 1247 l 424 1247 l 514 1057 z "},"ỳ":{"ha":694,"x_min":18,"x_max":676,"o":"m 135 -174 q 290 0 230 -174 l 18 720 l 157 720 l 347 157 l 538 720 l 676 720 l 404 0 q 337 -159 365 -103 q 266 -253 310 -215 q 157 -292 221 -292 q 74 -282 109 -292 l 74 -164 q 135 -174 104 -174 m 404 821 l 303 821 l 153 1011 l 313 1011 l 404 821 z "},"‛":{"ha":309,"x_min":85,"x_max":224,"o":"m 224 660 q 120 713 155 660 q 85 856 85 766 l 85 994 l 224 994 l 224 856 l 155 856 q 224 725 155 725 l 224 660 z "},"‾":{"ha":694,"x_min":-8,"x_max":703,"o":"m 703 1099 l -8 1099 l -8 1168 l 703 1168 l 703 1099 z "},"₤":{"ha":772,"x_min":33,"x_max":717,"o":"m 290 469 q 306 389 306 404 l 485 389 l 485 302 l 297 302 q 183 135 279 212 q 282 150 231 150 q 434 128 340 150 q 567 106 528 106 q 717 143 644 106 l 717 14 q 572 -17 650 -17 q 422 14 522 -17 q 273 45 323 45 q 33 -17 164 45 l 33 106 q 172 302 157 172 l 33 302 l 33 389 l 175 389 q 160 469 172 420 l 33 469 l 33 555 l 135 555 q 103 728 103 665 q 189 936 103 861 q 411 1011 275 1011 q 621 945 539 1011 q 711 754 703 878 l 579 754 q 408 911 566 911 q 282 860 330 911 q 235 739 235 809 q 268 555 235 687 l 485 555 l 485 469 l 290 469 z "},"℮":{"ha":772,"x_min":49,"x_max":724,"o":"m 724 329 l 182 329 q 241 125 182 194 q 400 56 301 56 q 578 215 578 56 l 710 215 q 611 43 696 102 q 400 -17 526 -17 q 145 82 241 -17 q 49 359 49 182 q 142 636 49 536 q 386 736 235 736 q 632 637 540 736 q 724 359 724 539 l 724 329 m 589 401 q 386 664 589 664 q 184 401 184 664 l 589 401 z "},"⅛":{"ha":1158,"x_min":86,"x_max":1129,"o":"m 336 497 l 238 497 l 238 829 q 86 796 191 796 l 86 880 q 263 1007 263 880 l 336 1007 l 336 497 m 972 994 l 265 0 l 158 0 l 865 994 l 972 994 m 1010 260 q 1129 134 1129 220 q 1072 28 1129 68 q 921 -12 1015 -12 q 770 28 827 -12 q 713 134 713 68 q 832 260 713 220 q 730 380 730 297 q 784 472 730 435 q 921 510 838 510 q 1058 472 1004 510 q 1112 380 1112 435 q 1010 260 1112 297 m 921 300 q 1006 380 1006 334 q 983 416 1006 401 q 921 431 961 431 q 859 416 881 431 q 836 380 836 401 q 921 300 836 334 m 1024 134 q 921 221 1024 186 q 818 134 818 186 q 845 85 818 104 q 921 66 873 66 q 997 85 969 66 q 1024 134 1024 104 z "},"⅜":{"ha":1158,"x_min":37,"x_max":1129,"o":"m 335 764 q 452 642 452 742 q 396 530 452 575 q 246 485 341 485 q 37 631 56 485 l 142 631 q 242 564 150 564 q 346 654 346 564 q 239 724 346 724 l 201 724 l 201 799 q 323 871 323 799 q 241 928 323 928 q 153 872 164 928 l 47 872 q 242 1007 74 1007 q 379 970 330 1007 q 428 880 428 934 q 335 764 428 789 m 1000 994 l 293 0 l 186 0 l 892 994 l 1000 994 m 1010 260 q 1129 134 1129 220 q 1072 28 1129 68 q 921 -12 1015 -12 q 770 28 827 -12 q 713 134 713 68 q 832 260 713 220 q 730 380 730 297 q 784 472 730 435 q 921 510 838 510 q 1058 472 1004 510 q 1112 380 1112 435 q 1010 260 1112 297 m 921 300 q 1006 380 1006 334 q 983 416 1006 401 q 921 431 961 431 q 859 416 881 431 q 836 380 836 401 q 921 300 836 334 m 1024 134 q 921 221 1024 186 q 818 134 818 186 q 845 85 818 104 q 921 66 873 66 q 997 85 969 66 q 1024 134 1024 104 z "},"⅝":{"ha":1158,"x_min":37,"x_max":1129,"o":"m 155 817 q 258 843 193 843 q 398 794 342 843 q 454 665 454 746 q 396 535 454 585 q 239 485 338 485 q 37 627 62 485 l 142 627 q 239 564 154 564 q 349 663 349 564 q 238 760 349 760 q 170 746 205 760 l 136 732 l 59 732 l 86 994 l 424 994 l 424 907 l 164 907 l 155 817 m 1000 994 l 293 0 l 186 0 l 892 994 l 1000 994 m 1010 260 q 1129 134 1129 220 q 1072 28 1129 68 q 921 -12 1015 -12 q 770 28 827 -12 q 713 134 713 68 q 832 260 713 220 q 730 380 730 297 q 784 472 730 435 q 921 510 838 510 q 1058 472 1004 510 q 1112 380 1112 435 q 1010 260 1112 297 m 921 300 q 1006 380 1006 334 q 983 416 1006 401 q 921 431 961 431 q 859 416 881 431 q 836 380 836 401 q 921 300 836 334 m 1024 134 q 921 221 1024 186 q 818 134 818 186 q 845 85 818 104 q 921 66 873 66 q 997 85 969 66 q 1024 134 1024 104 z "},"⅞":{"ha":1158,"x_min":74,"x_max":1129,"o":"m 414 921 l 224 497 l 114 497 l 308 907 l 74 907 l 74 994 l 414 994 l 414 921 m 939 994 l 232 0 l 125 0 l 831 994 l 939 994 m 1010 260 q 1129 134 1129 220 q 1072 28 1129 68 q 921 -12 1015 -12 q 770 28 827 -12 q 713 134 713 68 q 832 260 713 220 q 730 380 730 297 q 784 472 730 435 q 921 510 838 510 q 1058 472 1004 510 q 1112 380 1112 435 q 1010 260 1112 297 m 921 300 q 1006 380 1006 334 q 983 416 1006 401 q 921 431 961 431 q 859 416 881 431 q 836 380 836 401 q 921 300 836 334 m 1024 134 q 921 221 1024 186 q 818 134 818 186 q 845 85 818 104 q 921 66 873 66 q 997 85 969 66 q 1024 134 1024 104 z "},"΄":{"ha":463,"x_min":161,"x_max":300,"o":"m 278 725 l 183 725 l 161 994 l 300 994 l 278 725 z "},"΅":{"ha":570,"x_min":37,"x_max":530,"o":"m 288 1036 l 414 1036 l 278 848 l 199 848 l 288 1036 m 414 978 l 530 978 l 530 848 l 414 848 l 414 978 m 37 978 l 154 978 l 154 848 l 37 848 l 37 978 z "},"Ά":{"ha":926,"x_min":-1,"x_max":928,"o":"m 625 407 l 450 868 l 283 407 l 625 407 m 928 0 l 779 0 l 664 302 l 248 302 l 138 0 l -1 0 l 380 994 l 522 994 l 928 0 m 151 725 l 56 725 l 35 994 l 173 994 l 151 725 z "},"Έ":{"ha":1089,"x_min":35,"x_max":1015,"o":"m 1015 0 l 274 0 l 274 994 l 992 994 l 992 876 l 406 876 l 406 572 l 954 572 l 954 454 l 406 454 l 406 118 l 1015 118 l 1015 0 m 151 725 l 56 725 l 35 994 l 173 994 l 151 725 z "},"Ή":{"ha":1166,"x_min":35,"x_max":1055,"o":"m 1055 0 l 922 0 l 922 468 l 406 468 l 406 0 l 274 0 l 274 994 l 406 994 l 406 586 l 922 586 l 922 994 l 1055 994 l 1055 0 m 151 725 l 56 725 l 35 994 l 173 994 l 151 725 z "},"Ί":{"ha":549,"x_min":35,"x_max":422,"o":"m 422 0 l 290 0 l 290 994 l 422 994 l 422 0 m 151 725 l 56 725 l 35 994 l 173 994 l 151 725 z "},"Ό":{"ha":1146,"x_min":0,"x_max":1082,"o":"m 608 1011 q 949 870 817 1011 q 1082 497 1082 729 q 949 124 1082 265 q 608 -17 817 -17 q 264 124 398 -17 q 131 497 131 266 q 264 870 131 729 q 608 1011 398 1011 m 606 96 q 851 201 755 96 q 946 497 946 307 q 851 793 946 687 q 609 899 756 899 q 363 793 459 899 q 267 497 267 687 q 363 202 267 308 q 606 96 458 96 m 117 725 l 22 725 l 0 994 l 138 994 l 117 725 z "},"Ύ":{"ha":1075,"x_min":0,"x_max":1068,"o":"m 1068 994 l 677 421 l 677 0 l 546 0 l 546 421 l 155 994 l 315 994 l 612 536 l 908 994 l 1068 994 m 117 725 l 22 725 l 0 994 l 138 994 l 117 725 z "},"Ώ":{"ha":1146,"x_min":0,"x_max":1077,"o":"m 1074 0 l 686 0 l 686 111 q 941 521 941 240 q 849 795 941 691 q 606 899 758 899 q 362 795 454 899 q 271 521 271 691 q 526 111 271 240 l 526 0 l 138 0 l 138 118 l 356 118 q 135 543 135 293 q 264 878 135 745 q 606 1011 393 1011 q 948 878 819 1011 q 1077 543 1077 745 q 856 118 1077 293 l 1074 118 l 1074 0 m 117 725 l 22 725 l 0 994 l 138 994 l 117 725 z "},"ΐ":{"ha":555,"x_min":28,"x_max":521,"o":"m 435 -12 q 376 -17 412 -17 q 205 153 205 -17 l 205 720 l 334 720 l 334 163 q 392 89 334 89 q 435 94 407 89 l 435 -12 m 278 1036 l 404 1036 l 269 848 l 189 848 l 278 1036 m 404 978 l 521 978 l 521 848 l 404 848 l 404 978 m 28 978 l 144 978 l 144 848 l 28 848 l 28 978 z "},"Α":{"ha":926,"x_min":-1,"x_max":928,"o":"m 625 407 l 450 868 l 283 407 l 625 407 m 928 0 l 779 0 l 664 302 l 248 302 l 138 0 l -1 0 l 380 994 l 522 994 l 928 0 z "},"Β":{"ha":926,"x_min":111,"x_max":854,"o":"m 854 289 q 760 75 854 149 q 484 0 665 0 l 111 0 l 111 994 l 465 994 q 715 926 624 994 q 806 741 806 859 q 663 528 806 597 q 807 438 759 503 q 854 289 854 372 m 243 578 l 464 578 q 625 613 573 578 q 676 729 676 648 q 626 839 676 802 q 452 876 576 876 l 243 876 l 243 578 m 243 118 l 482 118 q 718 289 718 118 q 664 419 718 378 q 465 460 609 460 l 243 460 l 243 118 z "},"Δ":{"ha":947,"x_min":8,"x_max":939,"o":"m 939 0 l 8 0 l 403 994 l 545 994 l 939 0 m 750 118 l 473 852 l 197 118 l 750 118 z "},"Ε":{"ha":926,"x_min":111,"x_max":852,"o":"m 852 0 l 111 0 l 111 994 l 829 994 l 829 876 l 243 876 l 243 572 l 791 572 l 791 454 l 243 454 l 243 118 l 852 118 l 852 0 z "},"Ζ":{"ha":848,"x_min":25,"x_max":811,"o":"m 811 0 l 25 0 l 25 123 l 643 876 l 82 876 l 82 994 l 794 994 l 794 871 l 176 118 l 811 118 l 811 0 z "},"Η":{"ha":1003,"x_min":111,"x_max":892,"o":"m 892 0 l 760 0 l 760 468 l 243 468 l 243 0 l 111 0 l 111 994 l 243 994 l 243 586 l 760 586 l 760 994 l 892 994 l 892 0 z "},"Ι":{"ha":386,"x_min":127,"x_max":260,"o":"m 260 0 l 127 0 l 127 994 l 260 994 l 260 0 z "},"Κ":{"ha":926,"x_min":111,"x_max":924,"o":"m 924 0 l 750 0 l 397 496 l 243 345 l 243 0 l 111 0 l 111 994 l 243 994 l 243 501 l 728 994 l 905 994 l 489 586 l 924 0 z "},"Λ":{"ha":926,"x_min":-1,"x_max":928,"o":"m 928 0 l 779 0 l 450 868 l 138 0 l -1 0 l 380 994 l 522 994 l 928 0 z "},"Μ":{"ha":1157,"x_min":111,"x_max":1046,"o":"m 1046 0 l 921 0 l 921 846 l 637 0 l 519 0 l 236 846 l 236 0 l 111 0 l 111 994 l 309 994 l 578 165 l 848 994 l 1046 994 l 1046 0 z "},"Ν":{"ha":1003,"x_min":111,"x_max":892,"o":"m 892 0 l 757 0 l 236 785 l 236 0 l 111 0 l 111 994 l 245 994 l 766 210 l 766 994 l 892 994 l 892 0 z "},"Ξ":{"ha":911,"x_min":74,"x_max":838,"o":"m 92 994 l 819 994 l 819 876 l 92 876 l 92 994 m 155 557 l 755 557 l 755 439 l 155 439 l 155 557 m 74 118 l 838 118 l 838 0 l 74 0 l 74 118 z "},"Ο":{"ha":1080,"x_min":65,"x_max":1017,"o":"m 542 1011 q 884 870 751 1011 q 1017 497 1017 729 q 884 124 1017 265 q 542 -17 751 -17 q 199 124 332 -17 q 65 497 65 266 q 199 870 65 729 q 542 1011 332 1011 m 541 96 q 785 201 690 96 q 880 497 880 307 q 785 793 880 687 q 543 899 690 899 q 297 793 393 899 q 201 497 201 687 q 297 202 201 308 q 541 96 393 96 z "},"Π":{"ha":1003,"x_min":111,"x_max":892,"o":"m 892 0 l 760 0 l 760 876 l 243 876 l 243 0 l 111 0 l 111 994 l 892 994 l 892 0 z "},"Ρ":{"ha":926,"x_min":111,"x_max":865,"o":"m 111 994 l 482 994 q 687 971 604 994 q 817 873 769 949 q 865 704 865 798 q 770 475 865 553 q 493 397 674 397 l 243 397 l 243 0 l 111 0 l 111 994 m 243 515 l 494 515 q 675 563 621 515 q 729 700 729 610 q 699 806 729 760 q 624 864 669 852 q 492 876 578 876 l 243 876 l 243 515 z "},"Σ":{"ha":850,"x_min":65,"x_max":783,"o":"m 755 994 l 755 876 l 208 876 l 547 517 l 207 118 l 783 118 l 783 0 l 65 0 l 65 136 l 390 517 l 65 861 l 65 994 l 755 994 z "},"Τ":{"ha":848,"x_min":31,"x_max":818,"o":"m 818 876 l 489 876 l 489 0 l 357 0 l 357 876 l 31 876 l 31 994 l 818 994 l 818 876 z "},"Υ":{"ha":926,"x_min":7,"x_max":920,"o":"m 920 994 l 529 421 l 529 0 l 397 0 l 397 421 l 7 994 l 167 994 l 464 536 l 760 994 l 920 994 z "},"Χ":{"ha":926,"x_min":7,"x_max":920,"o":"m 920 0 l 758 0 l 464 421 l 168 0 l 7 0 l 389 524 l 45 994 l 205 994 l 463 627 l 721 994 l 882 994 l 536 524 l 920 0 z "},"Ψ":{"ha":1124,"x_min":64,"x_max":1060,"o":"m 1060 703 q 948 412 1060 516 q 628 307 836 307 l 628 0 l 496 0 l 496 307 q 176 412 288 307 q 64 703 64 516 l 64 994 l 196 994 l 196 743 q 279 486 196 549 q 496 419 363 423 l 496 994 l 628 994 l 628 419 q 844 486 761 423 q 928 743 928 549 l 928 994 l 1060 994 l 1060 703 z "},"Ω":{"ha":1080,"x_min":69,"x_max":1011,"o":"m 1008 0 l 621 0 l 621 111 q 875 521 875 240 q 784 795 875 691 q 541 899 692 899 q 297 795 388 899 q 205 521 205 691 q 460 111 205 240 l 460 0 l 72 0 l 72 118 l 290 118 q 69 543 69 293 q 198 878 69 745 q 541 1011 328 1011 q 882 878 753 1011 q 1011 543 1011 745 q 790 118 1011 293 l 1008 118 l 1008 0 z "},"Ϊ":{"ha":386,"x_min":5,"x_max":382,"o":"m 260 0 l 127 0 l 127 994 l 260 994 l 260 0 m 382 1084 l 257 1084 l 257 1223 l 382 1223 l 382 1084 m 131 1084 l 5 1084 l 5 1223 l 131 1223 l 131 1084 z "},"Ϋ":{"ha":926,"x_min":7,"x_max":920,"o":"m 920 994 l 529 421 l 529 0 l 397 0 l 397 421 l 7 994 l 167 994 l 464 536 l 760 994 l 920 994 m 652 1084 l 527 1084 l 527 1223 l 652 1223 l 652 1084 m 401 1084 l 275 1084 l 275 1223 l 401 1223 l 401 1084 z "},"ά":{"ha":800,"x_min":49,"x_max":751,"o":"m 624 720 l 751 720 q 689 485 715 606 q 664 359 664 365 q 695 198 664 334 q 751 0 727 62 l 627 0 q 583 132 593 86 q 346 -17 517 -17 q 131 84 212 -17 q 49 361 49 184 q 130 637 49 539 q 347 736 212 736 q 587 599 519 736 q 624 720 605 666 m 559 367 q 506 567 559 498 q 368 636 452 636 q 229 563 277 636 q 180 358 180 489 q 227 162 180 240 q 363 83 274 83 q 504 159 449 83 q 559 367 559 235 m 560 1011 l 410 821 l 310 821 l 400 1011 l 560 1011 z "},"έ":{"ha":694,"x_min":49,"x_max":671,"o":"m 644 554 l 513 554 q 353 636 503 636 q 200 525 200 636 q 233 451 200 484 q 385 419 265 419 l 431 419 l 431 322 l 385 322 q 267 312 304 322 q 205 273 230 302 q 180 200 180 243 q 229 116 180 148 q 361 83 277 83 q 491 116 443 83 q 539 187 539 149 l 671 187 q 578 42 663 100 q 358 -17 493 -17 q 130 44 211 -17 q 49 199 49 106 q 182 375 49 315 q 68 528 68 425 q 144 677 68 619 q 358 736 221 736 q 566 685 488 736 q 644 554 644 633 m 521 1011 l 371 821 l 271 821 l 361 1011 l 521 1011 z "},"ή":{"ha":772,"x_min":94,"x_max":681,"o":"m 222 628 q 437 736 318 736 q 681 471 681 736 l 681 -277 l 553 -277 l 553 465 q 521 592 553 553 q 418 631 490 631 q 222 515 320 631 l 222 0 l 94 0 l 94 720 l 222 720 l 222 628 m 549 1011 l 399 821 l 298 821 l 389 1011 l 549 1011 z "},"ί":{"ha":334,"x_min":82,"x_max":332,"o":"m 323 -12 q 265 -17 301 -17 q 94 153 94 -17 l 94 720 l 222 720 l 222 163 q 281 89 222 89 q 323 94 296 89 l 323 -12 m 332 1011 l 182 821 l 82 821 l 172 1011 l 332 1011 z "},"ΰ":{"ha":772,"x_min":92,"x_max":681,"o":"m 92 720 l 220 720 l 220 290 q 386 83 220 83 q 553 290 553 83 l 553 720 l 681 720 l 681 290 q 603 65 681 147 q 386 -17 525 -17 q 170 65 248 -17 q 92 290 92 147 l 92 720 m 389 1036 l 515 1036 l 380 848 l 300 848 l 389 1036 m 515 978 l 632 978 l 632 848 l 515 848 l 515 978 m 139 978 l 256 978 l 256 848 l 139 848 l 139 978 z "},"β":{"ha":782,"x_min":94,"x_max":733,"o":"m 222 60 l 222 -277 l 94 -277 l 94 710 q 180 934 94 857 q 400 1011 265 1011 q 596 938 519 1011 q 673 761 673 865 q 625 623 673 683 q 486 545 576 562 q 672 455 612 531 q 733 282 733 379 q 650 67 733 151 q 429 -17 566 -17 q 222 60 298 -17 m 351 489 l 321 489 l 321 586 q 472 613 422 586 q 534 674 522 641 q 546 754 546 708 q 503 867 546 823 q 390 911 460 911 q 222 707 222 911 l 222 176 q 416 83 296 83 q 547 135 492 83 q 602 275 602 187 q 538 431 602 374 q 351 489 474 489 z "},"γ":{"ha":750,"x_min":18,"x_max":732,"o":"m 732 720 l 439 0 l 439 -277 l 311 -277 l 311 0 l 18 720 l 157 720 l 375 144 l 593 720 l 732 720 z "},"ζ":{"ha":673,"x_min":49,"x_max":636,"o":"m 636 911 q 299 591 418 760 q 180 281 180 423 q 343 109 180 121 q 602 -94 602 88 q 531 -238 602 -184 q 336 -292 460 -292 l 336 -186 q 484 -94 484 -186 q 332 0 484 -13 q 49 282 49 23 q 167 602 49 434 q 471 895 286 770 l 158 895 l 158 994 l 636 994 l 636 911 z "},"η":{"ha":772,"x_min":94,"x_max":681,"o":"m 222 628 q 437 736 318 736 q 681 471 681 736 l 681 -277 l 553 -277 l 553 465 q 521 592 553 553 q 418 631 490 631 q 222 515 320 631 l 222 0 l 94 0 l 94 720 l 222 720 l 222 628 z "},"θ":{"ha":772,"x_min":62,"x_max":710,"o":"m 386 1011 q 710 497 710 1011 q 386 -17 710 -17 q 62 497 62 -17 q 386 1011 62 1011 m 578 547 q 525 828 573 746 q 386 911 476 911 q 248 828 296 911 q 195 547 199 746 l 578 547 m 578 447 l 195 447 q 247 165 199 246 q 386 83 296 83 q 525 165 476 83 q 578 447 573 246 z "},"ι":{"ha":334,"x_min":94,"x_max":323,"o":"m 323 -12 q 265 -17 301 -17 q 94 153 94 -17 l 94 720 l 222 720 l 222 163 q 281 89 222 89 q 323 94 296 89 l 323 -12 z "},"κ":{"ha":694,"x_min":94,"x_max":689,"o":"m 689 0 l 536 0 l 302 366 l 222 286 l 222 0 l 94 0 l 94 720 l 222 720 l 222 431 l 500 720 l 661 720 l 389 452 l 689 0 z "},"λ":{"ha":694,"x_min":18,"x_max":676,"o":"m 676 0 l 538 0 l 347 562 l 259 307 l 157 0 l 18 0 l 147 352 l 290 720 q 135 893 230 893 q 74 884 104 893 l 74 1002 q 157 1011 109 1011 q 266 973 221 1011 q 338 878 310 935 q 404 720 366 821 l 676 0 z "},"μ":{"ha":772,"x_min":94,"x_max":757,"o":"m 757 -14 q 721 -17 745 -17 q 554 97 585 -17 q 338 -17 463 -17 q 221 16 275 -17 l 222 -277 l 94 -277 l 94 720 l 222 720 l 222 231 q 364 89 222 89 q 458 113 418 89 q 550 204 498 138 l 550 720 l 677 720 l 677 163 q 736 89 677 89 q 757 92 750 89 l 757 -14 z "},"ν":{"ha":694,"x_min":18,"x_max":676,"o":"m 676 720 l 404 0 l 290 0 l 18 720 l 157 720 l 347 157 l 538 720 l 676 720 z "},"ξ":{"ha":673,"x_min":49,"x_max":602,"o":"m 517 530 q 268 459 355 530 q 180 269 180 387 q 343 109 180 121 q 602 -94 602 88 q 531 -238 602 -184 q 336 -292 460 -292 l 336 -186 q 484 -94 484 -186 q 332 0 484 -13 q 49 271 49 22 q 269 559 49 472 q 134 630 182 576 q 86 755 86 684 q 106 833 86 790 q 158 895 127 876 l 69 895 l 69 994 l 524 994 l 524 895 l 387 895 q 214 754 214 895 q 269 664 214 696 q 415 631 323 631 l 517 631 l 517 530 z "},"ο":{"ha":772,"x_min":49,"x_max":724,"o":"m 386 736 q 632 637 540 736 q 724 359 724 539 q 632 82 724 180 q 386 -17 540 -17 q 141 82 233 -17 q 49 359 49 180 q 141 637 49 539 q 386 736 233 736 m 386 83 q 534 153 477 83 q 591 359 591 222 q 534 567 591 497 q 386 636 477 636 q 237 567 294 636 q 180 359 180 497 q 237 153 180 222 q 386 83 294 83 z "},"ρ":{"ha":793,"x_min":94,"x_max":745,"o":"m 94 -277 l 94 350 q 412 736 94 736 q 652 633 560 736 q 745 358 745 530 q 655 84 745 184 q 429 -17 565 -17 q 222 68 300 -17 l 222 -277 l 94 -277 m 612 358 q 553 566 612 496 q 412 636 494 636 q 224 353 224 636 q 412 83 224 83 q 558 153 503 83 q 612 358 612 222 z "},"ς":{"ha":743,"x_min":49,"x_max":704,"o":"m 572 504 q 520 602 570 568 q 400 636 471 636 q 242 566 304 636 q 180 359 180 496 q 439 109 180 129 q 699 -94 699 88 q 628 -238 699 -184 q 433 -292 557 -292 l 433 -186 q 581 -94 581 -186 q 429 0 581 -13 q 146 106 244 14 q 49 359 49 198 q 145 637 49 538 q 400 736 241 736 q 610 677 530 736 q 704 504 690 618 l 572 504 z "},"υ":{"ha":772,"x_min":92,"x_max":681,"o":"m 92 720 l 220 720 l 220 290 q 386 83 220 83 q 553 290 553 83 l 553 720 l 681 720 l 681 290 q 603 65 681 147 q 386 -17 525 -17 q 170 65 248 -17 q 92 290 92 147 l 92 720 z "},"χ":{"ha":725,"x_min":9,"x_max":715,"o":"m 715 -277 l 567 -277 l 363 129 l 158 -277 l 9 -277 l 293 240 l 31 720 l 179 720 l 363 354 l 546 720 l 694 720 l 432 243 l 715 -277 z "},"ψ":{"ha":958,"x_min":92,"x_max":867,"o":"m 867 310 q 543 -17 867 -17 l 543 -277 l 415 -277 l 415 -17 q 92 310 92 -17 l 92 720 l 220 720 l 220 366 q 230 215 220 268 q 282 127 239 162 q 415 86 324 92 l 415 720 l 543 720 l 543 86 q 677 127 635 92 q 729 215 719 162 q 739 366 739 268 l 739 720 l 867 720 l 867 310 z "},"ω":{"ha":958,"x_min":49,"x_max":909,"o":"m 808 720 q 909 347 909 527 q 843 77 909 172 q 664 -17 777 -17 q 479 146 515 -17 q 294 -17 444 -17 q 115 77 181 -17 q 49 347 49 172 q 150 720 49 527 l 273 720 q 176 343 176 519 q 309 83 176 83 q 415 304 415 83 l 415 539 l 543 539 l 543 304 q 650 83 543 83 q 782 343 782 83 q 685 720 782 519 l 808 720 z "},"ϊ":{"ha":403,"x_min":5,"x_max":382,"o":"m 358 -12 q 300 -17 336 -17 q 129 153 129 -17 l 129 720 l 257 720 l 257 163 q 315 89 257 89 q 358 94 330 89 l 358 -12 m 382 848 l 257 848 l 257 987 l 382 987 l 382 848 m 131 848 l 5 848 l 5 987 l 131 987 l 131 848 z "},"ϋ":{"ha":772,"x_min":92,"x_max":681,"o":"m 92 720 l 220 720 l 220 290 q 386 83 220 83 q 553 290 553 83 l 553 720 l 681 720 l 681 290 q 603 65 681 147 q 386 -17 525 -17 q 170 65 248 -17 q 92 290 92 147 l 92 720 m 575 848 l 450 848 l 450 987 l 575 987 l 575 848 m 324 848 l 199 848 l 199 987 l 324 987 l 324 848 z "},"ό":{"ha":772,"x_min":49,"x_max":724,"o":"m 386 736 q 632 637 540 736 q 724 359 724 539 q 632 82 724 180 q 386 -17 540 -17 q 141 82 233 -17 q 49 359 49 180 q 141 637 49 539 q 386 736 233 736 m 386 83 q 534 153 477 83 q 591 359 591 222 q 534 567 591 497 q 386 636 477 636 q 237 567 294 636 q 180 359 180 497 q 237 153 180 222 q 386 83 294 83 m 560 1011 l 410 821 l 310 821 l 400 1011 l 560 1011 z "},"ύ":{"ha":772,"x_min":92,"x_max":681,"o":"m 92 720 l 220 720 l 220 290 q 386 83 220 83 q 553 290 553 83 l 553 720 l 681 720 l 681 290 q 603 65 681 147 q 386 -17 525 -17 q 170 65 248 -17 q 92 290 92 147 l 92 720 m 549 1011 l 399 821 l 298 821 l 389 1011 l 549 1011 z "},"ώ":{"ha":958,"x_min":49,"x_max":909,"o":"m 808 720 q 909 347 909 527 q 843 77 909 172 q 664 -17 777 -17 q 479 146 515 -17 q 294 -17 444 -17 q 115 77 181 -17 q 49 347 49 172 q 150 720 49 527 l 273 720 q 176 343 176 519 q 309 83 176 83 q 415 304 415 83 l 415 539 l 543 539 l 543 304 q 650 83 543 83 q 782 343 782 83 q 685 720 782 519 l 808 720 m 656 1011 l 506 821 l 406 821 l 496 1011 l 656 1011 z "},"Ё":{"ha":926,"x_min":111,"x_max":852,"o":"m 852 0 l 111 0 l 111 994 l 829 994 l 829 876 l 243 876 l 243 572 l 791 572 l 791 454 l 243 454 l 243 118 l 852 118 l 852 0 m 665 1084 l 541 1084 l 541 1223 l 665 1223 l 665 1084 m 414 1084 l 289 1084 l 289 1223 l 414 1223 l 414 1084 z "},"Ђ":{"ha":1111,"x_min":31,"x_max":1042,"o":"m 489 619 q 685 636 589 636 q 946 546 850 636 q 1042 309 1042 456 q 955 79 1042 173 q 730 -16 867 -16 q 591 1 658 -16 l 591 119 q 699 103 650 103 q 850 157 795 103 q 905 304 905 212 q 839 462 905 406 q 653 518 773 518 q 489 505 578 518 l 489 0 l 357 0 l 357 876 l 31 876 l 31 994 l 818 994 l 818 876 l 489 876 l 489 619 z "},"Ѓ":{"ha":787,"x_min":111,"x_max":754,"o":"m 754 876 l 243 876 l 243 0 l 111 0 l 111 994 l 754 994 l 754 876 m 563 1248 l 413 1057 l 313 1057 l 403 1248 l 563 1248 z "},"Є":{"ha":996,"x_min":65,"x_max":932,"o":"m 932 315 q 807 70 918 157 q 528 -17 696 -17 q 191 122 317 -17 q 65 497 65 260 q 191 872 65 734 q 528 1011 317 1011 q 804 924 690 1011 q 932 693 918 836 l 796 693 q 714 843 788 787 q 529 899 641 899 q 309 815 395 899 q 205 572 222 732 l 571 572 l 571 454 l 203 454 q 300 187 213 279 q 526 96 387 96 q 715 153 643 96 q 796 315 787 210 l 932 315 z "},"Ѕ":{"ha":926,"x_min":62,"x_max":854,"o":"m 486 -17 q 172 77 276 -17 q 62 319 68 172 l 189 319 q 282 155 199 208 q 481 102 364 102 q 659 147 591 102 q 726 271 726 193 q 656 390 726 353 q 416 464 587 427 q 171 564 245 500 q 97 736 97 629 q 194 934 97 857 q 450 1011 290 1011 q 722 933 618 1011 q 831 713 825 855 l 703 713 q 456 893 683 893 q 286 852 346 893 q 225 742 225 810 q 274 648 225 680 q 455 588 322 617 q 665 530 587 559 q 799 442 743 502 q 854 281 854 382 q 752 68 854 153 q 486 -17 650 -17 z "},"Ї":{"ha":386,"x_min":5,"x_max":382,"o":"m 260 0 l 127 0 l 127 994 l 260 994 l 260 0 m 382 1084 l 257 1084 l 257 1223 l 382 1223 l 382 1084 m 131 1084 l 5 1084 l 5 1223 l 131 1223 l 131 1084 z "},"Љ":{"ha":1333,"x_min":7,"x_max":1278,"o":"m 298 876 l 298 253 q 103 -16 298 -16 q 7 -5 59 -16 l 7 111 q 77 103 35 103 q 146 138 126 103 q 167 250 167 173 l 167 994 l 708 994 l 708 578 l 888 578 q 1278 289 1278 578 q 1183 75 1278 149 q 907 0 1088 0 l 576 0 l 576 876 l 298 876 m 708 118 l 905 118 q 1141 289 1141 118 q 1087 419 1141 378 q 889 460 1032 460 l 708 460 l 708 118 z "},"Њ":{"ha":1333,"x_min":111,"x_max":1278,"o":"m 722 578 l 888 578 q 1278 289 1278 578 q 1183 75 1278 149 q 907 0 1088 0 l 590 0 l 590 460 l 243 460 l 243 0 l 111 0 l 111 994 l 243 994 l 243 578 l 590 578 l 590 994 l 722 994 l 722 578 m 722 118 l 905 118 q 1141 289 1141 118 q 1087 419 1141 378 q 889 460 1032 460 l 722 460 l 722 118 z "},"Ћ":{"ha":1111,"x_min":31,"x_max":1000,"o":"m 1000 0 l 864 0 l 864 304 q 653 518 864 518 q 489 497 572 518 l 489 0 l 357 0 l 357 876 l 31 876 l 31 994 l 818 994 l 818 876 l 489 876 l 489 608 q 675 636 583 636 q 913 547 827 636 q 1000 309 1000 458 l 1000 0 z "},"Ќ":{"ha":926,"x_min":111,"x_max":924,"o":"m 924 0 l 750 0 l 397 496 l 243 345 l 243 0 l 111 0 l 111 994 l 243 994 l 243 501 l 728 994 l 905 994 l 489 586 l 924 0 m 648 1248 l 498 1057 l 397 1057 l 488 1248 l 648 1248 z "},"Ў":{"ha":889,"x_min":5,"x_max":886,"o":"m 886 994 l 510 268 q 354 38 418 93 q 222 -17 290 -17 q 97 0 153 -17 l 97 123 q 210 102 137 102 q 382 268 294 102 l 193 631 l 5 994 l 154 994 l 300 699 l 446 403 l 737 994 l 886 994 m 647 1239 q 584 1109 639 1155 q 446 1063 530 1063 q 307 1109 361 1063 q 245 1239 252 1156 l 329 1239 q 446 1147 345 1147 q 564 1239 545 1147 l 647 1239 z "},"Џ":{"ha":1003,"x_min":111,"x_max":892,"o":"m 892 0 l 567 0 l 567 -277 l 436 -277 l 436 0 l 111 0 l 111 994 l 243 994 l 243 118 l 760 118 l 760 994 l 892 994 l 892 0 z "},"А":{"ha":926,"x_min":-1,"x_max":928,"o":"m 625 407 l 450 868 l 283 407 l 625 407 m 928 0 l 779 0 l 664 302 l 248 302 l 138 0 l -1 0 l 380 994 l 522 994 l 928 0 z "},"Б":{"ha":909,"x_min":111,"x_max":854,"o":"m 243 578 l 464 578 q 854 289 854 578 q 760 75 854 149 q 484 0 665 0 l 111 0 l 111 994 l 754 994 l 754 876 l 243 876 l 243 578 m 243 118 l 482 118 q 718 289 718 118 q 664 419 718 378 q 465 460 609 460 l 243 460 l 243 118 z "},"В":{"ha":926,"x_min":111,"x_max":854,"o":"m 854 289 q 760 75 854 149 q 484 0 665 0 l 111 0 l 111 994 l 465 994 q 715 926 624 994 q 806 741 806 859 q 663 528 806 597 q 807 438 759 503 q 854 289 854 372 m 243 578 l 464 578 q 625 613 573 578 q 676 729 676 648 q 626 839 676 802 q 452 876 576 876 l 243 876 l 243 578 m 243 118 l 482 118 q 718 289 718 118 q 664 419 718 378 q 465 460 609 460 l 243 460 l 243 118 z "},"Г":{"ha":787,"x_min":111,"x_max":754,"o":"m 754 876 l 243 876 l 243 0 l 111 0 l 111 994 l 754 994 l 754 876 z "},"Д":{"ha":1076,"x_min":24,"x_max":1047,"o":"m 916 118 l 1047 118 l 1047 -232 l 916 -232 l 916 0 l 155 0 l 155 -232 l 24 -232 l 24 118 l 114 118 q 199 357 165 205 q 233 822 233 509 l 233 994 l 916 994 l 916 118 m 783 118 l 783 878 l 366 878 l 366 810 q 333 370 366 524 q 245 118 301 217 l 783 118 z "},"Е":{"ha":926,"x_min":111,"x_max":852,"o":"m 852 0 l 111 0 l 111 994 l 829 994 l 829 876 l 243 876 l 243 572 l 791 572 l 791 454 l 243 454 l 243 118 l 852 118 l 852 0 z "},"Ж":{"ha":1251,"x_min":4,"x_max":1246,"o":"m 1246 0 l 1072 0 l 690 481 l 690 0 l 559 0 l 559 481 l 178 0 l 4 0 l 478 554 l 22 994 l 200 994 l 559 615 l 559 994 l 690 994 l 690 615 l 1050 994 l 1227 994 l 772 554 l 1246 0 z "},"З":{"ha":882,"x_min":61,"x_max":810,"o":"m 593 546 q 754 454 699 522 q 810 293 810 387 q 705 69 810 155 q 428 -17 600 -17 q 169 60 271 -17 q 61 262 68 138 l 193 262 q 254 145 193 194 q 428 96 314 96 q 612 148 547 96 q 677 290 677 199 q 607 428 677 378 q 406 478 536 478 l 329 478 l 329 590 l 416 590 q 628 755 628 590 q 572 862 628 825 q 415 899 515 899 q 205 753 221 899 l 74 753 q 179 945 88 880 q 412 1011 270 1011 q 667 940 574 1011 q 760 753 760 868 q 718 626 760 683 q 593 546 676 568 z "},"И":{"ha":1003,"x_min":111,"x_max":892,"o":"m 892 0 l 766 0 l 766 799 l 245 0 l 111 0 l 111 994 l 236 994 l 236 196 l 757 994 l 892 994 l 892 0 z "},"Й":{"ha":1003,"x_min":111,"x_max":892,"o":"m 892 0 l 766 0 l 766 799 l 245 0 l 111 0 l 111 994 l 236 994 l 236 196 l 757 994 l 892 994 l 892 0 m 703 1239 q 640 1109 694 1155 q 501 1063 585 1063 q 362 1109 416 1063 q 301 1239 308 1156 l 385 1239 q 501 1147 401 1147 q 619 1239 600 1147 l 703 1239 z "},"К":{"ha":926,"x_min":111,"x_max":924,"o":"m 924 0 l 750 0 l 397 496 l 243 345 l 243 0 l 111 0 l 111 994 l 243 994 l 243 501 l 728 994 l 905 994 l 489 586 l 924 0 z "},"Л":{"ha":979,"x_min":7,"x_max":868,"o":"m 868 0 l 736 0 l 736 876 l 298 876 l 298 253 q 103 -16 298 -16 q 7 -5 59 -16 l 7 111 q 77 103 35 103 q 146 138 126 103 q 167 250 167 173 l 167 994 l 868 994 l 868 0 z "},"М":{"ha":1157,"x_min":111,"x_max":1046,"o":"m 1046 0 l 921 0 l 921 846 l 637 0 l 519 0 l 236 846 l 236 0 l 111 0 l 111 994 l 309 994 l 578 165 l 848 994 l 1046 994 l 1046 0 z "},"Н":{"ha":1003,"x_min":111,"x_max":892,"o":"m 892 0 l 760 0 l 760 468 l 243 468 l 243 0 l 111 0 l 111 994 l 243 994 l 243 586 l 760 586 l 760 994 l 892 994 l 892 0 z "},"О":{"ha":1080,"x_min":65,"x_max":1017,"o":"m 542 1011 q 884 870 751 1011 q 1017 497 1017 729 q 884 124 1017 265 q 542 -17 751 -17 q 199 124 332 -17 q 65 497 65 266 q 199 870 65 729 q 542 1011 332 1011 m 541 96 q 785 201 690 96 q 880 497 880 307 q 785 793 880 687 q 543 899 690 899 q 297 793 393 899 q 201 497 201 687 q 297 202 201 308 q 541 96 393 96 z "},"П":{"ha":1003,"x_min":111,"x_max":892,"o":"m 892 0 l 760 0 l 760 876 l 243 876 l 243 0 l 111 0 l 111 994 l 892 994 l 892 0 z "},"Р":{"ha":926,"x_min":111,"x_max":865,"o":"m 111 994 l 482 994 q 687 971 604 994 q 817 873 769 949 q 865 704 865 798 q 770 475 865 553 q 493 397 674 397 l 243 397 l 243 0 l 111 0 l 111 994 m 243 515 l 494 515 q 675 563 621 515 q 729 700 729 610 q 699 806 729 760 q 624 864 669 852 q 492 876 578 876 l 243 876 l 243 515 z "},"С":{"ha":1003,"x_min":65,"x_max":932,"o":"m 528 -17 q 191 122 317 -17 q 65 497 65 260 q 191 872 65 734 q 528 1011 317 1011 q 804 924 690 1011 q 932 693 918 836 l 796 693 q 714 843 788 787 q 529 899 641 899 q 290 794 378 899 q 201 497 201 690 q 289 200 201 304 q 526 96 376 96 q 715 153 643 96 q 796 315 787 210 l 932 315 q 807 70 918 157 q 528 -17 696 -17 z "},"Т":{"ha":848,"x_min":31,"x_max":818,"o":"m 818 876 l 489 876 l 489 0 l 357 0 l 357 876 l 31 876 l 31 994 l 818 994 l 818 876 z "},"У":{"ha":889,"x_min":5,"x_max":886,"o":"m 886 994 l 510 268 q 354 38 418 93 q 222 -17 290 -17 q 97 0 153 -17 l 97 123 q 210 102 137 102 q 382 268 294 102 l 193 631 l 5 994 l 154 994 l 300 699 l 446 403 l 737 994 l 886 994 z "},"Ф":{"ha":1179,"x_min":65,"x_max":1114,"o":"m 656 888 q 995 784 876 888 q 1114 501 1114 680 q 995 224 1114 325 q 656 123 877 123 l 656 -8 l 524 -8 l 524 123 q 184 224 302 123 q 65 501 65 325 q 184 784 65 680 q 524 888 304 888 l 524 996 l 656 996 l 656 888 m 656 235 q 898 297 818 235 q 978 505 978 359 q 898 712 978 648 q 656 777 817 777 l 656 235 m 524 235 l 524 777 q 282 712 362 777 q 201 505 201 648 q 281 297 201 359 q 524 235 361 235 z "},"Х":{"ha":926,"x_min":7,"x_max":920,"o":"m 920 0 l 758 0 l 464 421 l 168 0 l 7 0 l 389 524 l 45 994 l 205 994 l 463 627 l 721 994 l 882 994 l 536 524 l 920 0 z "},"Ц":{"ha":1039,"x_min":111,"x_max":1010,"o":"m 1010 -277 l 892 -277 l 892 0 l 111 0 l 111 994 l 243 994 l 243 118 l 760 118 l 760 994 l 892 994 l 892 118 l 1010 118 l 1010 -277 z "},"Ч":{"ha":950,"x_min":81,"x_max":839,"o":"m 81 994 l 216 994 l 216 663 q 428 453 216 453 q 707 522 585 453 l 707 994 l 839 994 l 839 0 l 707 0 l 707 410 q 406 335 562 335 q 167 422 254 335 q 81 659 81 509 l 81 994 z "},"Ш":{"ha":1194,"x_min":111,"x_max":1083,"o":"m 111 0 l 111 994 l 243 994 l 243 118 l 532 118 l 532 994 l 664 994 l 664 118 l 951 118 l 951 994 l 1083 994 l 1083 0 l 111 0 z "},"Щ":{"ha":1231,"x_min":111,"x_max":1198,"o":"m 1083 0 l 111 0 l 111 994 l 243 994 l 243 118 l 532 118 l 532 994 l 664 994 l 664 118 l 951 118 l 951 994 l 1083 994 l 1083 117 l 1198 117 l 1198 -277 l 1083 -277 l 1083 0 z "},"Ъ":{"ha":1083,"x_min":0,"x_max":1028,"o":"m 458 578 l 637 578 q 1028 289 1028 578 q 933 75 1028 149 q 657 0 838 0 l 326 0 l 326 876 l 0 876 l 0 994 l 458 994 l 458 578 m 458 118 l 656 118 q 892 289 892 118 q 837 419 892 378 q 639 460 783 460 l 458 460 l 458 118 z "},"Ы":{"ha":1226,"x_min":111,"x_max":1116,"o":"m 243 578 l 464 578 q 854 289 854 578 q 760 75 854 149 q 484 0 665 0 l 111 0 l 111 994 l 243 994 l 243 578 m 243 118 l 482 118 q 718 289 718 118 q 664 419 718 378 q 465 460 609 460 l 243 460 l 243 118 m 1116 0 l 983 0 l 983 994 l 1116 994 l 1116 0 z "},"Ь":{"ha":909,"x_min":111,"x_max":854,"o":"m 243 578 l 464 578 q 854 289 854 578 q 760 75 854 149 q 484 0 665 0 l 111 0 l 111 994 l 243 994 l 243 578 m 243 118 l 482 118 q 718 289 718 118 q 664 419 718 378 q 465 460 609 460 l 243 460 l 243 118 z "},"Э":{"ha":996,"x_min":64,"x_max":930,"o":"m 64 693 q 192 924 78 836 q 468 1011 306 1011 q 805 872 679 1011 q 930 497 930 734 q 805 122 930 260 q 468 -17 679 -17 q 189 70 299 -17 q 64 315 78 157 l 200 315 q 281 153 209 210 q 469 96 353 96 q 696 187 609 96 q 793 454 783 279 l 425 454 l 425 572 l 790 572 q 687 815 773 732 q 467 899 601 899 q 281 843 355 899 q 200 693 208 787 l 64 693 z "},"Ю":{"ha":1397,"x_min":111,"x_max":1332,"o":"m 437 550 q 579 889 455 767 q 885 1011 703 1011 q 1207 870 1082 1011 q 1332 497 1332 730 q 1207 124 1332 264 q 885 -17 1082 -17 q 583 102 705 -17 q 439 432 460 220 l 243 432 l 243 0 l 111 0 l 111 994 l 243 994 l 243 550 l 437 550 m 884 96 q 1109 201 1023 96 q 1196 497 1196 306 q 1110 793 1196 688 q 886 899 1024 899 q 659 793 746 899 q 572 497 572 688 q 659 201 572 307 q 884 96 745 96 z "},"Я":{"ha":1003,"x_min":62,"x_max":892,"o":"m 892 0 l 760 0 l 760 425 l 517 425 q 381 380 440 425 q 298 265 323 334 l 205 0 l 62 0 l 163 271 q 321 450 217 418 l 321 453 q 157 543 216 474 q 97 715 97 612 q 143 878 97 806 q 263 972 189 949 q 452 994 336 994 l 892 994 l 892 0 m 760 543 l 760 885 l 446 885 q 233 715 233 885 q 289 582 233 621 q 467 543 344 543 l 760 543 z "},"а":{"ha":772,"x_min":53,"x_max":677,"o":"m 550 189 l 550 349 l 463 349 q 184 197 184 349 q 225 113 184 142 q 335 83 266 83 q 457 112 398 83 q 550 189 516 140 m 550 74 q 298 -17 452 -17 q 122 41 191 -17 q 53 191 53 99 q 488 443 53 443 l 550 443 q 542 555 550 520 q 496 613 534 590 q 378 636 459 636 q 201 514 207 636 l 74 514 q 385 736 88 736 q 600 681 523 736 q 677 465 677 626 l 677 0 l 550 0 l 550 74 z "},"б":{"ha":796,"x_min":64,"x_max":739,"o":"m 170 586 q 269 684 204 648 q 401 720 333 720 q 646 622 553 720 q 739 351 739 524 q 646 81 739 179 q 401 -17 553 -17 q 64 449 64 -17 q 156 862 64 729 q 481 994 249 994 q 582 1003 562 994 q 603 1039 603 1011 l 730 1039 q 712 937 730 968 q 643 889 694 905 q 472 872 592 872 q 225 779 281 872 q 170 586 170 686 m 401 83 q 549 151 490 83 q 607 351 607 219 q 549 551 607 484 q 401 619 490 619 q 254 551 313 619 q 196 351 196 484 q 254 151 196 219 q 401 83 313 83 z "},"в":{"ha":737,"x_min":94,"x_max":684,"o":"m 431 0 l 94 0 l 94 720 l 386 720 q 652 529 652 720 q 558 374 652 416 q 684 201 684 336 q 616 55 684 110 q 431 0 548 0 m 222 619 l 222 418 l 374 418 q 489 441 454 418 q 524 518 524 465 q 487 595 524 570 q 364 619 451 619 l 222 619 m 222 318 l 222 100 l 390 100 q 551 208 551 100 q 379 318 551 318 l 222 318 z "},"г":{"ha":532,"x_min":94,"x_max":518,"o":"m 222 619 l 222 0 l 94 0 l 94 720 l 518 720 l 518 619 l 222 619 z "},"д":{"ha":810,"x_min":0,"x_max":794,"o":"m 690 100 l 794 100 l 794 -193 l 667 -193 l 667 0 l 127 0 l 127 -193 l 0 -193 l 0 100 l 64 100 q 189 685 189 277 l 189 720 l 690 720 l 690 100 m 562 619 l 317 619 q 207 100 302 271 l 562 100 l 562 619 z "},"е":{"ha":772,"x_min":49,"x_max":724,"o":"m 400 -17 q 145 82 241 -17 q 49 359 49 182 q 142 636 49 536 q 386 736 235 736 q 632 637 540 736 q 724 359 724 539 l 724 329 l 182 329 q 251 144 190 204 q 400 83 311 83 q 521 118 467 83 q 578 215 575 152 l 710 215 q 609 43 695 104 q 400 -17 524 -17 m 589 429 q 519 585 573 533 q 386 636 465 636 q 254 585 309 636 q 184 429 199 534 l 589 429 z "},"ж":{"ha":983,"x_min":3,"x_max":981,"o":"m 981 0 l 828 0 l 555 306 l 555 0 l 428 0 l 428 306 l 155 0 l 3 0 l 351 379 l 28 720 l 182 720 l 428 449 l 428 720 l 555 720 l 555 449 l 802 720 l 956 720 l 632 379 l 981 0 z "},"з":{"ha":694,"x_min":24,"x_max":646,"o":"m 513 375 q 646 199 646 315 q 565 44 646 106 q 336 -17 484 -17 q 117 42 201 -17 q 24 187 32 100 l 155 187 q 203 116 155 149 q 334 83 252 83 q 466 116 418 83 q 514 200 514 148 q 489 273 514 244 q 427 312 464 302 q 310 322 390 322 l 264 322 l 264 419 l 310 419 q 462 451 429 419 q 494 525 494 484 q 342 636 494 636 q 182 554 192 636 l 50 554 q 128 685 50 633 q 336 736 206 736 q 550 677 473 736 q 627 528 627 619 q 513 375 627 425 z "},"и":{"ha":777,"x_min":94,"x_max":682,"o":"m 94 0 l 94 720 l 222 720 l 222 172 l 545 720 l 682 720 l 682 0 l 554 0 l 554 547 l 232 0 l 94 0 z "},"й":{"ha":777,"x_min":94,"x_max":682,"o":"m 94 0 l 94 720 l 222 720 l 222 172 l 545 720 l 682 720 l 682 0 l 554 0 l 554 547 l 232 0 l 94 0 m 589 1003 q 526 873 581 919 q 387 827 471 827 q 248 873 302 827 q 187 1003 194 920 l 271 1003 q 387 911 287 911 q 505 1003 486 911 l 589 1003 z "},"к":{"ha":694,"x_min":94,"x_max":689,"o":"m 689 0 l 536 0 l 306 351 l 222 264 l 222 0 l 94 0 l 94 720 l 222 720 l 222 412 l 500 720 l 661 720 l 389 436 l 689 0 z "},"л":{"ha":793,"x_min":7,"x_max":699,"o":"m 150 720 l 699 720 l 699 0 l 571 0 l 571 619 l 278 619 l 278 244 q 229 42 278 90 q 93 -7 180 -7 q 7 0 41 -7 l 7 103 q 78 93 43 93 q 135 123 120 93 q 150 241 150 153 l 150 720 z "},"м":{"ha":991,"x_min":94,"x_max":897,"o":"m 94 0 l 94 720 l 281 720 l 496 160 l 711 720 l 897 720 l 897 0 l 770 0 l 770 564 l 553 0 l 439 0 l 222 564 l 222 0 l 94 0 z "},"н":{"ha":772,"x_min":94,"x_max":677,"o":"m 94 0 l 94 720 l 222 720 l 222 421 l 550 421 l 550 720 l 677 720 l 677 0 l 550 0 l 550 321 l 222 321 l 222 0 l 94 0 z "},"о":{"ha":772,"x_min":49,"x_max":724,"o":"m 386 736 q 632 637 540 736 q 724 359 724 539 q 632 82 724 180 q 386 -17 540 -17 q 141 82 233 -17 q 49 359 49 180 q 141 637 49 539 q 386 736 233 736 m 386 83 q 534 153 477 83 q 591 359 591 222 q 534 567 591 497 q 386 636 477 636 q 237 567 294 636 q 180 359 180 497 q 237 153 180 222 q 386 83 294 83 z "},"п":{"ha":772,"x_min":94,"x_max":677,"o":"m 94 0 l 94 720 l 677 720 l 677 0 l 550 0 l 550 619 l 222 619 l 222 0 l 94 0 z "},"р":{"ha":772,"x_min":94,"x_max":724,"o":"m 222 633 q 428 736 308 736 q 646 636 569 736 q 724 366 724 536 q 637 86 724 189 q 419 -17 551 -17 q 222 56 302 -17 l 222 -277 l 94 -277 l 94 720 l 222 720 l 222 633 m 222 171 q 411 83 304 83 q 543 154 494 83 q 591 366 591 225 q 545 567 591 498 q 416 636 499 636 q 222 513 310 636 l 222 171 z "},"с":{"ha":694,"x_min":49,"x_max":676,"o":"m 386 -17 q 141 82 233 -17 q 49 359 49 180 q 141 637 49 539 q 386 736 233 736 q 583 676 504 736 q 676 504 662 616 l 545 504 q 496 602 542 568 q 386 636 450 636 q 237 567 294 636 q 180 359 180 497 q 237 153 180 222 q 386 83 294 83 q 496 117 450 83 q 545 215 542 151 l 676 215 q 583 43 662 102 q 386 -17 504 -17 z "},"т":{"ha":636,"x_min":25,"x_max":611,"o":"m 25 619 l 25 720 l 611 720 l 611 619 l 382 619 l 382 0 l 254 0 l 254 619 l 25 619 z "},"у":{"ha":694,"x_min":18,"x_max":676,"o":"m 135 -174 q 290 0 230 -174 l 150 370 l 18 720 l 157 720 l 269 387 l 347 157 l 538 720 l 676 720 l 404 0 q 337 -159 365 -103 q 266 -253 310 -215 q 157 -292 221 -292 q 74 -282 109 -292 l 74 -164 q 135 -174 104 -174 z "},"ф":{"ha":1145,"x_min":49,"x_max":1096,"o":"m 636 681 q 806 736 695 736 q 1015 634 935 736 q 1096 354 1096 532 q 1019 81 1096 180 q 814 -17 942 -17 q 636 58 694 -17 l 636 -277 l 509 -277 l 509 58 q 330 -17 450 -17 q 126 81 203 -17 q 49 354 49 180 q 130 634 49 532 q 339 736 210 736 q 509 681 449 736 l 509 994 l 636 994 l 636 681 m 636 566 l 636 200 q 691 118 648 153 q 791 83 734 83 q 964 354 964 83 q 919 565 964 494 q 791 636 873 636 q 636 566 688 636 m 509 200 l 509 566 q 353 636 457 636 q 226 565 271 636 q 180 354 180 494 q 353 83 180 83 q 466 129 422 83 q 509 200 509 174 z "},"х":{"ha":694,"x_min":9,"x_max":685,"o":"m 685 0 l 526 0 l 347 281 l 168 0 l 9 0 l 275 374 l 31 720 l 189 720 l 347 468 l 505 720 l 664 720 l 419 375 l 685 0 z "},"ц":{"ha":798,"x_min":94,"x_max":782,"o":"m 677 100 l 782 100 l 782 -193 l 654 -193 l 654 0 l 94 0 l 94 720 l 222 720 l 222 100 l 550 100 l 550 720 l 677 720 l 677 100 z "},"ч":{"ha":741,"x_min":64,"x_max":646,"o":"m 64 507 l 64 720 l 192 720 l 192 528 q 226 394 192 433 q 347 355 260 355 q 518 395 425 355 l 518 720 l 646 720 l 646 0 l 518 0 l 518 290 q 318 256 422 256 q 64 507 64 256 z "},"ш":{"ha":1114,"x_min":94,"x_max":1019,"o":"m 1019 0 l 94 0 l 94 720 l 222 720 l 222 100 l 493 100 l 493 720 l 621 720 l 621 100 l 892 100 l 892 720 l 1019 720 l 1019 0 z "},"щ":{"ha":1139,"x_min":94,"x_max":1124,"o":"m 996 0 l 94 0 l 94 720 l 222 720 l 222 100 l 493 100 l 493 720 l 621 720 l 621 100 l 892 100 l 892 720 l 1019 720 l 1019 100 l 1124 100 l 1124 -193 l 996 -193 l 996 0 z "},"ъ":{"ha":861,"x_min":0,"x_max":817,"o":"m 357 439 l 518 439 q 738 380 660 439 q 817 220 817 321 q 738 59 817 118 q 518 0 660 0 l 229 0 l 229 619 l 0 619 l 0 720 l 357 720 l 357 439 m 357 100 l 513 100 q 685 220 685 100 q 513 339 685 339 l 357 339 l 357 100 z "},"ы":{"ha":996,"x_min":94,"x_max":902,"o":"m 222 439 l 383 439 q 604 380 525 439 q 682 220 682 321 q 604 59 682 118 q 383 0 525 0 l 94 0 l 94 720 l 222 720 l 222 439 m 222 100 l 378 100 q 550 220 550 100 q 378 339 550 339 l 222 339 l 222 100 m 902 0 l 774 0 l 774 720 l 902 720 l 902 0 z "},"ь":{"ha":726,"x_min":94,"x_max":682,"o":"m 222 439 l 383 439 q 604 380 525 439 q 682 220 682 321 q 604 59 682 118 q 383 0 525 0 l 94 0 l 94 720 l 222 720 l 222 439 m 222 100 l 378 100 q 550 220 550 100 q 378 339 550 339 l 222 339 l 222 100 z "},"э":{"ha":694,"x_min":18,"x_max":646,"o":"m 18 504 q 112 676 33 616 q 309 736 191 736 q 554 637 462 736 q 646 359 646 539 q 554 82 646 180 q 309 -17 462 -17 q 112 43 191 -17 q 18 215 33 102 l 150 215 q 198 117 153 151 q 309 83 244 83 q 445 139 390 83 q 511 309 500 195 l 252 309 l 252 408 l 511 408 q 445 580 500 524 q 309 636 389 636 q 198 602 244 636 q 150 504 153 568 l 18 504 z "},"ю":{"ha":1034,"x_min":94,"x_max":985,"o":"m 363 419 q 459 655 377 574 q 672 736 542 736 q 901 638 817 736 q 985 359 985 540 q 901 81 985 180 q 672 -17 817 -17 q 455 69 538 -17 q 361 319 372 155 l 222 319 l 222 0 l 94 0 l 94 720 l 222 720 l 222 419 l 363 419 m 672 83 q 804 153 755 83 q 852 359 852 222 q 804 567 852 497 q 672 636 755 636 q 540 567 589 636 q 492 359 492 497 q 540 153 492 222 q 672 83 589 83 z "},"я":{"ha":753,"x_min":36,"x_max":659,"o":"m 326 720 l 659 720 l 659 0 l 530 0 l 530 281 l 416 281 q 329 253 363 281 q 261 158 294 224 l 183 0 l 36 0 l 134 180 q 260 297 181 271 q 68 510 68 336 q 136 663 68 607 q 326 720 205 720 m 530 380 l 530 619 l 346 619 q 200 505 200 619 q 380 380 200 380 l 530 380 z "},"ё":{"ha":772,"x_min":49,"x_max":724,"o":"m 400 -17 q 145 82 241 -17 q 49 359 49 182 q 142 636 49 536 q 386 736 235 736 q 632 637 540 736 q 724 359 724 539 l 724 329 l 182 329 q 251 144 190 204 q 400 83 311 83 q 521 118 467 83 q 578 215 575 152 l 710 215 q 609 43 695 104 q 400 -17 524 -17 m 589 429 q 519 585 573 533 q 386 636 465 636 q 254 585 309 636 q 184 429 199 534 l 589 429 m 575 848 l 450 848 l 450 987 l 575 987 l 575 848 m 324 848 l 199 848 l 199 987 l 324 987 l 324 848 z "},"ђ":{"ha":772,"x_min":0,"x_max":681,"o":"m 681 -25 q 632 -228 681 -179 q 496 -277 583 -277 q 410 -269 444 -277 l 410 -161 q 481 -171 446 -171 q 538 -141 523 -171 q 553 -22 553 -111 l 553 465 q 521 592 553 553 q 418 631 490 631 q 222 515 320 631 l 222 0 l 94 0 l 94 829 l 0 829 l 0 918 l 94 918 l 94 994 l 222 994 l 222 918 l 421 918 l 421 829 l 222 829 l 222 628 q 437 736 318 736 q 681 471 681 736 l 681 -25 z "},"ѓ":{"ha":532,"x_min":94,"x_max":518,"o":"m 222 619 l 222 0 l 94 0 l 94 720 l 518 720 l 518 619 l 222 619 m 473 1011 l 323 821 l 222 821 l 313 1011 l 473 1011 z "},"є":{"ha":694,"x_min":49,"x_max":676,"o":"m 676 215 q 583 43 662 102 q 386 -17 504 -17 q 141 82 233 -17 q 49 359 49 180 q 141 637 49 539 q 386 736 233 736 q 583 676 504 736 q 676 504 662 616 l 545 504 q 496 602 542 568 q 386 636 450 636 q 250 580 306 636 q 183 408 194 524 l 443 408 l 443 309 l 183 309 q 249 139 194 195 q 386 83 304 83 q 496 117 450 83 q 545 215 542 151 l 676 215 z "},"ѕ":{"ha":694,"x_min":43,"x_max":640,"o":"m 351 -17 q 43 215 56 -17 l 171 215 q 350 83 172 83 q 471 116 429 83 q 513 199 513 149 q 472 268 513 248 q 304 319 431 288 q 118 391 177 351 q 60 529 60 430 q 133 677 60 618 q 328 736 205 736 q 616 534 610 736 l 489 534 q 336 636 482 636 q 230 612 272 636 q 187 541 187 587 q 220 480 187 498 q 383 430 252 461 q 577 356 513 398 q 640 211 640 314 q 562 48 640 113 q 351 -17 484 -17 z "},"ї":{"ha":317,"x_min":-29,"x_max":347,"o":"m 222 0 l 94 0 l 94 720 l 222 720 l 222 0 m 347 848 l 222 848 l 222 987 l 347 987 l 347 848 m 96 848 l -29 848 l -29 987 l 96 987 l 96 848 z "},"љ":{"ha":1200,"x_min":7,"x_max":1156,"o":"m 696 439 l 857 439 q 1077 380 998 439 q 1156 220 1156 321 q 1077 59 1156 118 q 857 0 998 0 l 568 0 l 568 619 l 278 619 l 278 248 q 229 44 278 93 q 93 -4 180 -4 q 7 3 41 -4 l 7 111 q 78 102 43 102 q 135 131 120 102 q 150 250 150 161 l 150 720 l 696 720 l 696 439 m 696 100 l 851 100 q 1023 220 1023 100 q 851 339 1023 339 l 696 339 l 696 100 z "},"њ":{"ha":1145,"x_min":94,"x_max":1100,"o":"m 640 439 l 802 439 q 1021 380 943 439 q 1100 220 1100 321 q 1021 59 1100 118 q 802 0 943 0 l 513 0 l 513 339 l 222 339 l 222 0 l 94 0 l 94 720 l 222 720 l 222 439 l 513 439 l 513 720 l 640 720 l 640 439 m 640 100 l 796 100 q 968 220 968 100 q 796 339 968 339 l 640 339 l 640 100 z "},"ћ":{"ha":772,"x_min":0,"x_max":681,"o":"m 681 0 l 553 0 l 553 465 q 521 592 553 553 q 418 631 490 631 q 222 515 320 631 l 222 0 l 94 0 l 94 829 l 0 829 l 0 918 l 94 918 l 94 994 l 222 994 l 222 918 l 421 918 l 421 829 l 222 829 l 222 628 q 437 736 318 736 q 681 471 681 736 l 681 0 z "},"ќ":{"ha":694,"x_min":94,"x_max":689,"o":"m 689 0 l 536 0 l 306 351 l 222 264 l 222 0 l 94 0 l 94 720 l 222 720 l 222 412 l 500 720 l 661 720 l 389 436 l 689 0 m 510 1011 l 360 821 l 260 821 l 350 1011 l 510 1011 z "},"ў":{"ha":694,"x_min":18,"x_max":676,"o":"m 135 -174 q 290 0 230 -174 l 150 370 l 18 720 l 157 720 l 269 387 l 347 157 l 538 720 l 676 720 l 404 0 q 337 -159 365 -103 q 266 -253 310 -215 q 157 -292 221 -292 q 74 -282 109 -292 l 74 -164 q 135 -174 104 -174 m 549 1003 q 486 873 541 919 q 347 827 431 827 q 208 873 262 827 q 147 1003 154 920 l 231 1003 q 347 911 247 911 q 465 1003 446 911 l 549 1003 z "},"џ":{"ha":772,"x_min":94,"x_max":677,"o":"m 322 0 l 94 0 l 94 720 l 222 720 l 222 100 l 550 100 l 550 720 l 677 720 l 677 0 l 450 0 l 450 -193 l 322 -193 l 322 0 z "},"Ґ":{"ha":772,"x_min":111,"x_max":737,"o":"m 111 994 l 606 994 l 606 1226 l 737 1226 l 737 876 l 243 876 l 243 0 l 111 0 l 111 994 z "},"ґ":{"ha":646,"x_min":94,"x_max":615,"o":"m 94 720 l 488 720 l 488 925 l 615 925 l 615 618 l 222 618 l 222 0 l 94 0 l 94 720 z "},"―":{"ha":766,"x_min":-8,"x_max":774,"o":"m 774 1099 l -8 1099 l -8 1168 l 774 1168 l 774 1099 z "},"№":{"ha":1386,"x_min":97,"x_max":1340,"o":"m 758 0 l 624 0 l 222 775 l 222 0 l 97 0 l 97 994 l 232 994 l 633 220 l 633 994 l 758 994 l 758 0 m 1096 879 q 1272 801 1204 879 q 1340 607 1340 724 q 1272 413 1340 490 q 1096 335 1204 335 q 920 413 988 335 q 851 607 851 490 q 920 801 851 724 q 1096 879 988 879 m 1096 428 q 1190 479 1154 428 q 1226 607 1226 530 q 1190 735 1226 684 q 1096 786 1154 786 q 1002 735 1038 786 q 965 607 965 684 q 1002 479 965 530 q 1096 428 1038 428 m 1326 172 l 865 172 l 865 265 l 1326 265 l 1326 172 z "},"π":{"ha":772,"x_min":94,"x_max":677,"o":"m 677 0 l 550 0 l 550 619 l 222 619 l 222 0 l 94 0 l 94 720 l 677 720 l 677 0 z "},"Ș":{"ha":926,"x_min":62,"x_max":854,"o":"m 486 -17 q 172 77 276 -17 q 62 319 68 172 l 189 319 q 282 155 199 208 q 481 102 364 102 q 659 147 591 102 q 726 271 726 193 q 656 390 726 353 q 416 464 587 427 q 171 564 245 500 q 97 736 97 629 q 194 934 97 857 q 450 1011 290 1011 q 722 933 618 1011 q 831 713 825 855 l 703 713 q 456 893 683 893 q 286 852 346 893 q 225 742 225 810 q 274 648 225 680 q 455 588 322 617 q 665 530 587 559 q 799 442 743 502 q 854 281 854 382 q 752 68 854 153 q 486 -17 650 -17 m 527 -186 q 416 -292 527 -292 l 416 -243 q 457 -233 444 -243 q 471 -186 471 -223 l 416 -186 l 416 -75 l 527 -75 l 527 -186 z "},"ș":{"ha":694,"x_min":43,"x_max":640,"o":"m 351 -17 q 43 215 56 -17 l 171 215 q 350 83 172 83 q 471 116 429 83 q 513 199 513 149 q 472 268 513 248 q 304 319 431 288 q 118 391 177 351 q 60 529 60 430 q 133 677 60 618 q 328 736 205 736 q 616 534 610 736 l 489 534 q 336 636 482 636 q 230 612 272 636 q 187 541 187 587 q 220 480 187 498 q 383 430 252 461 q 577 356 513 398 q 640 211 640 314 q 562 48 640 113 q 351 -17 484 -17 m 404 -186 q 293 -292 404 -292 l 293 -243 q 335 -233 321 -243 q 349 -186 349 -223 l 293 -186 l 293 -75 l 404 -75 l 404 -186 z "},"€":{"ha":772,"x_min":0,"x_max":699,"o":"m 699 317 q 386 -17 668 -17 q 69 355 111 -17 l 0 355 l 0 428 l 64 428 q 62 496 62 448 q 64 561 62 542 l 0 561 l 0 633 l 69 633 q 386 1011 109 1011 q 599 929 519 1011 q 699 696 680 847 l 567 696 q 510 854 557 797 q 386 911 462 911 q 201 633 231 911 l 408 633 l 387 561 l 196 561 q 195 496 195 542 q 196 428 195 448 l 347 428 l 326 355 l 201 355 q 386 83 231 83 q 567 317 545 83 l 699 317 z "},"ְ":{"ha":0,"x_min":0,"x_max":100,"o":"m 51 -41 q 85 -56 71 -41 q 100 -92 100 -71 q 85 -126 100 -112 q 51 -140 71 -140 q 15 -126 30 -140 q 0 -92 0 -112 q 15 -56 0 -71 q 51 -41 30 -41 m 51 -180 q 85 -195 71 -180 q 100 -229 100 -209 q 86 -265 100 -250 q 51 -279 72 -279 q 15 -265 30 -279 q 0 -229 0 -250 q 15 -195 0 -209 q 51 -180 30 -180 z "},"ֱ":{"ha":0,"x_min":0,"x_max":391,"o":"m 342 -41 q 377 -56 363 -41 q 391 -92 391 -71 q 377 -126 391 -112 q 342 -140 363 -140 q 307 -126 322 -140 q 292 -92 292 -112 q 307 -56 292 -71 q 342 -41 322 -41 m 200 -41 q 235 -56 220 -41 q 249 -92 249 -71 q 235 -126 249 -112 q 200 -140 220 -140 q 164 -126 179 -140 q 149 -92 149 -112 q 164 -56 149 -71 q 200 -41 179 -41 m 50 -41 q 86 -56 71 -41 q 101 -92 101 -71 q 86 -126 101 -112 q 50 -140 71 -140 q 15 -126 30 -140 q 0 -92 0 -112 q 15 -56 0 -71 q 50 -41 30 -41 m 342 -180 q 377 -195 363 -180 q 391 -229 391 -209 q 377 -265 391 -250 q 342 -279 363 -279 q 307 -265 322 -279 q 292 -229 292 -250 q 307 -195 292 -209 q 342 -180 322 -180 m 125 -180 q 160 -195 145 -180 q 175 -229 175 -209 q 160 -265 175 -250 q 125 -279 146 -279 q 90 -265 104 -279 q 75 -229 75 -250 q 90 -195 75 -209 q 125 -180 104 -180 z "},"ֲ":{"ha":0,"x_min":0,"x_max":368,"o":"m 319 -41 q 353 -56 338 -41 q 368 -92 368 -71 q 353 -126 368 -112 q 319 -140 338 -140 q 283 -126 298 -140 q 269 -92 269 -112 q 283 -56 269 -71 q 319 -41 298 -41 m 220 -110 l 0 -110 l 0 -47 l 220 -47 l 220 -110 m 319 -180 q 353 -195 338 -180 q 368 -229 368 -209 q 354 -265 368 -250 q 319 -279 339 -279 q 283 -265 298 -279 q 269 -229 269 -250 q 283 -195 269 -209 q 319 -180 298 -180 z "},"ֳ":{"ha":0,"x_min":0,"x_max":368,"o":"m 220 -110 l 141 -110 l 141 -236 l 79 -236 l 79 -110 l 0 -110 l 0 -47 l 220 -47 l 220 -110 m 319 -180 q 353 -195 338 -180 q 368 -229 368 -209 q 354 -265 368 -250 q 319 -279 339 -279 q 283 -265 298 -279 q 269 -229 269 -250 q 283 -195 269 -209 q 319 -180 298 -180 m 319 -41 q 353 -56 338 -41 q 368 -92 368 -71 q 353 -126 368 -112 q 319 -140 338 -140 q 283 -126 298 -140 q 269 -92 269 -112 q 283 -56 269 -71 q 319 -41 298 -41 z "},"ִ":{"ha":0,"x_min":0,"x_max":100,"o":"m 51 -41 q 85 -56 71 -41 q 100 -92 100 -71 q 85 -127 100 -113 q 51 -142 71 -142 q 15 -127 30 -142 q 0 -92 0 -112 q 15 -56 0 -71 q 51 -41 30 -41 z "},"ֵ":{"ha":0,"x_min":0,"x_max":249,"o":"m 200 -41 q 235 -56 220 -41 q 249 -92 249 -71 q 235 -126 249 -112 q 200 -140 220 -140 q 164 -126 179 -140 q 149 -92 149 -112 q 164 -56 149 -71 q 200 -41 179 -41 m 50 -41 q 86 -56 71 -41 q 101 -92 101 -71 q 86 -126 101 -112 q 50 -140 71 -140 q 15 -126 30 -140 q 0 -92 0 -112 q 15 -56 0 -71 q 50 -41 30 -41 z "},"ֶ":{"ha":0,"x_min":0,"x_max":249,"o":"m 200 -41 q 235 -56 220 -41 q 249 -92 249 -71 q 235 -126 249 -112 q 200 -140 220 -140 q 164 -126 179 -140 q 149 -92 149 -112 q 164 -56 149 -71 q 200 -41 179 -41 m 50 -41 q 86 -56 71 -41 q 101 -92 101 -71 q 86 -126 101 -112 q 50 -140 71 -140 q 15 -126 30 -140 q 0 -92 0 -112 q 15 -56 0 -71 q 50 -41 30 -41 m 125 -180 q 160 -195 145 -180 q 175 -229 175 -209 q 160 -265 175 -250 q 125 -279 146 -279 q 90 -265 104 -279 q 75 -229 75 -250 q 90 -195 75 -209 q 125 -180 104 -180 z "},"ַ":{"ha":0,"x_min":0,"x_max":233,"o":"m 233 -110 l 0 -110 l 0 -47 l 233 -47 l 233 -110 z "},"ָ":{"ha":0,"x_min":0,"x_max":233,"o":"m 233 -110 l 148 -110 l 148 -236 l 85 -236 l 85 -110 l 0 -110 l 0 -47 l 233 -47 l 233 -110 z "},"ֹ":{"ha":0,"x_min":-50,"x_max":50,"o":"m 1 1011 q 36 996 22 1011 q 50 960 50 981 q 36 925 50 940 q 1 910 22 910 q -35 925 -20 910 q -50 960 -50 940 q -35 996 -50 981 q 1 1011 -20 1011 z "},"ֻ":{"ha":0,"x_min":0,"x_max":351,"o":"m 50 -41 q 86 -56 71 -41 q 101 -92 101 -71 q 86 -126 101 -112 q 50 -140 71 -140 q 15 -126 30 -140 q 0 -92 0 -112 q 15 -56 0 -71 q 50 -41 30 -41 m 173 -111 q 208 -125 193 -111 q 222 -161 222 -140 q 208 -196 222 -182 q 173 -210 193 -210 q 137 -196 152 -210 q 122 -161 122 -182 q 137 -125 122 -140 q 173 -111 152 -111 m 301 -180 q 336 -195 321 -180 q 351 -229 351 -209 q 337 -265 351 -250 q 301 -279 322 -279 q 266 -265 280 -279 q 252 -229 252 -250 q 266 -195 252 -209 q 301 -180 280 -180 z "},"ּ":{"ha":0,"x_min":60,"x_max":160,"o":"m 111 495 q 146 480 132 495 q 160 444 160 465 q 146 410 160 424 q 111 395 132 395 q 75 410 90 395 q 60 444 60 424 q 75 480 60 465 q 111 495 90 495 z "},"ֽ":{"ha":0,"x_min":-31,"x_max":31,"o":"m 31 -273 l -31 -273 l -31 -47 l 31 -47 l 31 -273 z "},"־":{"ha":361,"x_min":39,"x_max":322,"o":"m 322 725 l 39 725 l 39 859 l 322 859 l 322 725 z "},"ֿ":{"ha":0,"x_min":-125,"x_max":125,"o":"m 125 917 l -125 917 l -125 972 l 125 972 l 125 917 z "},"׀":{"ha":314,"x_min":98,"x_max":215,"o":"m 215 0 l 98 0 l 98 859 l 215 859 l 215 0 z "},"ׁ":{"ha":0,"x_min":210,"x_max":310,"o":"m 261 1011 q 296 996 281 1011 q 310 960 310 981 q 296 925 310 940 q 261 910 281 910 q 225 925 240 910 q 210 960 210 940 q 225 996 210 981 q 261 1011 240 1011 z "},"ׂ":{"ha":0,"x_min":-311,"x_max":-210,"o":"m -261 1011 q -225 996 -240 1011 q -210 960 -210 981 q -225 925 -210 940 q -261 910 -240 910 q -296 925 -281 910 q -311 960 -311 940 q -296 996 -311 981 q -261 1011 -281 1011 z "},"׃":{"ha":386,"x_min":123,"x_max":262,"o":"m 262 720 l 123 720 l 123 859 l 262 859 l 262 720 m 262 0 l 123 0 l 123 139 l 262 139 l 262 0 z "},"א":{"ha":833,"x_min":89,"x_max":751,"o":"m 751 0 l 596 0 l 460 231 l 323 463 q 220 222 220 382 l 220 150 q 236 134 220 134 l 296 134 l 296 0 l 196 0 q 103 104 103 0 l 103 222 q 269 553 103 435 l 179 705 l 89 859 l 244 859 l 365 654 l 486 449 q 618 700 618 536 l 618 708 q 602 725 618 725 l 542 725 l 542 859 l 642 859 q 734 754 734 859 l 734 700 q 541 357 734 481 l 646 178 l 751 0 z "},"ב":{"ha":791,"x_min":40,"x_max":761,"o":"m 761 0 l 40 0 l 40 134 l 522 134 l 522 603 q 489 697 522 670 q 382 725 455 725 l 61 725 l 61 859 l 390 859 q 581 800 522 859 q 639 615 639 742 l 639 134 l 761 134 l 761 0 z "},"ג":{"ha":583,"x_min":16,"x_max":481,"o":"m 481 0 l 364 0 l 364 256 q 229 158 296 239 q 149 0 163 77 l 16 0 q 142 234 40 122 q 364 372 243 345 l 364 616 q 339 704 364 682 q 253 725 314 725 l 204 725 l 204 859 l 261 859 q 429 806 376 859 q 481 627 481 753 l 481 0 z "},"ד":{"ha":722,"x_min":14,"x_max":692,"o":"m 692 725 l 570 725 l 570 0 l 453 0 l 453 725 l 14 725 l 14 859 l 692 859 l 692 725 z "},"ה":{"ha":833,"x_min":103,"x_max":730,"o":"m 730 0 l 614 0 l 614 603 q 580 697 614 670 q 473 725 547 725 l 103 725 l 103 859 l 482 859 q 672 800 614 859 q 730 615 730 742 l 730 0 m 220 0 l 103 0 l 103 497 l 220 497 l 220 0 z "},"ו":{"ha":444,"x_min":52,"x_max":342,"o":"m 342 0 l 225 0 l 225 616 q 200 704 225 682 q 114 725 175 725 l 52 725 l 52 859 l 122 859 q 290 806 238 859 q 342 627 342 753 l 342 0 z "},"ז":{"ha":486,"x_min":14,"x_max":456,"o":"m 456 725 l 334 725 l 334 0 l 216 0 l 216 725 l 14 725 l 14 859 l 456 859 l 456 725 z "},"ח":{"ha":833,"x_min":103,"x_max":730,"o":"m 730 0 l 614 0 l 614 603 q 580 697 614 670 q 473 725 547 725 l 220 725 l 220 0 l 103 0 l 103 859 l 482 859 q 672 800 614 859 q 730 615 730 742 l 730 0 z "},"ט":{"ha":833,"x_min":40,"x_max":730,"o":"m 730 243 q 672 58 730 117 q 482 0 614 0 l 354 0 q 164 58 222 0 q 106 243 106 117 l 106 688 q 64 725 106 725 l 40 725 l 40 859 l 72 859 q 189 827 155 859 q 222 697 222 795 l 222 256 q 256 161 222 189 q 363 134 290 134 l 473 134 q 580 161 547 134 q 614 256 614 189 l 614 664 q 545 725 614 725 q 476 664 476 725 l 476 623 l 359 623 l 359 684 q 408 811 359 763 q 545 859 456 859 q 730 684 730 859 l 730 243 z "},"י":{"ha":444,"x_min":52,"x_max":342,"o":"m 342 393 l 225 393 l 225 616 q 200 704 225 682 q 114 725 175 725 l 52 725 l 52 859 l 122 859 q 290 806 238 859 q 342 627 342 753 l 342 393 z "},"ך":{"ha":722,"x_min":43,"x_max":673,"o":"m 673 -277 l 642 -277 q 526 -245 559 -277 q 492 -115 492 -214 l 492 603 q 458 697 492 670 q 351 725 425 725 l 43 725 l 43 859 l 359 859 q 550 800 492 859 q 608 615 608 742 l 608 -106 q 650 -143 608 -143 l 673 -143 l 673 -277 z "},"כ":{"ha":722,"x_min":61,"x_max":619,"o":"m 619 243 q 561 58 619 117 q 371 0 503 0 l 61 0 l 61 134 l 363 134 q 469 161 435 134 q 503 256 503 189 l 503 603 q 469 697 503 670 q 363 725 435 725 l 61 725 l 61 859 l 371 859 q 561 800 503 859 q 619 615 619 742 l 619 243 z "},"ל":{"ha":722,"x_min":49,"x_max":636,"o":"m 636 587 q 596 444 636 499 q 473 318 557 388 q 364 220 389 249 q 339 155 339 191 q 364 134 339 134 l 422 134 l 422 0 l 354 0 q 259 37 296 0 q 222 138 222 75 q 257 257 222 211 q 379 373 291 302 q 493 489 467 443 q 519 587 519 536 l 519 682 q 472 725 519 725 l 199 725 q 83 756 117 725 q 49 886 49 787 l 49 1025 l 165 1025 l 165 896 q 207 859 165 859 l 473 859 q 636 710 636 859 l 636 587 z "},"ם":{"ha":833,"x_min":54,"x_max":730,"o":"m 730 0 l 106 0 l 106 725 l 54 725 l 54 859 l 559 859 q 730 697 730 859 l 730 0 m 614 134 l 614 677 q 567 725 614 725 l 222 725 l 222 134 l 614 134 z "},"מ":{"ha":833,"x_min":40,"x_max":730,"o":"m 730 0 l 440 0 l 440 134 l 612 134 l 612 554 q 449 725 612 725 q 291 659 359 725 q 222 513 222 593 l 222 0 l 106 0 l 106 688 q 64 725 106 725 l 40 725 l 40 859 l 72 859 q 187 828 154 859 q 222 715 220 797 q 322 820 258 781 q 460 859 386 859 q 665 784 600 859 q 730 551 730 709 l 730 0 z "},"ן":{"ha":486,"x_min":50,"x_max":437,"o":"m 437 -277 l 406 -277 q 290 -245 323 -277 q 256 -115 256 -214 l 256 616 q 231 704 256 682 q 144 725 205 725 l 50 725 l 50 859 l 153 859 q 320 806 269 859 q 372 627 372 753 l 372 -106 q 414 -143 372 -143 l 437 -143 l 437 -277 z "},"נ":{"ha":486,"x_min":40,"x_max":383,"o":"m 383 0 l 40 0 l 40 134 l 267 134 l 267 616 q 242 704 267 682 q 155 725 217 725 l 61 725 l 61 859 l 164 859 q 331 806 279 859 q 383 627 383 753 l 383 0 z "},"ס":{"ha":833,"x_min":54,"x_max":730,"o":"m 730 243 q 672 58 730 117 q 482 0 614 0 l 354 0 q 164 58 222 0 q 106 243 106 117 l 106 725 l 54 725 l 54 859 l 559 859 q 730 697 730 859 l 730 243 m 614 256 l 614 677 q 567 725 614 725 l 222 725 l 222 256 q 256 161 222 189 q 363 134 290 134 l 473 134 q 580 161 547 134 q 614 256 614 189 z "},"ע":{"ha":833,"x_min":31,"x_max":730,"o":"m 730 375 q 650 93 730 186 q 399 0 570 0 l 31 0 l 31 134 l 208 134 l 158 688 q 111 725 155 725 l 87 725 l 87 859 l 119 859 q 237 825 208 859 q 275 697 267 791 l 325 134 l 396 134 q 563 194 511 134 q 614 378 614 254 l 614 859 l 730 859 l 730 375 z "},"ף":{"ha":833,"x_min":92,"x_max":785,"o":"m 785 -277 l 753 -277 q 637 -245 671 -277 q 603 -115 603 -214 l 603 603 q 569 697 603 670 q 463 725 536 725 l 208 725 l 208 568 q 314 473 208 473 l 411 473 l 411 340 l 302 340 q 148 399 205 340 q 92 566 92 458 l 92 859 l 471 859 q 661 800 603 859 q 720 615 720 742 l 720 -106 q 761 -143 720 -143 l 785 -143 l 785 -277 z "},"פ":{"ha":764,"x_min":75,"x_max":661,"o":"m 661 243 q 603 58 661 117 q 412 0 545 0 l 75 0 l 75 134 l 404 134 q 511 161 477 134 q 545 256 545 189 l 545 603 q 511 697 545 670 q 404 725 477 725 l 192 725 l 192 568 q 297 473 192 473 l 380 473 l 380 340 l 286 340 q 132 399 188 340 q 75 566 75 458 l 75 859 l 412 859 q 603 800 545 859 q 661 615 661 742 l 661 243 z "},"ץ":{"ha":736,"x_min":40,"x_max":661,"o":"m 479 859 l 511 859 q 627 827 593 859 q 661 697 661 795 q 547 390 661 501 q 244 279 433 279 l 222 279 l 222 -106 q 264 -143 222 -143 l 288 -143 l 288 -277 l 256 -277 q 140 -245 174 -277 q 106 -115 106 -214 l 106 688 q 64 725 106 725 l 40 725 l 40 859 l 72 859 q 189 827 155 859 q 222 697 222 795 l 222 396 l 241 396 q 466 473 387 396 q 545 688 545 549 q 503 725 545 725 l 479 725 l 479 859 z "},"צ":{"ha":764,"x_min":40,"x_max":677,"o":"m 488 375 l 536 346 q 646 256 614 300 q 677 150 677 212 q 521 0 677 0 l 71 0 l 71 134 l 514 134 q 557 161 557 134 q 472 250 557 200 l 304 349 q 144 493 183 419 q 106 688 106 568 q 64 725 106 725 l 40 725 l 40 859 l 72 859 q 189 827 155 859 q 222 697 222 795 q 309 484 222 539 q 395 428 395 429 q 545 688 545 524 q 503 725 545 725 l 479 725 l 479 859 l 511 859 q 627 827 593 859 q 661 697 661 795 q 488 375 661 490 z "},"ק":{"ha":778,"x_min":103,"x_max":692,"o":"m 692 587 q 660 453 692 506 q 555 330 628 401 q 459 227 481 258 q 436 155 436 195 q 461 134 436 134 l 519 134 l 519 0 l 452 0 q 356 37 393 0 q 319 138 319 75 q 350 259 319 214 q 459 379 380 304 q 556 495 538 453 q 575 587 575 538 l 575 682 q 528 725 575 725 l 103 725 l 103 859 l 529 859 q 692 710 692 859 l 692 587 m 220 -277 l 103 -277 l 103 497 l 220 497 l 220 -277 z "},"ר":{"ha":694,"x_min":31,"x_max":591,"o":"m 591 0 l 475 0 l 475 603 q 441 697 475 670 q 335 725 408 725 l 31 725 l 31 859 l 343 859 q 533 800 475 859 q 591 615 591 742 l 591 0 z "},"ש":{"ha":922,"x_min":103,"x_max":819,"o":"m 819 243 q 761 58 819 117 q 571 0 703 0 l 351 0 q 161 58 220 0 q 103 243 103 117 l 103 697 q 137 827 103 795 q 253 859 171 859 l 275 859 l 275 725 l 261 725 q 220 688 220 725 l 220 256 q 253 161 220 189 q 359 134 287 134 l 403 134 l 403 859 l 519 859 l 519 134 l 562 134 q 669 161 635 134 q 703 256 703 189 l 703 688 q 661 725 703 725 l 647 725 l 647 859 l 669 859 q 785 827 751 859 q 819 697 819 795 l 819 243 z "},"ת":{"ha":833,"x_min":57,"x_max":730,"o":"m 730 0 l 614 0 l 614 603 q 580 697 614 670 q 473 725 547 725 l 239 725 l 239 161 q 205 31 239 62 q 89 0 171 0 l 57 0 l 57 134 l 81 134 q 122 171 122 134 l 122 725 l 71 725 l 71 859 l 482 859 q 672 800 614 859 q 730 615 730 742 l 730 0 z "},"װ":{"ha":833,"x_min":37,"x_max":730,"o":"m 328 0 l 211 0 l 211 616 q 186 704 211 682 q 100 725 161 725 l 37 725 l 37 859 l 108 859 q 276 806 224 859 q 328 627 328 753 l 328 0 m 730 0 l 614 0 l 614 616 q 589 704 614 682 q 503 725 564 725 l 440 725 l 440 859 l 511 859 q 679 806 627 859 q 730 627 730 753 l 730 0 z "},"ױ":{"ha":833,"x_min":37,"x_max":730,"o":"m 328 393 l 211 393 l 211 616 q 186 704 211 682 q 100 725 161 725 l 37 725 l 37 859 l 108 859 q 276 806 224 859 q 328 627 328 753 l 328 393 m 730 0 l 614 0 l 614 616 q 589 704 614 682 q 503 725 564 725 l 440 725 l 440 859 l 511 859 q 679 806 627 859 q 730 627 730 753 l 730 0 z "},"ײ":{"ha":833,"x_min":37,"x_max":730,"o":"m 328 393 l 211 393 l 211 616 q 186 704 211 682 q 100 725 161 725 l 37 725 l 37 859 l 108 859 q 276 806 224 859 q 328 627 328 753 l 328 393 m 730 393 l 614 393 l 614 616 q 589 704 614 682 q 503 725 564 725 l 440 725 l 440 859 l 511 859 q 679 806 627 859 q 730 627 730 753 l 730 393 z "},"׳":{"ha":347,"x_min":65,"x_max":282,"o":"m 282 1055 l 160 676 l 65 676 l 187 1055 l 282 1055 z "},"״":{"ha":597,"x_min":65,"x_max":532,"o":"m 532 1055 l 410 676 l 315 676 l 437 1055 l 532 1055 m 282 1055 l 160 676 l 65 676 l 187 1055 l 282 1055 z "},"₪":{"ha":937,"x_min":81,"x_max":860,"o":"m 860 243 q 801 58 860 117 q 611 0 743 0 l 301 0 l 301 519 l 418 519 l 418 134 l 603 134 q 709 161 675 134 q 743 256 743 189 l 743 859 l 860 859 l 860 243 m 639 339 l 522 339 l 522 603 q 489 697 522 670 q 382 725 455 725 l 197 725 l 197 0 l 81 0 l 81 859 l 390 859 q 581 800 522 859 q 639 615 639 742 l 639 339 z "},"ﬠ":{"ha":833,"x_min":31,"x_max":730,"o":"m 730 375 q 650 93 730 186 q 399 0 570 0 l 31 0 l 31 134 l 208 134 l 158 688 q 111 725 155 725 l 87 725 l 87 859 l 119 859 q 237 825 208 859 q 275 697 267 791 l 325 134 l 396 134 q 563 194 511 134 q 614 378 614 254 l 614 859 l 730 859 l 730 375 z "},"שׁ":{"ha":922,"x_min":103,"x_max":819,"o":"m 819 243 q 761 58 819 117 q 571 0 703 0 l 351 0 q 161 58 220 0 q 103 243 103 117 l 103 697 q 137 827 103 795 q 253 859 171 859 l 275 859 l 275 725 l 261 725 q 220 688 220 725 l 220 256 q 253 161 220 189 q 359 134 287 134 l 403 134 l 403 859 l 519 859 l 519 134 l 562 134 q 669 161 635 134 q 703 256 703 189 l 703 688 q 661 725 703 725 l 647 725 l 647 859 l 669 859 q 785 827 751 859 q 819 697 819 795 l 819 243 m 722 1011 q 757 996 743 1011 q 771 960 771 981 q 757 925 771 940 q 722 910 743 910 q 686 925 701 910 q 671 960 671 940 q 686 996 671 981 q 722 1011 701 1011 z "},"שׂ":{"ha":922,"x_min":103,"x_max":819,"o":"m 819 243 q 761 58 819 117 q 571 0 703 0 l 351 0 q 161 58 220 0 q 103 243 103 117 l 103 697 q 137 827 103 795 q 253 859 171 859 l 275 859 l 275 725 l 261 725 q 220 688 220 725 l 220 256 q 253 161 220 189 q 359 134 287 134 l 403 134 l 403 859 l 519 859 l 519 134 l 562 134 q 669 161 635 134 q 703 256 703 189 l 703 688 q 661 725 703 725 l 647 725 l 647 859 l 669 859 q 785 827 751 859 q 819 697 819 795 l 819 243 m 200 1011 q 236 996 221 1011 q 251 960 251 981 q 236 925 251 940 q 200 910 221 910 q 165 925 180 910 q 150 960 150 940 q 165 996 150 981 q 200 1011 180 1011 z "},"שּׁ":{"ha":922,"x_min":103,"x_max":819,"o":"m 819 243 q 761 58 819 117 q 571 0 703 0 l 351 0 q 161 58 220 0 q 103 243 103 117 l 103 697 q 137 827 103 795 q 253 859 171 859 l 275 859 l 275 725 l 261 725 q 220 688 220 725 l 220 256 q 253 161 220 189 q 359 134 287 134 l 403 134 l 403 859 l 519 859 l 519 134 l 562 134 q 669 161 635 134 q 703 256 703 189 l 703 688 q 661 725 703 725 l 647 725 l 647 859 l 669 859 q 785 827 751 859 q 819 697 819 795 l 819 243 m 613 495 q 648 480 633 495 q 662 444 662 465 q 648 410 662 424 q 613 395 633 395 q 577 410 592 395 q 562 444 562 424 q 577 480 562 465 q 613 495 592 495 m 722 1011 q 757 996 743 1011 q 771 960 771 981 q 757 925 771 940 q 722 910 743 910 q 686 925 701 910 q 671 960 671 940 q 686 996 671 981 q 722 1011 701 1011 z "},"שּׂ":{"ha":922,"x_min":103,"x_max":819,"o":"m 819 243 q 761 58 819 117 q 571 0 703 0 l 351 0 q 161 58 220 0 q 103 243 103 117 l 103 697 q 137 827 103 795 q 253 859 171 859 l 275 859 l 275 725 l 261 725 q 220 688 220 725 l 220 256 q 253 161 220 189 q 359 134 287 134 l 403 134 l 403 859 l 519 859 l 519 134 l 562 134 q 669 161 635 134 q 703 256 703 189 l 703 688 q 661 725 703 725 l 647 725 l 647 859 l 669 859 q 785 827 751 859 q 819 697 819 795 l 819 243 m 613 495 q 648 480 633 495 q 662 444 662 465 q 648 410 662 424 q 613 395 633 395 q 577 410 592 395 q 562 444 562 424 q 577 480 562 465 q 613 495 592 495 m 200 1011 q 236 996 221 1011 q 251 960 251 981 q 236 925 251 940 q 200 910 221 910 q 165 925 180 910 q 150 960 150 940 q 165 996 150 981 q 200 1011 180 1011 z "},"אַ":{"ha":833,"x_min":89,"x_max":751,"o":"m 751 0 l 596 0 l 460 231 l 323 463 q 220 222 220 382 l 220 150 q 236 134 220 134 l 296 134 l 296 0 l 196 0 q 103 104 103 0 l 103 222 q 269 553 103 435 l 179 705 l 89 859 l 244 859 l 365 654 l 486 449 q 618 700 618 536 l 618 708 q 602 725 618 725 l 542 725 l 542 859 l 642 859 q 734 754 734 859 l 734 700 q 541 357 734 481 l 646 178 l 751 0 m 538 -110 l 305 -110 l 305 -47 l 538 -47 l 538 -110 z "},"אָ":{"ha":833,"x_min":89,"x_max":751,"o":"m 751 0 l 596 0 l 460 231 l 323 463 q 220 222 220 382 l 220 150 q 236 134 220 134 l 296 134 l 296 0 l 196 0 q 103 104 103 0 l 103 222 q 269 553 103 435 l 179 705 l 89 859 l 244 859 l 365 654 l 486 449 q 618 700 618 536 l 618 708 q 602 725 618 725 l 542 725 l 542 859 l 642 859 q 734 754 734 859 l 734 700 q 541 357 734 481 l 646 178 l 751 0 m 538 -110 l 453 -110 l 453 -236 l 391 -236 l 391 -110 l 305 -110 l 305 -47 l 538 -47 l 538 -110 z "},"אּ":{"ha":833,"x_min":89,"x_max":751,"o":"m 751 0 l 596 0 l 460 231 l 323 463 q 220 222 220 382 l 220 150 q 236 134 220 134 l 296 134 l 296 0 l 196 0 q 103 104 103 0 l 103 222 q 269 553 103 435 l 179 705 l 89 859 l 244 859 l 365 654 l 486 449 q 618 700 618 536 l 618 708 q 602 725 618 725 l 542 725 l 542 859 l 642 859 q 734 754 734 859 l 734 700 q 541 357 734 481 l 646 178 l 751 0 m 418 119 q 453 104 439 119 q 467 68 467 90 q 453 34 467 48 q 418 20 439 20 q 382 34 397 20 q 368 68 368 48 q 382 104 368 90 q 418 119 397 119 z "},"בּ":{"ha":791,"x_min":40,"x_max":761,"o":"m 761 0 l 40 0 l 40 134 l 522 134 l 522 603 q 489 697 522 670 q 382 725 455 725 l 61 725 l 61 859 l 390 859 q 581 800 522 859 q 639 615 639 742 l 639 134 l 761 134 l 761 0 m 292 495 q 326 480 312 495 q 340 444 340 465 q 326 410 340 424 q 292 395 312 395 q 256 410 271 395 q 241 444 241 424 q 256 480 241 465 q 292 495 271 495 z "},"גּ":{"ha":583,"x_min":16,"x_max":481,"o":"m 481 0 l 364 0 l 364 256 q 229 158 296 239 q 149 0 163 77 l 16 0 q 142 234 40 122 q 364 372 243 345 l 364 616 q 339 704 364 682 q 253 725 314 725 l 204 725 l 204 859 l 261 859 q 429 806 376 859 q 481 627 481 753 l 481 0 m 157 495 q 191 480 177 495 q 205 444 205 465 q 191 410 205 424 q 157 395 177 395 q 121 410 136 395 q 106 444 106 424 q 121 480 106 465 q 157 495 136 495 z "},"דּ":{"ha":722,"x_min":14,"x_max":692,"o":"m 692 725 l 570 725 l 570 0 l 453 0 l 453 725 l 14 725 l 14 859 l 692 859 l 692 725 m 236 495 q 271 480 256 495 q 285 444 285 465 q 271 410 285 424 q 236 395 256 395 q 200 410 215 395 q 185 444 185 424 q 200 480 185 465 q 236 495 215 495 z "},"הּ":{"ha":833,"x_min":103,"x_max":730,"o":"m 730 0 l 614 0 l 614 603 q 580 697 614 670 q 473 725 547 725 l 103 725 l 103 859 l 482 859 q 672 800 614 859 q 730 615 730 742 l 730 0 m 220 0 l 103 0 l 103 497 l 220 497 l 220 0 m 418 495 q 452 480 438 495 q 467 444 467 465 q 452 410 467 424 q 418 395 438 395 q 382 410 397 395 q 367 444 367 424 q 382 480 367 465 q 418 495 397 495 z "},"וּ":{"ha":444,"x_min":51,"x_max":342,"o":"m 342 0 l 225 0 l 225 616 q 200 704 225 682 q 114 725 175 725 l 52 725 l 52 859 l 122 859 q 290 806 238 859 q 342 627 342 753 l 342 0 m 102 495 q 136 480 122 495 q 151 444 151 465 q 136 410 151 424 q 102 395 122 395 q 66 410 81 395 q 51 444 51 424 q 66 480 51 465 q 102 495 81 495 z "},"זּ":{"ha":486,"x_min":14,"x_max":456,"o":"m 456 725 l 334 725 l 334 0 l 216 0 l 216 725 l 14 725 l 14 859 l 456 859 l 456 725 m 95 495 q 130 480 115 495 q 144 444 144 465 q 130 410 144 424 q 95 395 115 395 q 59 410 74 395 q 44 444 44 424 q 59 480 44 465 q 95 495 74 495 z "},"טּ":{"ha":833,"x_min":40,"x_max":730,"o":"m 730 243 q 672 58 730 117 q 482 0 614 0 l 354 0 q 164 58 222 0 q 106 243 106 117 l 106 688 q 64 725 106 725 l 40 725 l 40 859 l 72 859 q 189 827 155 859 q 222 697 222 795 l 222 256 q 256 161 222 189 q 363 134 290 134 l 473 134 q 580 161 547 134 q 614 256 614 189 l 614 664 q 545 725 614 725 q 476 664 476 725 l 476 623 l 359 623 l 359 684 q 408 811 359 763 q 545 859 456 859 q 730 684 730 859 l 730 243 m 418 495 q 453 480 439 495 q 467 444 467 465 q 453 410 467 424 q 418 395 439 395 q 382 410 397 395 q 368 444 368 424 q 382 480 368 465 q 418 495 397 495 z "},"יּ":{"ha":444,"x_min":51,"x_max":342,"o":"m 342 393 l 225 393 l 225 616 q 200 704 225 682 q 114 725 175 725 l 52 725 l 52 859 l 122 859 q 290 806 238 859 q 342 627 342 753 l 342 393 m 102 593 q 136 578 122 593 q 151 543 151 564 q 136 508 151 522 q 102 494 122 494 q 66 508 81 494 q 51 543 51 522 q 66 578 51 564 q 102 593 81 593 z "},"ךּ":{"ha":722,"x_min":43,"x_max":673,"o":"m 673 -277 l 642 -277 q 526 -245 559 -277 q 492 -115 492 -214 l 492 603 q 458 697 492 670 q 351 725 425 725 l 43 725 l 43 859 l 359 859 q 550 800 492 859 q 608 615 608 742 l 608 -106 q 650 -143 608 -143 l 673 -143 l 673 -277 m 254 495 q 289 480 275 495 q 303 444 303 465 q 289 410 303 424 q 254 395 275 395 q 218 410 233 395 q 203 444 203 424 q 218 480 203 465 q 254 495 233 495 z "},"כּ":{"ha":722,"x_min":61,"x_max":619,"o":"m 619 243 q 561 58 619 117 q 371 0 503 0 l 61 0 l 61 134 l 363 134 q 469 161 435 134 q 503 256 503 189 l 503 603 q 469 697 503 670 q 363 725 435 725 l 61 725 l 61 859 l 371 859 q 561 800 503 859 q 619 615 619 742 l 619 243 m 274 495 q 309 480 294 495 q 323 444 323 465 q 309 410 323 424 q 274 395 294 395 q 238 410 253 395 q 223 444 223 424 q 238 480 223 465 q 274 495 253 495 z "},"לּ":{"ha":722,"x_min":49,"x_max":636,"o":"m 636 587 q 596 444 636 499 q 473 318 557 388 q 364 220 389 249 q 339 155 339 191 q 364 134 339 134 l 422 134 l 422 0 l 354 0 q 259 37 296 0 q 222 138 222 75 q 257 257 222 211 q 379 373 291 302 q 493 489 467 443 q 519 587 519 536 l 519 682 q 472 725 519 725 l 199 725 q 83 756 117 725 q 49 886 49 787 l 49 1025 l 165 1025 l 165 896 q 207 859 165 859 l 473 859 q 636 710 636 859 l 636 587 m 285 592 q 319 577 305 592 q 334 541 334 562 q 319 507 334 521 q 285 492 305 492 q 249 507 264 492 q 234 541 234 521 q 249 577 234 562 q 285 592 264 592 z "},"מּ":{"ha":833,"x_min":40,"x_max":730,"o":"m 730 0 l 440 0 l 440 134 l 612 134 l 612 554 q 449 725 612 725 q 291 659 359 725 q 222 513 222 593 l 222 0 l 106 0 l 106 688 q 64 725 106 725 l 40 725 l 40 859 l 72 859 q 187 828 154 859 q 222 715 220 797 q 322 820 258 781 q 460 859 386 859 q 665 784 600 859 q 730 551 730 709 l 730 0 m 418 495 q 453 480 439 495 q 467 444 467 465 q 453 410 467 424 q 418 395 439 395 q 382 410 397 395 q 368 444 368 424 q 382 480 368 465 q 418 495 397 495 z "},"נּ":{"ha":486,"x_min":40,"x_max":383,"o":"m 383 0 l 40 0 l 40 134 l 267 134 l 267 616 q 242 704 267 682 q 155 725 217 725 l 61 725 l 61 859 l 164 859 q 331 806 279 859 q 383 627 383 753 l 383 0 m 126 495 q 161 480 146 495 q 175 444 175 465 q 161 410 175 424 q 126 395 146 395 q 90 410 105 395 q 75 444 75 424 q 90 480 75 465 q 126 495 105 495 z "},"סּ":{"ha":833,"x_min":54,"x_max":730,"o":"m 730 243 q 672 58 730 117 q 482 0 614 0 l 354 0 q 164 58 222 0 q 106 243 106 117 l 106 725 l 54 725 l 54 859 l 559 859 q 730 697 730 859 l 730 243 m 614 256 l 614 677 q 567 725 614 725 l 222 725 l 222 256 q 256 161 222 189 q 363 134 290 134 l 473 134 q 580 161 547 134 q 614 256 614 189 m 418 495 q 453 480 439 495 q 467 444 467 465 q 453 410 467 424 q 418 395 439 395 q 382 410 397 395 q 368 444 368 424 q 382 480 368 465 q 418 495 397 495 z "},"ףּ":{"ha":833,"x_min":92,"x_max":785,"o":"m 785 -277 l 753 -277 q 637 -245 671 -277 q 603 -115 603 -214 l 603 603 q 569 697 603 670 q 463 725 536 725 l 208 725 l 208 568 q 314 473 208 473 l 411 473 l 411 340 l 302 340 q 148 399 205 340 q 92 566 92 458 l 92 859 l 471 859 q 661 800 603 859 q 720 615 720 742 l 720 -106 q 761 -143 720 -143 l 785 -143 l 785 -277 m 507 458 q 542 443 528 458 q 556 407 556 428 q 542 372 556 387 q 507 358 528 358 q 471 372 486 358 q 456 407 456 387 q 471 443 456 428 q 507 458 486 458 z "},"פּ":{"ha":764,"x_min":75,"x_max":661,"o":"m 661 243 q 603 58 661 117 q 412 0 545 0 l 75 0 l 75 134 l 404 134 q 511 161 477 134 q 545 256 545 189 l 545 603 q 511 697 545 670 q 404 725 477 725 l 192 725 l 192 568 q 297 473 192 473 l 380 473 l 380 340 l 286 340 q 132 399 188 340 q 75 566 75 458 l 75 859 l 412 859 q 603 800 545 859 q 661 615 661 742 l 661 243 m 463 458 q 497 443 483 458 q 511 407 511 428 q 497 372 511 387 q 463 358 483 358 q 427 372 441 358 q 412 407 412 387 q 427 443 412 428 q 463 458 441 458 z "},"צּ":{"ha":764,"x_min":40,"x_max":677,"o":"m 488 375 l 536 346 q 646 256 614 300 q 677 150 677 212 q 521 0 677 0 l 71 0 l 71 134 l 514 134 q 557 161 557 134 q 472 250 557 200 l 304 349 q 144 493 183 419 q 106 688 106 568 q 64 725 106 725 l 40 725 l 40 859 l 72 859 q 189 827 155 859 q 222 697 222 795 q 309 484 222 539 q 395 428 395 429 q 545 688 545 524 q 503 725 545 725 l 479 725 l 479 859 l 511 859 q 627 827 593 859 q 661 697 661 795 q 488 375 661 490 m 159 326 q 193 311 179 326 q 208 275 208 296 q 193 241 208 255 q 159 227 179 227 q 123 241 138 227 q 108 275 108 255 q 123 311 108 296 q 159 326 138 326 z "},"קּ":{"ha":778,"x_min":103,"x_max":692,"o":"m 692 587 q 660 453 692 506 q 555 330 628 401 q 459 227 481 258 q 436 155 436 195 q 461 134 436 134 l 519 134 l 519 0 l 452 0 q 356 37 393 0 q 319 138 319 75 q 350 259 319 214 q 459 379 380 304 q 556 495 538 453 q 575 587 575 538 l 575 682 q 528 725 575 725 l 103 725 l 103 859 l 529 859 q 692 710 692 859 l 692 587 m 220 -277 l 103 -277 l 103 497 l 220 497 l 220 -277 m 371 592 q 406 577 391 592 q 420 541 420 562 q 406 507 420 521 q 371 492 391 492 q 335 507 350 492 q 320 541 320 521 q 335 577 320 562 q 371 592 350 592 z "},"רּ":{"ha":694,"x_min":31,"x_max":591,"o":"m 591 0 l 475 0 l 475 603 q 441 697 475 670 q 335 725 408 725 l 31 725 l 31 859 l 343 859 q 533 800 475 859 q 591 615 591 742 l 591 0 m 237 495 q 271 480 257 495 q 286 444 286 465 q 271 410 286 424 q 237 395 257 395 q 201 410 216 395 q 186 444 186 424 q 201 480 186 465 q 237 495 216 495 z "}}}
